SplineFontDB: 3.0
FontName: Driftjunky13
FullName: Driftjunky13
FamilyName: Driftjunky13
Weight: Medium
Copyright: Created by Sterling Gee using glyphs by Bruce Mercado with FontForge 2.0 (http://fontforge.sf.net)
Version: 0.1
ItalicAngle: 0
UnderlinePosition: -100
UnderlineWidth: 50
Ascent: 800
Descent: 200
LayerCount: 2
Layer: 0 1 "Back"  1
Layer: 1 1 "Fore"  0
NeedsXUIDChange: 1
XUID: [1021 175 822079741 15582845]
FSType: 0
OS2Version: 1
OS2_WeightWidthSlopeOnly: 0
OS2_UseTypoMetrics: 1
CreationTime: 1297022711
ModificationTime: 1299303179
PfmFamily: 17
TTFWeight: 500
TTFWidth: 5
LineGap: 90
VLineGap: 0
Panose: 2 0 6 3 0 0 0 0 0 0
OS2TypoAscent: 0
OS2TypoAOffset: 1
OS2TypoDescent: 0
OS2TypoDOffset: 1
OS2TypoLinegap: 90
OS2WinAscent: -1
OS2WinAOffset: 1
OS2WinDescent: 0
OS2WinDOffset: 1
HheadAscent: 0
HheadAOffset: 1
HheadDescent: 0
HheadDOffset: 1
OS2SubXSize: 650
OS2SubYSize: 699
OS2SubXOff: 0
OS2SubYOff: 140
OS2SupXSize: 650
OS2SupYSize: 699
OS2SupXOff: 0
OS2SupYOff: 479
OS2StrikeYSize: 49
OS2StrikeYPos: 258
OS2Vendor: 'PfEd'
OS2CodePages: 00000001.00000000
OS2UnicodeRanges: 00000001.00000000.00000000.00000000
DEI: 91125
ShortTable: cvt  2
  33
  633
EndShort
ShortTable: maxp 16
  1
  0
  82
  74
  3
  0
  0
  2
  0
  1
  1
  0
  64
  46
  0
  0
EndShort
LangName: 1033 "" "" "" "FontForge 2.0 : Driftjunky13 : 6-2-2011" 
GaspTable: 1 65535 2
Encoding: UnicodeBmp
UnicodeInterp: none
NameList: Adobe Glyph List
DisplaySize: -24
AntiAlias: 1
FitToEm: 1
WinInfo: 32 16 14
BeginChars: 65539 148

StartChar: .notdef
Encoding: 65536 -1 0
Width: 364
Flags: W
LayerCount: 2
Fore
SplineSet
33 0 m 1,0,-1
 33 666 l 1,1,-1
 298 666 l 1,2,-1
 298 0 l 1,3,-1
 33 0 l 1,0,-1
66 33 m 1,4,-1
 265 33 l 1,5,-1
 265 633 l 1,6,-1
 66 633 l 1,7,-1
 66 33 l 1,4,-1
EndSplineSet
EndChar

StartChar: exclam
Encoding: 33 33 4
Width: 328
Flags: W
LayerCount: 2
Fore
SplineSet
248 104 m 1,0,1
 255 83 255 83 256 65 c 128,-1,2
 257 47 257 47 255 35.5 c 128,-1,3
 253 24 253 24 242 8.5 c 128,-1,4
 231 -7 231 -7 224.5 -14 c 128,-1,5
 218 -21 218 -21 200 -39 c 1,6,7
 181 -33 181 -33 155.5 -14 c 128,-1,8
 130 5 130 5 121 9 c 1,9,10
 118 67 118 67 150 90.5 c 128,-1,11
 182 114 182 114 248 104 c 1,0,1
200 928 m 1,12,13
 196 854 196 854 205.5 755 c 128,-1,14
 215 656 215 656 227 579.5 c 128,-1,15
 239 503 239 503 238.5 411 c 128,-1,16
 238 319 238 319 216 247 c 1,17,18
 191 241 191 241 176 247.5 c 128,-1,19
 161 254 161 254 157 269.5 c 128,-1,20
 153 285 153 285 152 305.5 c 128,-1,21
 151 326 151 326 153 348 c 128,-1,22
 155 370 155 370 153 389 c 1,23,24
 136 428 136 428 128 495 c 128,-1,25
 120 562 120 562 118 624.5 c 128,-1,26
 116 687 116 687 105.5 759.5 c 128,-1,27
 95 832 95 832 74 880 c 1,28,29
 79 900 79 900 98 925.5 c 128,-1,30
 117 951 117 951 121 960 c 1,31,32
 138 964 138 964 147.5 958.5 c 128,-1,33
 157 953 157 953 161 944 c 128,-1,34
 165 935 165 935 174.5 929.5 c 128,-1,35
 184 924 184 924 200 928 c 1,12,13
EndSplineSet
EndChar

StartChar: quotedbl
Encoding: 34 34 5
Width: 500
Flags: W
LayerCount: 2
Fore
SplineSet
153 876 m 1,0,1
 164 828 164 828 157.5 736.5 c 128,-1,2
 151 645 151 645 143.5 575.5 c 128,-1,3
 136 506 136 506 147 435 c 1,4,5
 127 412 127 412 118.5 405 c 128,-1,6
 110 398 110 398 84 382 c 1,7,8
 74 428 74 428 75.5 492.5 c 128,-1,9
 77 557 77 557 83.5 610.5 c 128,-1,10
 90 664 90 664 92 725.5 c 128,-1,11
 94 787 94 787 86 827 c 1,12,13
 102 838 102 838 115.5 853.5 c 128,-1,14
 129 869 129 869 136 874.5 c 128,-1,15
 143 880 143 880 153 876 c 1,0,1
406 872 m 1,16,17
 417 824 417 824 411 732.5 c 128,-1,18
 405 641 405 641 397 571.5 c 128,-1,19
 389 502 389 502 401 431 c 1,20,21
 380 408 380 408 371.5 401 c 128,-1,22
 363 394 363 394 337 378 c 1,23,24
 328 424 328 424 329 488.5 c 128,-1,25
 330 553 330 553 337 606.5 c 128,-1,26
 344 660 344 660 346 721.5 c 128,-1,27
 348 783 348 783 339 823 c 1,28,29
 355 834 355 834 368.5 849 c 128,-1,30
 382 864 382 864 389 870 c 128,-1,31
 396 876 396 876 406 872 c 1,16,17
EndSplineSet
EndChar

StartChar: quotesingle
Encoding: 39 39 6
Width: 340
Flags: W
LayerCount: 2
Fore
SplineSet
153 786 m 1,0,-1
 239 667 l 1,1,2
 254 614 254 614 255 570 c 128,-1,3
 256 526 256 526 247 500 c 128,-1,4
 238 474 238 474 227 455 c 128,-1,5
 216 436 216 436 206 429 c 2,6,-1
 197 422 l 1,7,8
 203 460 203 460 204 489.5 c 128,-1,9
 205 519 205 519 199.5 540 c 128,-1,10
 194 561 194 561 189 572 c 128,-1,11
 184 583 184 583 173 600 c 128,-1,12
 162 617 162 617 159 624 c 1,13,14
 102 624 102 624 50 676 c 1,15,16
 42 710 42 710 76 743.5 c 128,-1,17
 110 777 110 777 153 786 c 1,0,-1
EndSplineSet
EndChar

StartChar: parenleft
Encoding: 40 40 7
Width: 512
Flags: W
LayerCount: 2
Fore
SplineSet
395 841 m 1,0,1
 338 800 338 800 289 721.5 c 128,-1,2
 240 643 240 643 209 550 c 128,-1,3
 178 457 178 457 170.5 354.5 c 128,-1,4
 163 252 163 252 180.5 163 c 128,-1,5
 198 74 198 74 253 4 c 128,-1,6
 308 -66 308 -66 395 -94 c 1,7,8
 233 -114 233 -114 146 41 c 0,9,10
 69 180 69 180 80 395 c 0,11,12
 90 608 90 608 180 759 c 0,13,14
 243 866 243 866 332 904 c 1,15,16
 353 901 353 901 368.5 874 c 128,-1,17
 384 847 384 847 395 841 c 1,0,1
EndSplineSet
EndChar

StartChar: parenright
Encoding: 41 41 8
Width: 552
Flags: W
LayerCount: 2
Fore
SplineSet
239 -85 m 1,0,1
 251 -48 251 -48 277 22.5 c 128,-1,2
 303 93 303 93 321.5 144 c 128,-1,3
 340 195 340 195 356.5 267.5 c 128,-1,4
 373 340 373 340 375.5 399.5 c 128,-1,5
 378 459 378 459 362 527.5 c 128,-1,6
 346 596 346 596 308 656 c 0,7,8
 291 683 291 683 263.5 707 c 128,-1,9
 236 731 236 731 211 747 c 128,-1,10
 186 763 186 763 162 781 c 128,-1,11
 138 799 138 799 121.5 824 c 128,-1,12
 105 849 105 849 101 880 c 0,13,14
 97 909 97 909 118 915 c 1,15,16
 199 915 199 915 264.5 880.5 c 128,-1,17
 330 846 330 846 371 787 c 128,-1,18
 412 728 412 728 436.5 650 c 128,-1,19
 461 572 461 572 466 487.5 c 128,-1,20
 471 403 471 403 458.5 315.5 c 128,-1,21
 446 228 446 228 418 151.5 c 128,-1,22
 390 75 390 75 343.5 12 c 128,-1,23
 297 -51 297 -51 239 -85 c 1,0,1
EndSplineSet
EndChar

StartChar: asterisk
Encoding: 42 42 9
Width: 468
Flags: W
LayerCount: 2
Fore
SplineSet
333 893 m 1,0,1
 328 873 328 873 308.5 846.5 c 128,-1,2
 289 820 289 820 283 806 c 1,3,4
 300 796 300 796 333.5 798.5 c 128,-1,5
 367 801 367 801 383 793 c 1,6,7
 380 779 380 779 371 773.5 c 128,-1,8
 362 768 362 768 352.5 769 c 128,-1,9
 343 770 343 770 329.5 772.5 c 128,-1,10
 316 775 316 775 308 775 c 1,11,12
 313 762 313 762 325.5 751.5 c 128,-1,13
 338 741 338 741 350 735.5 c 128,-1,14
 362 730 362 730 374 719.5 c 128,-1,15
 386 709 386 709 389 694 c 1,16,17
 370 690 370 690 351.5 698.5 c 128,-1,18
 333 707 333 707 320 719.5 c 128,-1,19
 307 732 307 732 288.5 745.5 c 128,-1,20
 270 759 270 759 252 762 c 1,21,22
 239 744 239 744 242 703 c 128,-1,23
 245 662 245 662 250 630 c 128,-1,24
 255 598 255 598 240 570 c 1,25,26
 226 568 226 568 221 586.5 c 128,-1,27
 216 605 216 605 218 628 c 128,-1,28
 220 651 220 651 218.5 671.5 c 128,-1,29
 217 692 217 692 209 694 c 0,30,31
 197 697 197 697 186.5 680 c 128,-1,32
 176 663 176 663 169 641.5 c 128,-1,33
 162 620 162 620 148 604.5 c 128,-1,34
 134 589 134 589 116 595 c 1,35,36
 127 631 127 631 161.5 684 c 128,-1,37
 196 737 196 737 203 750 c 1,38,39
 186 756 186 756 161.5 750.5 c 128,-1,40
 137 745 137 745 120.5 741 c 128,-1,41
 104 737 104 737 79 750 c 1,42,43
 78 772 78 772 98.5 779 c 128,-1,44
 119 786 119 786 144 783.5 c 128,-1,45
 169 781 169 781 190 787 c 1,46,47
 190 797 190 797 182.5 802.5 c 128,-1,48
 175 808 175 808 167 810.5 c 128,-1,49
 159 813 159 813 152.5 819.5 c 128,-1,50
 146 826 146 826 147 837 c 1,51,52
 152 841 152 841 166.5 846 c 128,-1,53
 181 851 181 851 189.5 858 c 128,-1,54
 198 865 198 865 197 880 c 1,55,-1
 228 880 l 1,56,57
 235 867 235 867 236 843 c 128,-1,58
 237 819 237 819 240 812 c 1,59,60
 252 817 252 817 263.5 833.5 c 128,-1,61
 275 850 275 850 281.5 865 c 128,-1,62
 288 880 288 880 301.5 889 c 128,-1,63
 315 898 315 898 333 893 c 1,0,1
EndSplineSet
EndChar

StartChar: plus
Encoding: 43 43 10
Width: 772
Flags: W
LayerCount: 2
Fore
SplineSet
701 454 m 1,0,1
 706 431 706 431 700.5 418 c 128,-1,2
 695 405 695 405 681 401 c 128,-1,3
 667 397 667 397 648.5 396.5 c 128,-1,4
 630 396 630 396 611 398 c 128,-1,5
 592 400 592 400 575 398 c 1,6,7
 534 380 534 380 449 372 c 1,8,9
 459 304 459 304 458 225.5 c 128,-1,10
 457 147 457 147 438 84 c 1,11,12
 416 79 416 79 402.5 85 c 128,-1,13
 389 91 389 91 385.5 104.5 c 128,-1,14
 382 118 382 118 381 136.5 c 128,-1,15
 380 155 380 155 382 174 c 128,-1,16
 384 193 384 193 382 211 c 1,17,18
 362 257 362 257 354 365 c 1,19,20
 204 356 204 356 138 327 c 1,21,22
 121 332 121 332 98 348.5 c 128,-1,23
 75 365 75 365 68 369 c 1,24,25
 64 384 64 384 69 392.5 c 128,-1,26
 74 401 74 401 81.5 404.5 c 128,-1,27
 89 408 89 408 94 416.5 c 128,-1,28
 99 425 99 425 96 440 c 1,29,30
 180 434 180 434 348 456 c 1,31,32
 339 585 339 585 311 647 c 1,33,34
 316 664 316 664 333 687 c 128,-1,35
 350 710 350 710 354 718 c 1,36,37
 368 721 368 721 377 716 c 128,-1,38
 386 711 386 711 389 703.5 c 128,-1,39
 392 696 392 696 401 691 c 128,-1,40
 410 686 410 686 424 690 c 1,41,42
 419 609 419 609 437 467 c 1,43,44
 601 484 601 484 701 454 c 1,0,1
EndSplineSet
EndChar

StartChar: comma
Encoding: 44 44 11
Width: 360
Flags: W
LayerCount: 2
Fore
SplineSet
258 92 m 1,0,1
 275 23 275 23 237 -15 c 1,2,3
 216 -49 216 -49 188 -77 c 128,-1,4
 160 -105 160 -105 135.5 -120.5 c 128,-1,5
 111 -136 111 -136 89 -146 c 128,-1,6
 67 -156 67 -156 54 -159 c 2,7,-1
 41 -163 l 1,8,9
 80 -138 80 -138 110 -101 c 128,-1,10
 140 -64 140 -64 152.5 -40 c 128,-1,11
 165 -16 165 -16 173 7 c 1,12,13
 144 38 144 38 146 92 c 1,14,15
 163 114 163 114 197.5 112.5 c 128,-1,16
 232 111 232 111 258 92 c 1,0,1
EndSplineSet
EndChar

StartChar: hyphen
Encoding: 45 45 12
Width: 840
Flags: W
LayerCount: 2
Fore
SplineSet
76 384 m 1,0,1
 153 379 153 379 256.5 389 c 128,-1,2
 360 399 360 399 440 411.5 c 128,-1,3
 520 424 520 424 616.5 424 c 128,-1,4
 713 424 713 424 788 401 c 1,5,6
 794 374 794 374 787 358.5 c 128,-1,7
 780 343 780 343 764 338.5 c 128,-1,8
 748 334 748 334 726.5 333 c 128,-1,9
 705 332 705 332 682 334.5 c 128,-1,10
 659 337 659 337 639 334 c 1,11,12
 599 317 599 317 529 308 c 128,-1,13
 459 299 459 299 393.5 297.5 c 128,-1,14
 328 296 328 296 252 284.5 c 128,-1,15
 176 273 176 273 126 251 c 1,16,17
 106 257 106 257 79 277 c 128,-1,18
 52 297 52 297 43 301 c 1,19,20
 39 318 39 318 44.5 328.5 c 128,-1,21
 50 339 50 339 59 342.5 c 128,-1,22
 68 346 68 346 74 356.5 c 128,-1,23
 80 367 80 367 76 384 c 1,0,1
EndSplineSet
EndChar

StartChar: period
Encoding: 46 46 13
Width: 290
Flags: W
LayerCount: 2
Fore
SplineSet
189 71 m 1,0,1
 205 37 205 37 203 9 c 128,-1,2
 201 -19 201 -19 179 -44 c 1,3,4
 95 -35 95 -35 83 52 c 1,5,6
 93 75 93 75 128 80 c 128,-1,7
 163 85 163 85 189 71 c 1,0,1
EndSplineSet
EndChar

StartChar: slash
Encoding: 47 47 14
Width: 544
Flags: W
LayerCount: 2
Fore
SplineSet
492 944 m 1,0,1
 469 843 469 843 416.5 709 c 128,-1,2
 364 575 364 575 312.5 464 c 128,-1,3
 261 353 261 353 208 219 c 128,-1,4
 155 85 155 85 132 -16 c 1,5,6
 95 -28 95 -28 81 -28 c 128,-1,7
 67 -28 67 -28 29 -16 c 1,8,9
 57 104 57 104 110 243.5 c 128,-1,10
 163 383 163 383 212.5 489 c 128,-1,11
 262 595 262 595 313 725.5 c 128,-1,12
 364 856 364 856 389 961 c 1,13,14
 411 957 411 957 428.5 960.5 c 128,-1,15
 446 964 446 964 458 969.5 c 128,-1,16
 470 975 470 975 478.5 970 c 128,-1,17
 487 965 487 965 492 944 c 1,0,1
EndSplineSet
EndChar

StartChar: zero
Encoding: 48 48 15
Width: 1228
Flags: W
LayerCount: 2
Fore
SplineSet
1167 514 m 0,0,1
 1198 326 1198 326 867 115 c 0,2,3
 826 89 826 89 761.5 62.5 c 128,-1,4
 697 36 697 36 618.5 14.5 c 128,-1,5
 540 -7 540 -7 458 -19.5 c 128,-1,6
 376 -32 376 -32 298.5 -27 c 128,-1,7
 221 -22 221 -22 159.5 -0.5 c 128,-1,8
 98 21 98 21 60 71.5 c 128,-1,9
 22 122 22 122 20 199 c 0,10,11
 19 220 19 220 24 242 c 128,-1,12
 29 264 29 264 36.5 282.5 c 128,-1,13
 44 301 44 301 58.5 322.5 c 128,-1,14
 73 344 73 344 84.5 359 c 128,-1,15
 96 374 96 374 117 394.5 c 128,-1,16
 138 415 138 415 150.5 426.5 c 128,-1,17
 163 438 163 438 187.5 457 c 128,-1,18
 212 476 212 476 222 484 c 128,-1,19
 232 492 232 492 256.5 509.5 c 128,-1,20
 281 527 281 527 286 531 c 0,21,22
 290 535 290 535 301 542 c 1,23,24
 344 575 344 575 373.5 595 c 128,-1,25
 403 615 403 615 456 647 c 128,-1,26
 509 679 509 679 567 700 c 128,-1,27
 625 721 625 721 685 731 c 0,28,29
 727 737 727 737 803 724 c 128,-1,30
 879 711 879 711 957 684.5 c 128,-1,31
 1035 658 1035 658 1096.5 612 c 128,-1,32
 1158 566 1158 566 1167 514 c 0,0,1
136 132 m 1,33,34
 180 89 180 89 254.5 71 c 128,-1,35
 329 53 329 53 435 49 c 1,36,37
 454 126 454 126 518.5 305 c 128,-1,38
 583 484 583 484 602 598 c 1,39,40
 548 580 548 580 503.5 562 c 128,-1,41
 459 544 459 544 407.5 519 c 128,-1,42
 356 494 356 494 316.5 467 c 128,-1,43
 277 440 277 440 240 404 c 128,-1,44
 203 368 203 368 179.5 328 c 128,-1,45
 156 288 156 288 144 238 c 128,-1,46
 132 188 132 188 136 132 c 1,33,34
552 82 m 1,47,48
 975 155 975 155 1084 498 c 1,49,50
 1065 528 1065 528 1038 550 c 128,-1,51
 1011 572 1011 572 983 584 c 128,-1,52
 955 596 955 596 916.5 603 c 128,-1,53
 878 610 878 610 845.5 612 c 128,-1,54
 813 614 813 614 768 614 c 1,55,56
 732 555 732 555 720 533.5 c 128,-1,57
 708 512 708 512 678 457.5 c 128,-1,58
 648 403 648 403 634.5 370 c 128,-1,59
 621 337 621 337 601 286 c 128,-1,60
 581 235 581 235 570 185.5 c 128,-1,61
 559 136 559 136 552 82 c 1,47,48
EndSplineSet
EndChar

StartChar: one
Encoding: 49 49 16
Width: 736
Flags: W
LayerCount: 2
Fore
SplineSet
456 841 m 1,0,1
 464 778 464 778 465 682.5 c 128,-1,2
 466 587 466 587 463.5 502.5 c 128,-1,3
 461 418 461 418 458.5 304.5 c 128,-1,4
 456 191 456 191 456 117 c 1,5,6
 505 113 505 113 555.5 117.5 c 128,-1,7
 606 122 606 122 626.5 124.5 c 128,-1,8
 647 127 647 127 687 117 c 1,9,10
 696 101 696 101 698.5 87.5 c 128,-1,11
 701 74 701 74 696 60.5 c 128,-1,12
 691 47 691 47 687.5 39.5 c 128,-1,13
 684 32 684 32 672 15.5 c 128,-1,14
 660 -1 660 -1 656 -6 c 1,15,16
 604 10 604 10 547.5 11.5 c 128,-1,17
 491 13 491 13 443.5 4 c 128,-1,18
 396 -5 396 -5 343.5 -17.5 c 128,-1,19
 291 -30 291 -30 246 -42 c 128,-1,20
 201 -54 201 -54 150.5 -57.5 c 128,-1,21
 100 -61 100 -61 55 -52 c 1,22,23
 60 -15 60 -15 80 11 c 128,-1,24
 100 37 100 37 127 50 c 128,-1,25
 154 63 154 63 193.5 71.5 c 128,-1,26
 233 80 233 80 268.5 83 c 128,-1,27
 304 86 304 86 349.5 90.5 c 128,-1,28
 395 95 395 95 425 102 c 1,29,30
 386 225 386 225 374 335 c 128,-1,31
 362 445 362 445 364 626 c 1,32,33
 345 627 345 627 313 608.5 c 128,-1,34
 281 590 281 590 248.5 569 c 128,-1,35
 216 548 216 548 180 532 c 128,-1,36
 144 516 144 516 107 522.5 c 128,-1,37
 70 529 70 529 40 564 c 1,38,39
 64 595 64 595 104.5 621.5 c 128,-1,40
 145 648 145 648 185 667 c 128,-1,41
 225 686 225 686 264.5 708 c 128,-1,42
 304 730 304 730 335 763.5 c 128,-1,43
 366 797 366 797 379 841 c 1,44,-1
 456 841 l 1,0,1
EndSplineSet
EndChar

StartChar: two
Encoding: 50 50 17
Width: 836
Flags: W
LayerCount: 2
Fore
SplineSet
467 812 m 1,0,1
 490 752 490 752 492.5 689.5 c 128,-1,2
 495 627 495 627 481.5 574.5 c 128,-1,3
 468 522 468 522 443.5 463.5 c 128,-1,4
 419 405 419 405 393.5 358.5 c 128,-1,5
 368 312 368 312 340.5 255.5 c 128,-1,6
 313 199 313 199 299 157 c 1,7,8
 330 149 330 149 373.5 149 c 128,-1,9
 417 149 417 149 462 155.5 c 128,-1,10
 507 162 507 162 556 165 c 128,-1,11
 605 168 605 168 647 167.5 c 128,-1,12
 689 167 689 167 726.5 152 c 128,-1,13
 764 137 764 137 786 107 c 1,14,15
 569 86 569 86 407 44.5 c 128,-1,16
 245 3 245 3 131 -78 c 1,17,18
 97 -44 97 -44 91 -11.5 c 128,-1,19
 85 21 85 21 103.5 49.5 c 128,-1,20
 122 78 122 78 146.5 102 c 128,-1,21
 171 126 171 126 202.5 155.5 c 128,-1,22
 234 185 234 185 249 208 c 0,23,24
 307 298 307 298 340.5 415.5 c 128,-1,25
 374 533 374 533 400 694 c 1,26,27
 371 707 371 707 343 708.5 c 128,-1,28
 315 710 315 710 291 700.5 c 128,-1,29
 267 691 267 691 245 676.5 c 128,-1,30
 223 662 223 662 205 641.5 c 128,-1,31
 187 621 187 621 173 601 c 128,-1,32
 159 581 159 581 148 560 c 1,33,34
 115 557 115 557 102 559 c 128,-1,35
 89 561 89 561 66.5 568 c 128,-1,36
 44 575 44 575 31 577 c 1,37,38
 33 637 33 637 60 684.5 c 128,-1,39
 87 732 87 732 130.5 760 c 128,-1,40
 174 788 174 788 229.5 805.5 c 128,-1,41
 285 823 285 823 345.5 822.5 c 128,-1,42
 406 822 406 822 467 812 c 1,0,1
EndSplineSet
EndChar

StartChar: three
Encoding: 51 51 18
Width: 996
Flags: W
LayerCount: 2
Fore
SplineSet
636 796 m 1,0,1
 641 756 641 756 633.5 726 c 128,-1,2
 626 696 626 696 609 676 c 128,-1,3
 592 656 592 656 573.5 641 c 128,-1,4
 555 626 555 626 532.5 607 c 128,-1,5
 510 588 510 588 497 570 c 1,6,7
 525 554 525 554 564 535.5 c 128,-1,8
 603 517 603 517 637.5 502 c 128,-1,9
 672 487 672 487 712 468 c 128,-1,10
 752 449 752 449 784 429.5 c 128,-1,11
 816 410 816 410 847 385.5 c 128,-1,12
 878 361 878 361 899 330.5 c 128,-1,13
 920 300 920 300 933 264.5 c 128,-1,14
 946 229 946 229 945.5 183 c 128,-1,15
 945 137 945 137 931 84 c 1,16,17
 866 33 866 33 757 7.5 c 128,-1,18
 648 -18 648 -18 533.5 -16 c 128,-1,19
 419 -14 419 -14 306.5 7.5 c 128,-1,20
 194 29 194 29 115 67 c 1,21,22
 150 80 150 80 211.5 80.5 c 128,-1,23
 273 81 273 81 338 74 c 128,-1,24
 403 67 403 67 478.5 63.5 c 128,-1,25
 554 60 554 60 619.5 63 c 128,-1,26
 685 66 685 66 746 88.5 c 128,-1,27
 807 111 807 111 844 154 c 1,28,29
 840 183 840 183 862 188 c 1,30,31
 846 247 846 247 806.5 289.5 c 128,-1,32
 767 332 767 332 716.5 355 c 128,-1,33
 666 378 666 378 602 398 c 128,-1,34
 538 418 538 418 479.5 431 c 128,-1,35
 421 444 421 444 358.5 466.5 c 128,-1,36
 296 489 296 489 254 518 c 1,37,38
 258 558 258 558 283.5 585 c 128,-1,39
 309 612 309 612 339 623.5 c 128,-1,40
 369 635 369 635 406 653.5 c 128,-1,41
 443 672 443 672 462 692 c 1,42,43
 432 708 432 708 393.5 710 c 128,-1,44
 355 712 355 712 319 702.5 c 128,-1,45
 283 693 283 693 243 682.5 c 128,-1,46
 203 672 203 672 169.5 665 c 128,-1,47
 136 658 136 658 102.5 663.5 c 128,-1,48
 69 669 69 669 46 692 c 1,49,50
 41 739 41 739 86 771 c 128,-1,51
 131 803 131 803 203.5 816 c 128,-1,52
 276 829 276 829 358.5 831 c 128,-1,53
 441 833 441 833 516 823 c 128,-1,54
 591 813 591 813 636 796 c 1,0,1
EndSplineSet
EndChar

StartChar: four
Encoding: 52 52 19
Width: 756
Flags: W
LayerCount: 2
Fore
SplineSet
340 856 m 1,0,1
 352 822 352 822 356 785.5 c 128,-1,2
 360 749 360 749 358 718 c 128,-1,3
 356 687 356 687 345.5 648.5 c 128,-1,4
 335 610 335 610 325.5 583.5 c 128,-1,5
 316 557 316 557 296 517.5 c 128,-1,6
 276 478 276 478 264.5 456.5 c 128,-1,7
 253 435 253 435 230 396 c 0,8,9
 224 385 224 385 221 380 c 1,10,11
 345 345 345 345 563 350 c 1,12,13
 577 402 577 402 574 448.5 c 128,-1,14
 571 495 571 495 565.5 542.5 c 128,-1,15
 560 590 560 590 554.5 629 c 128,-1,16
 549 668 549 668 557.5 705 c 128,-1,17
 566 742 566 742 593 767 c 1,18,19
 629 719 629 719 643 637 c 128,-1,20
 657 555 657 555 655.5 464.5 c 128,-1,21
 654 374 654 374 651 282.5 c 128,-1,22
 648 191 648 191 658 104 c 128,-1,23
 668 17 668 17 697 -36 c 1,24,25
 652 -47 652 -47 625.5 -36 c 128,-1,26
 599 -25 599 -25 590 0 c 128,-1,27
 581 25 581 25 578.5 61 c 128,-1,28
 576 97 576 97 578.5 132.5 c 128,-1,29
 581 168 581 168 577.5 204 c 128,-1,30
 574 240 574 240 563 261 c 1,31,32
 555 261 555 261 539 262 c 0,33,34
 475 264 475 264 440 264.5 c 128,-1,35
 405 265 405 265 343 263 c 128,-1,36
 281 261 281 261 240.5 255 c 128,-1,37
 200 249 200 249 153 235.5 c 128,-1,38
 106 222 106 222 72 202 c 1,39,40
 67 208 67 208 61.5 223.5 c 128,-1,41
 56 239 56 239 48.5 249 c 128,-1,42
 41 259 41 259 28 261 c 1,43,44
 32 267 32 267 42 279 c 0,45,46
 78 323 78 323 96.5 346.5 c 128,-1,47
 115 370 115 370 146.5 414.5 c 128,-1,48
 178 459 178 459 193 490 c 128,-1,49
 208 521 208 521 226.5 567 c 128,-1,50
 245 613 245 613 249.5 652.5 c 128,-1,51
 254 692 254 692 252 741.5 c 128,-1,52
 250 791 250 791 236 841 c 1,53,54
 258 838 258 838 285.5 850 c 128,-1,55
 313 862 313 862 340 856 c 1,0,1
EndSplineSet
EndChar

StartChar: five
Encoding: 53 53 20
Width: 864
Flags: W
LayerCount: 2
Fore
SplineSet
823 866 m 1,0,1
 756 843 756 843 658.5 821.5 c 128,-1,2
 561 800 561 800 481.5 786.5 c 128,-1,3
 402 773 402 773 311 748 c 128,-1,4
 220 723 220 723 156 692 c 1,5,6
 176 584 176 584 171 518 c 1,7,8
 218 559 218 559 290 576 c 128,-1,9
 362 593 362 593 431 584.5 c 128,-1,10
 500 576 500 576 557.5 539.5 c 128,-1,11
 615 503 615 503 635 445 c 1,12,13
 638 358 638 358 616.5 275.5 c 128,-1,14
 595 193 595 193 553 130 c 128,-1,15
 511 67 511 67 452.5 25.5 c 128,-1,16
 394 -16 394 -16 322.5 -20.5 c 128,-1,17
 251 -25 251 -25 171 10 c 1,18,19
 171 24 171 24 164.5 40.5 c 128,-1,20
 158 57 158 57 152.5 67 c 128,-1,21
 147 77 147 77 146 90.5 c 128,-1,22
 145 104 145 104 156 112 c 1,23,24
 177 112 177 112 192 101 c 128,-1,25
 207 90 207 90 214 75.5 c 128,-1,26
 221 61 221 61 232 46 c 128,-1,27
 243 31 243 31 258 25 c 1,28,29
 370 11 370 11 462 115 c 0,30,31
 539 202 539 202 557 315 c 1,32,33
 574 432 574 432 509 487 c 0,34,35
 479 513 479 513 432 518 c 0,36,37
 391 523 391 523 355.5 511 c 128,-1,38
 320 499 320 499 291 475.5 c 128,-1,39
 262 452 262 452 237.5 426.5 c 128,-1,40
 213 401 213 401 183.5 373 c 128,-1,41
 154 345 154 345 127 329 c 1,42,43
 90 343 90 343 76.5 374 c 128,-1,44
 63 405 63 405 66 445.5 c 128,-1,45
 69 486 69 486 74.5 528.5 c 128,-1,46
 80 571 80 571 73.5 616 c 128,-1,47
 67 661 67 661 40 692 c 1,48,49
 72 740 72 740 141.5 778 c 128,-1,50
 211 816 211 816 296.5 837 c 128,-1,51
 382 858 382 858 477 869 c 128,-1,52
 572 880 572 880 661.5 879 c 128,-1,53
 751 878 751 878 823 866 c 1,0,1
EndSplineSet
EndChar

StartChar: six
Encoding: 54 54 21
Width: 880
Flags: W
LayerCount: 2
Fore
SplineSet
812 446 m 1,0,1
 877 250 877 250 753 111 c 0,2,3
 658 5 658 5 491 -30 c 0,4,5
 327 -64 327 -64 197 -9 c 0,6,7
 69 45 69 45 41 167 c 0,8,9
 26 229 26 229 42.5 341 c 128,-1,10
 59 453 59 453 92.5 561.5 c 128,-1,11
 126 670 126 670 175 756.5 c 128,-1,12
 224 843 224 843 270 856 c 0,13,14
 280 859 280 859 303 856.5 c 128,-1,15
 326 854 326 854 336 856 c 1,16,17
 328 800 328 800 302 734 c 128,-1,18
 276 668 276 668 247 609.5 c 128,-1,19
 218 551 218 551 190.5 490.5 c 128,-1,20
 163 430 163 430 148 367 c 128,-1,21
 133 304 133 304 139 249 c 0,22,23
 143 211 143 211 157 178.5 c 128,-1,24
 171 146 171 146 198.5 116.5 c 128,-1,25
 226 87 226 87 273.5 69.5 c 128,-1,26
 321 52 321 52 385 52 c 1,27,28
 385 114 385 114 403.5 186.5 c 128,-1,29
 422 259 422 259 458 327 c 128,-1,30
 494 395 494 395 546 439.5 c 128,-1,31
 598 484 598 484 665 490 c 128,-1,32
 732 496 732 496 812 446 c 1,0,1
484 68 m 1,33,34
 552 69 552 69 607 94.5 c 128,-1,35
 662 120 662 120 695.5 164 c 128,-1,36
 729 208 729 208 740 268 c 128,-1,37
 751 328 751 328 730 397 c 1,38,39
 655 406 655 406 598 362 c 128,-1,40
 541 318 541 318 512.5 241 c 128,-1,41
 484 164 484 164 484 68 c 1,33,34
EndSplineSet
EndChar

StartChar: seven
Encoding: 55 55 22
Width: 780
Flags: W
LayerCount: 2
Fore
SplineSet
683 827 m 1,0,1
 683 793 683 793 668.5 758 c 128,-1,2
 654 723 654 723 630.5 691 c 128,-1,3
 607 659 607 659 582 628 c 128,-1,4
 557 597 557 597 532.5 559.5 c 128,-1,5
 508 522 508 522 496 487 c 1,6,7
 509 472 509 472 541 469 c 128,-1,8
 573 466 573 466 605.5 470 c 128,-1,9
 638 474 638 474 670.5 471.5 c 128,-1,10
 703 469 703 469 716 453 c 1,11,12
 697 426 697 426 652.5 411.5 c 128,-1,13
 608 397 608 397 564.5 393.5 c 128,-1,14
 521 390 521 390 476 376 c 128,-1,15
 431 362 431 362 411 335 c 1,16,17
 410 330 410 330 409 321 c 0,18,19
 402 281 402 281 399 260.5 c 128,-1,20
 396 240 396 240 392 205 c 128,-1,21
 388 170 388 170 388.5 149.5 c 128,-1,22
 389 129 389 129 392 101 c 128,-1,23
 395 73 395 73 403.5 54 c 128,-1,24
 412 35 412 35 426.5 14.5 c 128,-1,25
 441 -6 441 -6 462 -22 c 1,26,27
 451 -44 451 -44 434 -49 c 128,-1,28
 417 -54 417 -54 397 -44.5 c 128,-1,29
 377 -35 377 -35 359.5 -22 c 128,-1,30
 342 -9 342 -9 322 7.5 c 128,-1,31
 302 24 302 24 292 29 c 1,32,33
 288 90 288 90 295 163 c 128,-1,34
 302 236 302 236 308 266.5 c 128,-1,35
 314 297 314 297 326 352 c 1,36,37
 305 348 305 348 272.5 336 c 128,-1,38
 240 324 240 324 209 318 c 128,-1,39
 178 312 178 312 140 318 c 1,40,41
 144 335 144 335 138 345.5 c 128,-1,42
 132 356 132 356 122.5 360 c 128,-1,43
 113 364 113 364 107.5 374.5 c 128,-1,44
 102 385 102 385 106 403 c 1,45,46
 262 420 262 420 359.5 491.5 c 128,-1,47
 457 563 457 563 496 708 c 1,48,49
 474 706 474 706 433.5 698.5 c 128,-1,50
 393 691 393 691 357 685 c 128,-1,51
 321 679 321 679 276.5 673.5 c 128,-1,52
 232 668 232 668 195.5 669.5 c 128,-1,53
 159 671 159 671 125.5 678.5 c 128,-1,54
 92 686 92 686 69.5 706.5 c 128,-1,55
 47 727 47 727 38 759 c 1,56,57
 67 807 67 807 102.5 814 c 128,-1,58
 138 821 138 821 191 793 c 1,59,60
 257 778 257 778 310.5 785 c 128,-1,61
 364 792 364 792 417 806.5 c 128,-1,62
 470 821 470 821 512.5 835.5 c 128,-1,63
 555 850 555 850 600 849.5 c 128,-1,64
 645 849 645 849 683 827 c 1,0,1
EndSplineSet
EndChar

StartChar: eight
Encoding: 56 56 23
Width: 952
Flags: W
LayerCount: 2
Fore
SplineSet
642 617 m 1,0,1
 858 624 858 624 897 497 c 0,2,3
 927 396 927 396 839 249 c 1,4,5
 759 118 759 118 635 32 c 0,6,7
 493 -67 493 -67 379 -40 c 0,8,9
 320 -26 320 -26 285.5 21 c 128,-1,10
 251 68 251 68 246 129.5 c 128,-1,11
 241 191 241 191 258 259.5 c 128,-1,12
 275 328 275 328 313 387 c 1,13,14
 69 383 69 383 34 486 c 1,15,16
 44 609 44 609 172 720 c 0,17,18
 284 816 284 816 415 846 c 0,19,20
 552 877 552 877 614 808 c 1,21,22
 668 746 668 746 642 617 c 1,0,1
149 502 m 1,23,24
 194 487 194 487 245 486.5 c 128,-1,25
 296 486 296 486 335.5 493 c 128,-1,26
 375 500 375 500 426 518.5 c 128,-1,27
 477 537 477 537 504.5 549.5 c 128,-1,28
 532 562 532 562 576 584 c 1,29,30
 552 591 552 591 546.5 606.5 c 128,-1,31
 541 622 541 622 548.5 641 c 128,-1,32
 556 660 556 660 560 683.5 c 128,-1,33
 564 707 564 707 560 732 c 1,34,35
 510 778 510 778 447 770 c 128,-1,36
 384 762 384 762 324.5 722 c 128,-1,37
 265 682 265 682 217 621.5 c 128,-1,38
 169 561 169 561 149 502 c 1,23,24
346 92 m 1,39,40
 442 59 442 59 522.5 79 c 128,-1,41
 603 99 603 99 665 159.5 c 128,-1,42
 727 220 727 220 767 300.5 c 128,-1,43
 807 381 807 381 822 469 c 1,44,45
 811 487 811 487 793.5 501 c 128,-1,46
 776 515 776 515 751.5 525 c 128,-1,47
 727 535 727 535 708 540.5 c 128,-1,48
 689 546 689 546 657 554.5 c 128,-1,49
 625 563 625 563 609 568 c 1,50,51
 601 526 601 526 580.5 491 c 128,-1,52
 560 456 560 456 534 431 c 128,-1,53
 508 406 508 406 478.5 382 c 128,-1,54
 449 358 449 358 422.5 331.5 c 128,-1,55
 396 305 396 305 376 273 c 128,-1,56
 356 241 356 241 347.5 195 c 128,-1,57
 339 149 339 149 346 92 c 1,39,40
EndSplineSet
EndChar

StartChar: nine
Encoding: 57 57 24
Width: 972
Flags: W
LayerCount: 2
Fore
SplineSet
843 501 m 1,0,1
 807 349 807 349 835.5 215 c 128,-1,2
 864 81 864 81 939 2 c 1,3,4
 908 -15 908 -15 879.5 -16 c 128,-1,5
 851 -17 851 -17 829.5 -3.5 c 128,-1,6
 808 10 808 10 789.5 32 c 128,-1,7
 771 54 771 54 757.5 86 c 128,-1,8
 744 118 744 118 733.5 152.5 c 128,-1,9
 723 187 723 187 716 226.5 c 128,-1,10
 709 266 709 266 705 301 c 128,-1,11
 701 336 701 336 698 372 c 1,12,13
 509 317 509 317 451 305 c 0,14,15
 150 241 150 241 52 383 c 0,16,17
 45 393 45 393 39 404 c 1,18,19
 74 470 74 470 125.5 531 c 128,-1,20
 177 592 177 592 245.5 645 c 128,-1,21
 314 698 314 698 391.5 728 c 128,-1,22
 469 758 469 758 555.5 761.5 c 128,-1,23
 642 765 642 765 731 726 c 1,24,25
 756 562 756 562 843 501 c 1,0,1
682 468 m 1,26,27
 688 492 688 492 676.5 503 c 128,-1,28
 665 514 665 514 648.5 515 c 128,-1,29
 632 516 632 516 617 524 c 128,-1,30
 602 532 602 532 602 549 c 1,31,32
 604 560 604 560 620 583 c 128,-1,33
 636 606 636 606 634 629 c 1,34,35
 536 669 536 669 441.5 642 c 128,-1,36
 347 615 347 615 273.5 549 c 128,-1,37
 200 483 200 483 168 404 c 1,38,39
 298 375 298 375 448 394 c 128,-1,40
 598 413 598 413 682 468 c 1,26,27
EndSplineSet
EndChar

StartChar: colon
Encoding: 58 58 25
Width: 404
Flags: W
LayerCount: 2
Fore
SplineSet
297 69 m 1,0,1
 289 64 289 64 274 55 c 128,-1,2
 259 46 259 46 248 37.5 c 128,-1,3
 237 29 237 29 230 19 c 1,4,5
 202 19 202 19 178 28 c 128,-1,6
 154 37 154 37 142 46 c 128,-1,7
 130 55 130 55 108.5 75.5 c 128,-1,8
 87 96 87 96 79 103 c 1,9,10
 86 175 86 175 146 208 c 0,11,12
 201 238 201 238 249 211 c 0,13,14
 310 176 310 176 298 76 c 0,15,16
 297 72 297 72 297 69 c 1,0,1
230 454 m 1,17,18
 178 464 178 464 144 506 c 128,-1,19
 110 548 110 548 112 588 c 1,20,21
 119 678 119 678 181 692 c 0,22,23
 231 703 231 703 278 662 c 0,24,25
 330 617 330 617 319 559 c 0,26,27
 308 499 308 499 230 454 c 1,17,18
EndSplineSet
EndChar

StartChar: semicolon
Encoding: 59 59 26
Width: 380
Flags: W
LayerCount: 2
Fore
SplineSet
212 516 m 1,0,1
 167 525 167 525 137 561.5 c 128,-1,2
 107 598 107 598 109 633 c 0,3,4
 115 714 115 714 172 725 c 0,5,6
 218 733 218 733 259 694 c 0,7,8
 305 650 305 650 287 597 c 1,9,10
 273 551 273 551 212 516 c 1,0,1
298 291 m 1,11,12
 313 242 313 242 307.5 202.5 c 128,-1,13
 302 163 302 163 272 132 c 1,14,15
 244 81 244 81 210.5 46 c 128,-1,16
 177 11 177 11 150 -2 c 128,-1,17
 123 -15 123 -15 100 -20.5 c 128,-1,18
 77 -26 77 -26 64 -24 c 2,19,-1
 52 -22 l 1,20,21
 86 2 86 2 109 23.5 c 128,-1,22
 132 45 132 45 143.5 65.5 c 128,-1,23
 155 86 155 86 160.5 98.5 c 128,-1,24
 166 111 166 111 170.5 132.5 c 128,-1,25
 175 154 175 154 177 162 c 1,26,27
 134 205 134 205 134 285 c 1,28,29
 157 318 157 318 207.5 317.5 c 128,-1,30
 258 317 258 317 298 291 c 1,11,12
EndSplineSet
EndChar

StartChar: equal
Encoding: 61 61 27
Width: 880
Flags: W
LayerCount: 2
Fore
SplineSet
94 568 m 1,0,1
 167 563 167 563 266 572.5 c 128,-1,2
 365 582 365 582 441.5 594 c 128,-1,3
 518 606 518 606 610 605.5 c 128,-1,4
 702 605 702 605 774 583 c 1,5,6
 780 558 780 558 773.5 543 c 128,-1,7
 767 528 767 528 751.5 524 c 128,-1,8
 736 520 736 520 715.5 519 c 128,-1,9
 695 518 695 518 673 520 c 128,-1,10
 651 522 651 522 632 520 c 1,11,12
 594 503 594 503 526.5 495 c 128,-1,13
 459 487 459 487 397 485 c 128,-1,14
 335 483 335 483 262 472.5 c 128,-1,15
 189 462 189 462 141 441 c 1,16,17
 122 446 122 446 96 465 c 128,-1,18
 70 484 70 484 62 488 c 1,19,20
 58 505 58 505 63.5 514.5 c 128,-1,21
 69 524 69 524 77.5 528 c 128,-1,22
 86 532 86 532 91.5 541.5 c 128,-1,23
 97 551 97 551 94 568 c 1,0,1
126 188 m 1,24,25
 200 183 200 183 299 193 c 128,-1,26
 398 203 398 203 474.5 215 c 128,-1,27
 551 227 551 227 643 226.5 c 128,-1,28
 735 226 735 226 807 204 c 1,29,30
 813 178 813 178 806.5 163.5 c 128,-1,31
 800 149 800 149 784.5 145 c 128,-1,32
 769 141 769 141 748.5 139.5 c 128,-1,33
 728 138 728 138 706 140.5 c 128,-1,34
 684 143 684 143 665 141 c 1,35,36
 627 124 627 124 559.5 115.5 c 128,-1,37
 492 107 492 107 430 105.5 c 128,-1,38
 368 104 368 104 295 93 c 128,-1,39
 222 82 222 82 174 61 c 1,40,41
 155 67 155 67 129 86 c 128,-1,42
 103 105 103 105 95 109 c 1,43,44
 91 125 91 125 96.5 135 c 128,-1,45
 102 145 102 145 110.5 148.5 c 128,-1,46
 119 152 119 152 124.5 162 c 128,-1,47
 130 172 130 172 126 188 c 1,24,25
EndSplineSet
EndChar

StartChar: question
Encoding: 63 63 28
Width: 828
Flags: W
LayerCount: 2
Fore
SplineSet
514 -3 m 1,0,1
 513 -5 513 -5 506 -13.5 c 128,-1,2
 499 -22 499 -22 497 -24 c 128,-1,3
 495 -26 495 -26 488 -33.5 c 128,-1,4
 481 -41 481 -41 478 -43.5 c 128,-1,5
 475 -46 475 -46 467.5 -51.5 c 128,-1,6
 460 -57 460 -57 455 -58.5 c 128,-1,7
 450 -60 450 -60 442 -63.5 c 128,-1,8
 434 -67 434 -67 426 -67.5 c 128,-1,9
 418 -68 418 -68 408 -68 c 128,-1,10
 398 -68 398 -68 387 -67 c 1,11,12
 377 -49 377 -49 367.5 -5.5 c 128,-1,13
 358 38 358 38 356 44 c 1,14,15
 363 46 363 46 378.5 50.5 c 128,-1,16
 394 55 394 55 401 57 c 128,-1,17
 408 59 408 59 421 62 c 128,-1,18
 434 65 434 65 440.5 65.5 c 128,-1,19
 447 66 447 66 457.5 65.5 c 128,-1,20
 468 65 468 65 473.5 62 c 128,-1,21
 479 59 479 59 486.5 54.5 c 128,-1,22
 494 50 494 50 498.5 42 c 128,-1,23
 503 34 503 34 507 22.5 c 128,-1,24
 511 11 511 11 514 -3 c 1,0,1
736 884 m 1,25,26
 768 814 768 814 768.5 748.5 c 128,-1,27
 769 683 769 683 746.5 633 c 128,-1,28
 724 583 724 583 679 528.5 c 128,-1,29
 634 474 634 474 589 433.5 c 128,-1,30
 544 393 544 393 484.5 336 c 128,-1,31
 425 279 425 279 387 234 c 0,32,33
 373 217 373 217 359 189.5 c 128,-1,34
 345 162 345 162 337 143.5 c 128,-1,35
 329 125 329 125 309.5 109.5 c 128,-1,36
 290 94 290 94 261 92 c 1,37,38
 248 131 248 131 256.5 165.5 c 128,-1,39
 265 200 265 200 284.5 222.5 c 128,-1,40
 304 245 304 245 332.5 270 c 128,-1,41
 361 295 361 295 387 315 c 128,-1,42
 413 335 413 335 436 364.5 c 128,-1,43
 459 394 459 394 467 425 c 1,44,45
 486 439 486 439 504.5 453.5 c 128,-1,46
 523 468 523 468 545.5 488 c 128,-1,47
 568 508 568 508 586 527.5 c 128,-1,48
 604 547 604 547 623 571.5 c 128,-1,49
 642 596 642 596 653 619 c 128,-1,50
 664 642 664 642 673.5 668.5 c 128,-1,51
 683 695 683 695 681 720 c 128,-1,52
 679 745 679 745 673 773 c 1,53,54
 658 819 658 819 610.5 839.5 c 128,-1,55
 563 860 563 860 503 855 c 128,-1,56
 443 850 443 850 375.5 829 c 128,-1,57
 308 808 308 808 252 776.5 c 128,-1,58
 196 745 196 745 158.5 705.5 c 128,-1,59
 121 666 121 666 118 631 c 1,60,61
 1 691 1 691 86 783 c 0,62,63
 148 850 148 850 269 898 c 0,64,65
 299 909 299 909 324 916 c 0,66,67
 389 935 389 935 468 932 c 128,-1,68
 547 929 547 929 612.5 916.5 c 128,-1,69
 678 904 678 904 736 884 c 1,25,26
EndSplineSet
EndChar

StartChar: A
Encoding: 65 65 29
Width: 721
Flags: W
LayerCount: 2
Fore
SplineSet
622 275 m 1,0,1
 613 253 613 253 616 216.5 c 128,-1,2
 619 180 619 180 626.5 148 c 128,-1,3
 634 116 634 116 635 80.5 c 128,-1,4
 636 45 636 45 622 26 c 1,5,6
 594 28 594 28 581 51 c 128,-1,7
 568 74 568 74 567 102 c 128,-1,8
 566 130 566 130 561 162 c 128,-1,9
 556 194 556 194 543 210 c 1,10,11
 507 217 507 217 454 209 c 128,-1,12
 401 201 401 201 355 187 c 128,-1,13
 309 173 309 173 258 163 c 128,-1,14
 207 153 207 153 175 157 c 1,15,16
 161 139 161 139 155.5 112.5 c 128,-1,17
 150 86 150 86 149.5 64 c 128,-1,18
 149 42 149 42 144.5 22.5 c 128,-1,19
 140 3 140 3 122 -7 c 128,-1,20
 104 -17 104 -17 70 -14 c 1,21,22
 68 64 68 64 88 151 c 128,-1,23
 108 238 108 238 138 316 c 128,-1,24
 168 394 168 394 197.5 472 c 128,-1,25
 227 550 227 550 247.5 636.5 c 128,-1,26
 268 723 268 723 267 801 c 1,27,28
 275 811 275 811 300 821 c 128,-1,29
 325 831 325 831 333 840 c 1,30,31
 354 823 354 823 373 800.5 c 128,-1,32
 392 778 392 778 407 759 c 128,-1,33
 422 740 422 740 438.5 708.5 c 128,-1,34
 455 677 455 677 465 659 c 128,-1,35
 475 641 475 641 489.5 601.5 c 128,-1,36
 504 562 504 562 510 546.5 c 128,-1,37
 516 531 516 531 530 484.5 c 128,-1,38
 544 438 544 438 547.5 426 c 128,-1,39
 551 414 551 414 565.5 362 c 128,-1,40
 580 310 580 310 582 302 c 0,41,42
 584 292 584 292 603 289.5 c 128,-1,43
 622 287 622 287 622 275 c 1,0,1
201 249 m 1,44,45
 236 251 236 251 342 264.5 c 128,-1,46
 448 278 448 278 517 275 c 1,47,48
 511 296 511 296 497.5 346 c 128,-1,49
 484 396 484 396 476.5 421 c 128,-1,50
 469 446 469 446 454.5 487.5 c 128,-1,51
 440 529 440 529 426 554.5 c 128,-1,52
 412 580 412 580 391 608.5 c 128,-1,53
 370 637 370 637 346 656 c 1,54,55
 331 619 331 619 316 580 c 128,-1,56
 301 541 301 541 284.5 493.5 c 128,-1,57
 268 446 268 446 258 417 c 128,-1,58
 248 388 248 388 228 329 c 128,-1,59
 208 270 208 270 201 249 c 1,44,45
EndSplineSet
EndChar

StartChar: B
Encoding: 66 66 30
Width: 944
Flags: W
LayerCount: 2
Fore
SplineSet
873 503 m 1,0,1
 895 422 895 422 870.5 339.5 c 128,-1,2
 846 257 846 257 789.5 192 c 128,-1,3
 733 127 733 127 653.5 76.5 c 128,-1,4
 574 26 574 26 490.5 1.5 c 128,-1,5
 407 -23 407 -23 324 -18 c 128,-1,6
 241 -13 241 -13 181 28 c 1,7,8
 172 73 172 73 171.5 142.5 c 128,-1,9
 171 212 171 212 170.5 259.5 c 128,-1,10
 170 307 170 307 150 360 c 128,-1,11
 130 413 130 413 86 449 c 1,12,13
 120 477 120 477 130.5 525 c 128,-1,14
 141 573 141 573 131.5 619.5 c 128,-1,15
 122 666 122 666 105.5 704.5 c 128,-1,16
 89 743 89 743 72 761 c 1,17,18
 83 799 83 799 117 827 c 128,-1,19
 151 855 151 855 195.5 866.5 c 128,-1,20
 240 878 240 878 291 880.5 c 128,-1,21
 342 883 342 883 389.5 870.5 c 128,-1,22
 437 858 437 858 475 837.5 c 128,-1,23
 513 817 513 817 533 782.5 c 128,-1,24
 553 748 553 748 547 707 c 0,25,26
 544 681 544 681 528 663 c 128,-1,27
 512 645 512 645 493.5 635 c 128,-1,28
 475 625 475 625 451 608 c 128,-1,29
 427 591 427 591 412 571 c 1,30,31
 460 559 460 559 532 558 c 128,-1,32
 604 557 604 557 659.5 559 c 128,-1,33
 715 561 715 561 775.5 548.5 c 128,-1,34
 836 536 836 536 873 503 c 1,0,1
208 788 m 1,35,-1
 208 557 l 1,36,37
 258 576 258 576 291.5 591 c 128,-1,38
 325 606 325 606 364.5 629 c 128,-1,39
 404 652 404 652 432.5 681.5 c 128,-1,40
 461 711 461 711 480 747 c 1,41,42
 444 772 444 772 400.5 782.5 c 128,-1,43
 357 793 357 793 311 792.5 c 128,-1,44
 265 792 265 792 208 788 c 1,35,-1
276 28 m 1,45,46
 729 79 729 79 819 449 c 1,47,48
 779 474 779 474 727.5 485.5 c 128,-1,49
 676 497 676 497 631 498 c 128,-1,50
 586 499 586 499 522.5 489.5 c 128,-1,51
 459 480 459 480 419.5 470.5 c 128,-1,52
 380 461 380 461 314 444.5 c 128,-1,53
 248 428 248 428 222 421 c 1,54,55
 219 352 219 352 227 287.5 c 128,-1,56
 235 223 235 223 252.5 144 c 128,-1,57
 270 65 270 65 276 28 c 1,45,46
EndSplineSet
EndChar

StartChar: C
Encoding: 67 67 31
Width: 904
Flags: W
LayerCount: 2
Fore
SplineSet
718 549 m 1,0,1
 678 542 678 542 655.5 556.5 c 128,-1,2
 633 571 633 571 625 599 c 128,-1,3
 617 627 617 627 613 657 c 128,-1,4
 609 687 609 687 600 717 c 128,-1,5
 591 747 591 747 572 760 c 1,6,7
 488 774 488 774 412 755.5 c 128,-1,8
 336 737 336 737 282 692.5 c 128,-1,9
 228 648 228 648 190 587 c 128,-1,10
 152 526 152 526 138 452.5 c 128,-1,11
 124 379 124 379 135 306 c 0,12,13
 145 234 145 234 186 182.5 c 128,-1,14
 227 131 227 131 287 105.5 c 128,-1,15
 347 80 347 80 420.5 71.5 c 128,-1,16
 494 63 494 63 570 72.5 c 128,-1,17
 646 82 646 82 718 104.5 c 128,-1,18
 790 127 790 127 848 160 c 1,19,20
 800 95 800 95 725.5 50.5 c 128,-1,21
 651 6 651 6 569.5 -13 c 128,-1,22
 488 -32 488 -32 402 -26 c 128,-1,23
 316 -20 316 -20 245 9.5 c 128,-1,24
 174 39 174 39 122 99 c 128,-1,25
 70 159 70 159 54 241 c 0,26,27
 13 446 13 446 128 627 c 0,28,29
 213 760 213 760 344 826 c 0,30,31
 477 893 477 893 580 850 c 0,32,33
 700 800 700 800 716 617 c 0,34,35
 719 585 719 585 718 549 c 1,0,1
EndSplineSet
EndChar

StartChar: D
Encoding: 68 68 32
Width: 888
Flags: W
LayerCount: 2
Fore
SplineSet
227 -5 m 1,0,1
 222 22 222 22 241 27.5 c 128,-1,2
 260 33 260 33 293.5 28.5 c 128,-1,3
 327 24 327 24 340 28 c 1,4,5
 353 37 353 37 494 123 c 0,6,7
 641 212 641 212 696 285 c 0,8,9
 766 378 766 378 740 492 c 0,10,11
 731 531 731 531 709.5 565.5 c 128,-1,12
 688 600 688 600 660.5 626 c 128,-1,13
 633 652 633 652 593 675.5 c 128,-1,14
 553 699 553 699 514 715.5 c 128,-1,15
 475 732 475 732 423 747.5 c 128,-1,16
 371 763 371 763 327.5 773.5 c 128,-1,17
 284 784 284 784 227 796 c 1,18,19
 243 736 243 736 257.5 601.5 c 128,-1,20
 272 467 272 467 291 335 c 128,-1,21
 310 203 310 203 340 124 c 1,22,23
 289 121 289 121 251.5 175 c 128,-1,24
 214 229 214 229 195.5 311 c 128,-1,25
 177 393 177 393 169 484 c 128,-1,26
 161 575 161 575 164.5 651.5 c 128,-1,27
 168 728 168 728 179 764 c 1,28,29
 175 780 175 780 150 781 c 128,-1,30
 125 782 125 782 99 782 c 128,-1,31
 73 782 73 782 67 796 c 1,32,33
 61 823 61 823 72.5 850.5 c 128,-1,34
 84 878 84 878 83 892 c 1,35,36
 601 887 601 887 820 524 c 1,37,38
 832 442 832 442 809 364.5 c 128,-1,39
 786 287 786 287 738.5 228 c 128,-1,40
 691 169 691 169 626 120 c 128,-1,41
 561 71 561 71 491 42 c 128,-1,42
 421 13 421 13 352 0 c 128,-1,43
 283 -13 283 -13 227 -5 c 1,0,1
EndSplineSet
EndChar

StartChar: E
Encoding: 69 69 33
Width: 824
Flags: W
LayerCount: 2
Fore
SplineSet
731 795 m 1,0,1
 723 768 723 768 696 757.5 c 128,-1,2
 669 747 669 747 633 749.5 c 128,-1,3
 597 752 597 752 553.5 753.5 c 128,-1,4
 510 755 510 755 469 751 c 1,5,6
 420 744 420 744 363 727 c 128,-1,7
 306 710 306 710 280 699.5 c 128,-1,8
 254 689 254 689 193 664 c 1,9,10
 195 625 195 625 192.5 586 c 128,-1,11
 190 547 190 547 186.5 524 c 128,-1,12
 183 501 183 501 184 472.5 c 128,-1,13
 185 444 185 444 193 416 c 1,14,15
 253 414 253 414 392 434.5 c 128,-1,16
 531 455 531 455 600 446 c 1,17,18
 570 412 570 412 516 390 c 128,-1,19
 462 368 462 368 411.5 359.5 c 128,-1,20
 361 351 361 351 290.5 339 c 128,-1,21
 220 327 220 327 178 315 c 1,22,23
 184 304 184 304 187.5 282 c 128,-1,24
 191 260 191 260 192 233.5 c 128,-1,25
 193 207 193 207 193 175 c 128,-1,26
 193 143 193 143 193 111 c 1,27,28
 316 110 316 110 464 128.5 c 128,-1,29
 612 147 612 147 702 184 c 1,30,31
 709 164 709 164 706 148 c 128,-1,32
 703 132 703 132 698 120 c 128,-1,33
 693 108 693 108 680.5 98.5 c 128,-1,34
 668 89 668 89 655 82.5 c 128,-1,35
 642 76 642 76 623.5 71 c 128,-1,36
 605 66 605 66 588 62.5 c 128,-1,37
 571 59 571 59 550 56 c 128,-1,38
 529 53 529 53 511.5 50.5 c 128,-1,39
 494 48 494 48 474 45 c 128,-1,40
 454 42 454 42 440 38 c 1,41,42
 415 33 415 33 378.5 22 c 128,-1,43
 342 11 342 11 312 2 c 128,-1,44
 282 -7 282 -7 246 -16 c 128,-1,45
 210 -25 210 -25 181 -29.5 c 128,-1,46
 152 -34 152 -34 122.5 -33 c 128,-1,47
 93 -32 93 -32 71 -24 c 1,48,49
 71 79 71 79 70.5 181 c 128,-1,50
 70 283 70 283 69.5 368.5 c 128,-1,51
 69 454 69 454 62.5 549 c 128,-1,52
 56 644 56 644 42 732 c 1,53,54
 125 770 125 770 245 795.5 c 128,-1,55
 365 821 365 821 494.5 824 c 128,-1,56
 624 827 624 827 731 795 c 1,0,1
EndSplineSet
EndChar

StartChar: F
Encoding: 70 70 34
Width: 779
Flags: W
LayerCount: 2
Fore
SplineSet
715 746 m 1,0,1
 621 762 621 762 546.5 768 c 128,-1,2
 472 774 472 774 393 769 c 128,-1,3
 314 764 314 764 234 746 c 1,4,5
 249 720 249 720 249 693 c 128,-1,6
 249 666 249 666 242 629.5 c 128,-1,7
 235 593 235 593 234 569 c 1,8,9
 263 545 263 545 318 538.5 c 128,-1,10
 373 532 373 532 426 538 c 128,-1,11
 479 544 479 544 534 545 c 128,-1,12
 589 546 589 546 619 537 c 1,13,14
 599 499 599 499 547.5 480 c 128,-1,15
 496 461 496 461 442.5 458 c 128,-1,16
 389 455 389 455 323 448 c 128,-1,17
 257 441 257 441 218 425 c 1,18,19
 212 367 212 367 216.5 300 c 128,-1,20
 221 233 221 233 228.5 184 c 128,-1,21
 236 135 236 135 239 72 c 128,-1,22
 242 9 242 9 234 -40 c 1,23,24
 196 -36 196 -36 173 -14 c 128,-1,25
 150 8 150 8 143 42 c 128,-1,26
 136 76 136 76 134 118.5 c 128,-1,27
 132 161 132 161 136.5 206 c 128,-1,28
 141 251 141 251 141.5 295.5 c 128,-1,29
 142 340 142 340 138 377 c 0,30,31
 137 385 137 385 131.5 421.5 c 128,-1,32
 126 458 126 458 123 480 c 128,-1,33
 120 502 120 502 117 541.5 c 128,-1,34
 114 581 114 581 115 609 c 128,-1,35
 116 637 116 637 121.5 670.5 c 128,-1,36
 127 704 127 704 138 730 c 1,37,38
 129 737 129 737 113 743 c 128,-1,39
 97 749 97 749 84.5 752.5 c 128,-1,40
 72 756 72 756 58.5 765 c 128,-1,41
 45 774 45 774 42 787.5 c 128,-1,42
 39 801 39 801 42 826 c 1,43,44
 84 828 84 828 259.5 846 c 128,-1,45
 435 864 435 864 507 858 c 0,46,47
 514 857 514 857 534.5 856 c 128,-1,48
 555 855 555 855 568 854 c 128,-1,49
 581 853 581 853 602.5 850 c 128,-1,50
 624 847 624 847 637.5 842.5 c 128,-1,51
 651 838 651 838 667.5 829.5 c 128,-1,52
 684 821 684 821 693.5 810 c 128,-1,53
 703 799 703 799 709.5 782.5 c 128,-1,54
 716 766 716 766 715 746 c 1,0,1
EndSplineSet
EndChar

StartChar: G
Encoding: 71 71 35
Width: 1072
Flags: W
LayerCount: 2
Fore
SplineSet
988 506 m 1,0,1
 998 418 998 418 1001.5 255 c 128,-1,2
 1005 92 1005 92 1021 8 c 1,3,4
 998 13 998 13 979 23.5 c 128,-1,5
 960 34 960 34 947 46.5 c 128,-1,6
 934 59 934 59 924.5 78.5 c 128,-1,7
 915 98 915 98 909 115 c 128,-1,8
 903 132 903 132 900 158 c 128,-1,9
 897 184 897 184 896 204 c 128,-1,10
 895 224 895 224 896 254 c 128,-1,11
 897 284 897 284 898 304 c 128,-1,12
 899 324 899 324 901.5 356.5 c 128,-1,13
 904 389 904 389 905 406 c 1,14,15
 867 406 867 406 821 388.5 c 128,-1,16
 775 371 775 371 736.5 347.5 c 128,-1,17
 698 324 698 324 655.5 303.5 c 128,-1,18
 613 283 613 283 579 274 c 128,-1,19
 545 265 545 265 512 280.5 c 128,-1,20
 479 296 479 296 456 340 c 1,21,22
 509 347 509 347 567 369.5 c 128,-1,23
 625 392 625 392 673.5 417.5 c 128,-1,24
 722 443 722 443 772 466.5 c 128,-1,25
 822 490 822 490 878 502 c 128,-1,26
 934 514 934 514 988 506 c 1,0,1
655 755 m 1,27,28
 654 721 654 721 629 704.5 c 128,-1,29
 604 688 604 688 568.5 688 c 128,-1,30
 533 688 533 688 491 688 c 1,31,32
 479 689 479 689 473 689 c 1,33,34
 432 665 432 665 401 645 c 128,-1,35
 370 625 370 625 328.5 594.5 c 128,-1,36
 287 564 287 564 256.5 537 c 128,-1,37
 226 510 226 510 194.5 473.5 c 128,-1,38
 163 437 163 437 144 402 c 128,-1,39
 125 367 125 367 114.5 325 c 128,-1,40
 104 283 104 283 107 240 c 0,41,42
 112 182 112 182 143 140.5 c 128,-1,43
 174 99 174 99 220.5 77.5 c 128,-1,44
 267 56 267 56 329 46 c 128,-1,45
 391 36 391 36 454 37.5 c 128,-1,46
 517 39 517 39 584.5 47.5 c 128,-1,47
 652 56 652 56 705 67 c 128,-1,48
 758 78 758 78 805 91 c 1,49,50
 774 42 774 42 709.5 9.5 c 128,-1,51
 645 -23 645 -23 567.5 -36 c 128,-1,52
 490 -49 490 -49 403.5 -45 c 128,-1,53
 317 -41 317 -41 241.5 -21 c 128,-1,54
 166 -1 166 -1 106.5 36.5 c 128,-1,55
 47 74 47 74 24 124 c 1,56,57
 18 162 18 162 23.5 208.5 c 128,-1,58
 29 255 29 255 33 278.5 c 128,-1,59
 37 302 37 302 24 340 c 1,60,61
 45 380 45 380 61.5 409.5 c 128,-1,62
 78 439 78 439 108 486.5 c 128,-1,63
 138 534 138 534 164 569 c 128,-1,64
 190 604 190 604 227.5 646.5 c 128,-1,65
 265 689 265 689 299.5 716 c 128,-1,66
 334 743 334 743 378 766 c 128,-1,67
 422 789 422 789 464.5 795.5 c 128,-1,68
 507 802 507 802 556.5 793 c 128,-1,69
 606 784 606 784 655 755 c 1,27,28
EndSplineSet
EndChar

StartChar: H
Encoding: 72 72 36
Width: 872
Flags: W
LayerCount: 2
Fore
SplineSet
140 835 m 1,0,1
 140 835 140 835 140 572 c 1,2,3
 171 561 171 561 226.5 561.5 c 128,-1,4
 282 562 282 562 334.5 564 c 128,-1,5
 387 566 387 566 440 562 c 128,-1,6
 493 558 493 558 533.5 532.5 c 128,-1,7
 574 507 574 507 591 459 c 1,8,9
 561 453 561 453 509.5 453 c 128,-1,10
 458 453 458 453 408.5 455 c 128,-1,11
 359 457 359 457 308 455.5 c 128,-1,12
 257 454 257 454 212 441 c 128,-1,13
 167 428 167 428 140 403 c 1,14,15
 143 359 143 359 156 289.5 c 128,-1,16
 169 220 169 220 187.5 130 c 128,-1,17
 206 40 206 40 215 -11 c 1,18,19
 164 7 164 7 127 51 c 128,-1,20
 90 95 90 95 70 151.5 c 128,-1,21
 50 208 50 208 40 284 c 128,-1,22
 30 360 30 360 29 430.5 c 128,-1,23
 28 501 28 501 34 584 c 128,-1,24
 40 667 40 667 47.5 728 c 128,-1,25
 55 789 55 789 65 854 c 1,26,27
 81 855 81 855 101.5 844 c 128,-1,28
 122 833 122 833 140 835 c 1,0,1
723 854 m 1,29,30
 723 843 723 843 728 764 c 128,-1,31
 733 685 733 685 734.5 660.5 c 128,-1,32
 736 636 736 636 741.5 558 c 128,-1,33
 747 480 747 480 749.5 445 c 128,-1,34
 752 410 752 410 757.5 338.5 c 128,-1,35
 763 267 763 267 767.5 227.5 c 128,-1,36
 772 188 772 188 778 128.5 c 128,-1,37
 784 69 784 69 790 30 c 128,-1,38
 796 -9 796 -9 803 -51 c 128,-1,39
 810 -93 810 -93 817 -124 c 1,40,41
 685 -117 685 -117 648 196 c 0,42,43
 633 319 633 319 624 441.5 c 128,-1,44
 615 564 615 564 615.5 684 c 128,-1,45
 616 804 616 804 629 873 c 1,46,47
 657 881 657 881 679.5 865.5 c 128,-1,48
 702 850 702 850 723 854 c 1,29,30
EndSplineSet
EndChar

StartChar: I
Encoding: 73 73 37
Width: 960
Flags: W
LayerCount: 2
Fore
SplineSet
728 736 m 1,0,1
 710 716 710 716 681.5 714.5 c 128,-1,2
 653 713 653 713 626.5 721.5 c 128,-1,3
 600 730 600 730 566 736 c 128,-1,4
 532 742 532 742 508 736 c 1,5,6
 486 642 486 642 492.5 533.5 c 128,-1,7
 499 425 499 425 521 329.5 c 128,-1,8
 543 234 543 234 576 159 c 1,9,10
 614 144 614 144 667.5 142.5 c 128,-1,11
 721 141 721 141 761 148 c 128,-1,12
 801 155 801 155 842.5 155 c 128,-1,13
 884 155 884 155 898 142 c 1,14,15
 879 110 879 110 846.5 91.5 c 128,-1,16
 814 73 814 73 771 68 c 128,-1,17
 728 63 728 63 686.5 62.5 c 128,-1,18
 645 62 645 62 593.5 62 c 128,-1,19
 542 62 542 62 508 58 c 1,20,21
 468 52 468 52 418.5 36 c 128,-1,22
 369 20 369 20 330 5.5 c 128,-1,23
 291 -9 291 -9 252 -20.5 c 128,-1,24
 213 -32 213 -32 178.5 -30.5 c 128,-1,25
 144 -29 144 -29 118 -10 c 1,26,27
 125 8 125 8 136 23.5 c 128,-1,28
 147 39 147 39 158 51 c 128,-1,29
 169 63 169 63 187 74.5 c 128,-1,30
 205 86 205 86 217.5 93.5 c 128,-1,31
 230 101 230 101 253.5 109 c 128,-1,32
 277 117 277 117 290 121.5 c 128,-1,33
 303 126 303 126 331.5 133 c 128,-1,34
 360 140 360 140 372 142.5 c 128,-1,35
 384 145 384 145 415.5 151 c 128,-1,36
 447 157 447 157 457 159 c 1,37,38
 430 232 430 232 415 342 c 128,-1,39
 400 452 400 452 388 557 c 128,-1,40
 376 662 376 662 355 719 c 1,41,42
 312 702 312 702 258 691 c 128,-1,43
 204 680 204 680 141.5 684 c 128,-1,44
 79 688 79 688 50 719 c 1,45,46
 92 765 92 765 190.5 793 c 128,-1,47
 289 821 289 821 393.5 824.5 c 128,-1,48
 498 828 498 828 594.5 805 c 128,-1,49
 691 782 691 782 728 736 c 1,0,1
EndSplineSet
EndChar

StartChar: J
Encoding: 74 74 38
Width: 1000
Flags: W
LayerCount: 2
Fore
SplineSet
708 936 m 1,0,1
 744 941 744 941 750 915 c 1,2,3
 782 872 782 872 815 800.5 c 128,-1,4
 848 729 848 729 877 642 c 128,-1,5
 906 555 906 555 921 460 c 128,-1,6
 936 365 936 365 935 278.5 c 128,-1,7
 934 192 934 192 903.5 118 c 128,-1,8
 873 44 873 44 814 4 c 0,9,10
 752 -39 752 -39 672.5 -54.5 c 128,-1,11
 593 -70 593 -70 514 -59.5 c 128,-1,12
 435 -49 435 -49 354.5 -18.5 c 128,-1,13
 274 12 274 12 209 56.5 c 128,-1,14
 144 101 144 101 96 159.5 c 128,-1,15
 48 218 48 218 30 279 c 1,16,17
 55 266 55 266 106.5 233.5 c 128,-1,18
 158 201 158 201 202 172.5 c 128,-1,19
 246 144 246 144 309 114.5 c 128,-1,20
 372 85 372 85 429 70 c 128,-1,21
 486 55 486 55 555 58 c 128,-1,22
 624 61 624 61 687 88 c 1,23,24
 740 120 740 120 768 166.5 c 128,-1,25
 796 213 796 213 800 264 c 128,-1,26
 804 315 804 315 795.5 375 c 128,-1,27
 787 435 787 435 768.5 493.5 c 128,-1,28
 750 552 750 552 732.5 615 c 128,-1,29
 715 678 715 678 701.5 733 c 128,-1,30
 688 788 688 788 688.5 842 c 128,-1,31
 689 896 689 896 708 936 c 1,0,1
EndSplineSet
EndChar

StartChar: K
Encoding: 75 75 39
Width: 940
Flags: W
LayerCount: 2
Fore
SplineSet
144 919 m 1,0,1
 164 871 164 871 170 814.5 c 128,-1,2
 176 758 176 758 173.5 712.5 c 128,-1,3
 171 667 171 667 175.5 601 c 128,-1,4
 180 535 180 535 197 474 c 1,5,6
 249 495 249 495 297 532.5 c 128,-1,7
 345 570 345 570 383 610 c 128,-1,8
 421 650 421 650 460 690 c 128,-1,9
 499 730 499 730 550.5 763 c 128,-1,10
 602 796 602 796 660 812 c 1,11,12
 650 756 650 756 622 710.5 c 128,-1,13
 594 665 594 665 558 635.5 c 128,-1,14
 522 606 522 606 477.5 576.5 c 128,-1,15
 433 547 433 547 392.5 522.5 c 128,-1,16
 352 498 352 498 313 462 c 128,-1,17
 274 426 274 426 251 385 c 1,18,19
 291 379 291 379 368 368 c 128,-1,20
 445 357 445 357 490 350 c 128,-1,21
 535 343 535 343 601.5 329 c 128,-1,22
 668 315 668 315 713 300 c 128,-1,23
 758 285 758 285 807 261 c 128,-1,24
 856 237 856 237 891 207 c 1,25,26
 851 191 851 191 786 195.5 c 128,-1,27
 721 200 721 200 655 217 c 128,-1,28
 589 234 589 234 511 249.5 c 128,-1,29
 433 265 433 265 366 271.5 c 128,-1,30
 299 278 299 278 233 261 c 1,31,32
 225 219 225 219 237 161 c 128,-1,33
 249 103 249 103 262 39 c 128,-1,34
 275 -25 275 -25 269 -77 c 1,35,36
 228 -79 228 -79 202 -61 c 128,-1,37
 176 -43 176 -43 165.5 -12.5 c 128,-1,38
 155 18 155 18 150.5 55.5 c 128,-1,39
 146 93 146 93 142.5 132 c 128,-1,40
 139 171 139 171 132 205 c 128,-1,41
 125 239 125 239 106 264 c 128,-1,42
 87 289 87 289 55 296 c 1,43,44
 87 355 87 355 92.5 432 c 128,-1,45
 98 509 98 509 87 571.5 c 128,-1,46
 76 634 76 634 59 728 c 128,-1,47
 42 822 42 822 37 883 c 1,48,49
 53 881 53 881 64 885.5 c 128,-1,50
 75 890 75 890 80 897.5 c 128,-1,51
 85 905 85 905 93.5 912 c 128,-1,52
 102 919 102 919 112.5 921.5 c 128,-1,53
 123 924 123 924 144 919 c 1,0,1
EndSplineSet
EndChar

StartChar: L
Encoding: 76 76 40
Width: 1020
Flags: W
LayerCount: 2
Fore
SplineSet
164 843 m 1,0,1
 189 765 189 765 197 668 c 128,-1,2
 205 571 205 571 200 485.5 c 128,-1,3
 195 400 195 400 192.5 299.5 c 128,-1,4
 190 199 190 199 195 114 c 1,5,6
 367 186 367 186 562.5 235.5 c 128,-1,7
 758 285 758 285 925 284 c 1,8,9
 846 241 846 241 729.5 197.5 c 128,-1,10
 613 154 613 154 517.5 124 c 128,-1,11
 422 94 422 94 314 46 c 128,-1,12
 206 -2 206 -2 133 -57 c 1,13,14
 116 -16 116 -16 112.5 61.5 c 128,-1,15
 109 139 109 139 113.5 231 c 128,-1,16
 118 323 118 323 122 418.5 c 128,-1,17
 126 514 126 514 118 612.5 c 128,-1,18
 110 711 110 711 87 781 c 0,19,20
 83 795 83 795 87 804 c 128,-1,21
 91 813 91 813 98 816 c 128,-1,22
 105 819 105 819 111.5 826 c 128,-1,23
 118 833 118 833 118 843 c 1,24,-1
 164 843 l 1,0,1
EndSplineSet
EndChar

StartChar: M
Encoding: 77 77 41
Width: 1060
Flags: W
LayerCount: 2
Fore
SplineSet
898 725 m 1,0,1
 930 660 930 660 942.5 574 c 128,-1,2
 955 488 955 488 954.5 406 c 128,-1,3
 954 324 954 324 955 243.5 c 128,-1,4
 956 163 956 163 973 86.5 c 128,-1,5
 990 10 990 10 1029 -43 c 1,6,7
 1017 -44 1017 -44 1009 -52 c 128,-1,8
 1001 -60 1001 -60 996.5 -68.5 c 128,-1,9
 992 -77 992 -77 981.5 -82.5 c 128,-1,10
 971 -88 971 -88 956 -86 c 1,11,12
 919 -38 919 -38 900.5 45 c 128,-1,13
 882 128 882 128 879.5 206 c 128,-1,14
 877 284 877 284 872 386 c 128,-1,15
 867 488 867 488 855 552 c 1,16,17
 805 520 805 520 758 473 c 128,-1,18
 711 426 711 426 673 378 c 128,-1,19
 635 330 635 330 595.5 282 c 128,-1,20
 556 234 556 234 507 189.5 c 128,-1,21
 458 145 458 145 405 117 c 1,22,23
 368 138 368 138 336 178 c 128,-1,24
 304 218 304 218 285 257 c 128,-1,25
 266 296 266 296 236 339 c 128,-1,26
 206 382 206 382 174 407 c 1,27,28
 162 352 162 352 167 308.5 c 128,-1,29
 172 265 172 265 182 222 c 128,-1,30
 192 179 192 179 202 144 c 128,-1,31
 212 109 212 109 209.5 71 c 128,-1,32
 207 33 207 33 188 1 c 1,33,34
 147 14 147 14 123.5 46.5 c 128,-1,35
 100 79 100 79 93.5 120 c 128,-1,36
 87 161 87 161 87 214.5 c 128,-1,37
 87 268 87 268 91 316.5 c 128,-1,38
 95 365 95 365 95 418.5 c 128,-1,39
 95 472 95 472 87 508 c 1,40,41
 88 529 88 529 79.5 544.5 c 128,-1,42
 71 560 71 560 60 568.5 c 128,-1,43
 49 577 49 577 39.5 591.5 c 128,-1,44
 30 606 30 606 29 624 c 1,45,46
 44 638 44 638 64.5 642 c 128,-1,47
 85 646 85 646 99 644 c 128,-1,48
 113 642 113 642 144 634.5 c 128,-1,49
 175 627 175 627 188 624 c 1,50,51
 232 400 232 400 420 262 c 1,52,53
 427 267 427 267 442 279 c 0,54,55
 506 329 506 329 539.5 356 c 128,-1,56
 573 383 573 383 619 422.5 c 128,-1,57
 665 462 665 462 695 494 c 0,58,59
 716 515 716 515 739 555 c 128,-1,60
 762 595 762 595 778.5 626.5 c 128,-1,61
 795 658 795 658 826.5 687 c 128,-1,62
 858 716 858 716 898 725 c 1,0,1
EndSplineSet
EndChar

StartChar: N
Encoding: 78 78 42
Width: 1072
Flags: W
LayerCount: 2
Fore
SplineSet
1033 776 m 1,0,1
 1003 732 1003 732 987.5 669.5 c 128,-1,2
 972 607 972 607 969 542.5 c 128,-1,3
 966 478 966 478 967 407 c 128,-1,4
 968 336 968 336 967.5 269 c 128,-1,5
 967 202 967 202 960.5 142 c 128,-1,6
 954 82 954 82 932 31 c 128,-1,7
 910 -20 910 -20 871 -51 c 1,8,9
 781 -2 781 -2 685.5 70.5 c 128,-1,10
 590 143 590 143 520 208 c 128,-1,11
 450 273 450 273 357 353.5 c 128,-1,12
 264 434 264 434 188 488 c 1,13,14
 157 444 157 444 143 381 c 128,-1,15
 129 318 129 318 131.5 248.5 c 128,-1,16
 134 179 134 179 141 120.5 c 128,-1,17
 148 62 148 62 158 -1.5 c 128,-1,18
 168 -65 168 -65 170 -87 c 1,19,20
 157 -84 157 -84 149 -88.5 c 128,-1,21
 141 -93 141 -93 139 -100.5 c 128,-1,22
 137 -108 137 -108 131 -115.5 c 128,-1,23
 125 -123 125 -123 116 -123 c 1,24,25
 73 -76 73 -76 51.5 42.5 c 128,-1,26
 30 161 30 161 32.5 289.5 c 128,-1,27
 35 418 35 418 57.5 536.5 c 128,-1,28
 80 655 80 655 116 704 c 1,29,30
 183 657 183 657 256 591.5 c 128,-1,31
 329 526 329 526 390.5 465 c 128,-1,32
 452 404 452 404 517.5 342.5 c 128,-1,33
 583 281 583 281 660 224.5 c 128,-1,34
 737 168 737 168 817 129 c 1,35,36
 840 168 840 168 850 224.5 c 128,-1,37
 860 281 860 281 860.5 337 c 128,-1,38
 861 393 861 393 860.5 453 c 128,-1,39
 860 513 860 513 865.5 565.5 c 128,-1,40
 871 618 871 618 886 662.5 c 128,-1,41
 901 707 901 707 938 736.5 c 128,-1,42
 975 766 975 766 1033 776 c 1,0,1
EndSplineSet
EndChar

StartChar: O
Encoding: 79 79 43
Width: 1016
Flags: W
LayerCount: 2
Fore
SplineSet
961 494 m 0,0,1
 974 426 974 426 956 347 c 128,-1,2
 938 268 938 268 898.5 199 c 128,-1,3
 859 130 859 130 805 74 c 128,-1,4
 751 18 751 18 694 -8 c 0,5,6
 618 -43 618 -43 507.5 -44 c 128,-1,7
 397 -45 397 -45 291.5 -10.5 c 128,-1,8
 186 24 186 24 130 86 c 0,9,10
 65 158 65 158 40.5 266.5 c 128,-1,11
 16 375 16 375 31.5 484.5 c 128,-1,12
 47 594 47 594 97.5 698.5 c 128,-1,13
 148 803 148 803 224 870 c 1,14,-1
 240 870 l 1,15,16
 275 879 275 879 273 843 c 0,17,18
 272 813 272 813 257 793 c 0,19,20
 256 792 256 792 255 791 c 1,21,22
 302 781 302 781 365 771.5 c 128,-1,23
 428 762 428 762 479.5 755.5 c 128,-1,24
 531 749 531 749 590 739 c 128,-1,25
 649 729 649 729 696 718 c 128,-1,26
 743 707 743 707 789.5 687.5 c 128,-1,27
 836 668 836 668 869 643 c 128,-1,28
 902 618 902 618 926.5 580 c 128,-1,29
 951 542 951 542 961 494 c 0,0,1
475 23 m 0,30,31
 533 22 533 22 596 45 c 128,-1,32
 659 68 659 68 714.5 110.5 c 128,-1,33
 770 153 770 153 812.5 208.5 c 128,-1,34
 855 264 855 264 874.5 335 c 128,-1,35
 894 406 894 406 882 478 c 0,36,37
 876 518 876 518 855 550.5 c 128,-1,38
 834 583 834 583 805.5 604 c 128,-1,39
 777 625 777 625 735 640.5 c 128,-1,40
 693 656 693 656 653.5 664 c 128,-1,41
 614 672 614 672 561 678 c 128,-1,42
 508 684 508 684 467.5 686 c 128,-1,43
 427 688 427 688 373 691 c 128,-1,44
 319 694 319 694 287 697 c 1,45,46
 272 707 272 707 268 720 c 128,-1,47
 264 733 264 733 266 742 c 128,-1,48
 268 751 268 751 259 756.5 c 128,-1,49
 250 762 250 762 224 760 c 1,50,51
 167 689 167 689 137.5 604.5 c 128,-1,52
 108 520 108 520 106.5 440 c 128,-1,53
 105 360 105 360 130 284.5 c 128,-1,54
 155 209 155 209 201 152 c 128,-1,55
 247 95 247 95 318 60 c 128,-1,56
 389 25 389 25 475 23 c 0,30,31
EndSplineSet
EndChar

StartChar: P
Encoding: 80 80 44
Width: 924
Flags: W
LayerCount: 2
Fore
SplineSet
855 779 m 1,0,1
 918 546 918 546 532 412 c 0,2,3
 459 387 459 387 298 346 c 1,4,5
 338 381 338 381 397.5 414 c 128,-1,6
 457 447 457 447 513.5 472.5 c 128,-1,7
 570 498 570 498 626 526.5 c 128,-1,8
 682 555 682 555 731 595.5 c 128,-1,9
 780 636 780 636 809 686 c 1,10,11
 774 734 774 734 702.5 759 c 128,-1,12
 631 784 631 784 548 786 c 128,-1,13
 465 788 465 788 384 778 c 128,-1,14
 303 768 303 768 236 748 c 1,15,16
 240 677 240 677 233 579.5 c 128,-1,17
 226 482 226 482 219 404 c 128,-1,18
 212 326 212 326 211.5 244.5 c 128,-1,19
 211 163 211 163 232 93.5 c 128,-1,20
 253 24 253 24 298 -26 c 1,21,22
 242 -27 242 -27 205.5 3 c 128,-1,23
 169 33 169 33 154 86 c 128,-1,24
 139 139 139 139 134.5 203 c 128,-1,25
 130 267 130 267 135 342.5 c 128,-1,26
 140 418 140 418 146.5 484 c 128,-1,27
 153 550 153 550 157.5 615.5 c 128,-1,28
 162 681 162 681 159 717 c 1,29,30
 147 738 147 738 104.5 757.5 c 128,-1,31
 62 777 62 777 50 794 c 1,32,33
 313 961 313 961 855 779 c 1,0,1
EndSplineSet
EndChar

StartChar: Q
Encoding: 81 81 45
Width: 1328
Flags: W
LayerCount: 2
Fore
SplineSet
995 241 m 1,0,1
 1023 222 1023 222 1072 199 c 128,-1,2
 1121 176 1121 176 1156.5 159.5 c 128,-1,3
 1192 143 1192 143 1227 112 c 128,-1,4
 1262 81 1262 81 1278 41 c 1,5,6
 1241 42 1241 42 1189.5 58.5 c 128,-1,7
 1138 75 1138 75 1094.5 94.5 c 128,-1,8
 1051 114 1051 114 995.5 129 c 128,-1,9
 940 144 940 144 895 141 c 0,10,11
 871 139 871 139 818.5 123 c 128,-1,12
 766 107 766 107 706 85 c 128,-1,13
 646 63 646 63 572.5 41 c 128,-1,14
 499 19 499 19 429 3 c 128,-1,15
 359 -13 359 -13 290.5 -13.5 c 128,-1,16
 222 -14 222 -14 169 2.5 c 128,-1,17
 116 19 116 19 78.5 66.5 c 128,-1,18
 41 114 41 114 31 191 c 0,19,20
 23 249 23 249 39 313 c 128,-1,21
 55 377 55 377 88.5 434.5 c 128,-1,22
 122 492 122 492 171 544 c 128,-1,23
 220 596 220 596 275 633.5 c 128,-1,24
 330 671 330 671 392.5 691 c 128,-1,25
 455 711 455 711 513 706 c 1,26,27
 505 641 505 641 496 590 c 1,28,29
 404 582 404 582 318 530.5 c 128,-1,30
 232 479 232 479 181 404.5 c 128,-1,31
 130 330 130 330 130 257 c 1,32,33
 131 195 131 195 165 152.5 c 128,-1,34
 199 110 199 110 254.5 92.5 c 128,-1,35
 310 75 310 75 378.5 71.5 c 128,-1,36
 447 68 447 68 517.5 80 c 128,-1,37
 588 92 588 92 652 112 c 128,-1,38
 716 132 716 132 762 158 c 1,39,40
 767 175 767 175 761 185 c 128,-1,41
 755 195 755 195 746 199 c 128,-1,42
 737 203 737 203 731 213.5 c 128,-1,43
 725 224 725 224 729 241 c 1,44,45
 793 235 793 235 845.5 247.5 c 128,-1,46
 898 260 898 260 935.5 285 c 128,-1,47
 973 310 973 310 1004 351 c 128,-1,48
 1035 392 1035 392 1055.5 437 c 128,-1,49
 1076 482 1076 482 1095 540 c 1,50,51
 1078 601 1078 601 1022.5 637.5 c 128,-1,52
 967 674 967 674 893.5 682.5 c 128,-1,53
 820 691 820 691 742.5 684 c 128,-1,54
 665 677 665 677 596 656 c 1,55,56
 614 713 614 713 668.5 743 c 128,-1,57
 723 773 723 773 792 773.5 c 128,-1,58
 861 774 861 774 932 760 c 128,-1,59
 1003 746 1003 746 1061 717.5 c 128,-1,60
 1119 689 1119 689 1145 656 c 1,61,62
 1175 563 1175 563 1158 480 c 128,-1,63
 1141 397 1141 397 1098 336.5 c 128,-1,64
 1055 276 1055 276 995 241 c 1,0,1
EndSplineSet
EndChar

StartChar: R
Encoding: 82 82 46
Width: 1072
Flags: W
LayerCount: 2
Fore
SplineSet
384 325 m 1,0,1
 426 286 426 286 500 257.5 c 128,-1,2
 574 229 574 229 652 211.5 c 128,-1,3
 730 194 730 194 806.5 176.5 c 128,-1,4
 883 159 883 159 946.5 131.5 c 128,-1,5
 1010 104 1010 104 1039 67 c 1,6,7
 990 44 990 44 928 43.5 c 128,-1,8
 866 43 866 43 806.5 58.5 c 128,-1,9
 747 74 747 74 675.5 97.5 c 128,-1,10
 604 121 604 121 540 144.5 c 128,-1,11
 476 168 476 168 401 185.5 c 128,-1,12
 326 203 326 203 263 205 c 1,13,14
 265 189 265 189 269.5 166 c 128,-1,15
 274 143 274 143 277.5 124.5 c 128,-1,16
 281 106 281 106 284.5 83.5 c 128,-1,17
 288 61 288 61 288 44.5 c 128,-1,18
 288 28 288 28 286 11.5 c 128,-1,19
 284 -5 284 -5 276.5 -14.5 c 128,-1,20
 269 -24 269 -24 256.5 -29.5 c 128,-1,21
 244 -35 244 -35 224 -32.5 c 128,-1,22
 204 -30 204 -30 177 -19 c 1,23,24
 183 18 183 18 184 57.5 c 128,-1,25
 185 97 185 97 175.5 136 c 128,-1,26
 166 175 166 175 149.5 207 c 128,-1,27
 133 239 133 239 104.5 261.5 c 128,-1,28
 76 284 76 284 39 291 c 1,29,30
 37 316 37 316 48 333.5 c 128,-1,31
 59 351 59 351 74 359 c 128,-1,32
 89 367 89 367 104.5 380.5 c 128,-1,33
 120 394 120 394 125 412 c 1,34,35
 130 454 130 454 125.5 491.5 c 128,-1,36
 121 529 121 529 120 561 c 128,-1,37
 119 593 119 593 123.5 616.5 c 128,-1,38
 128 640 128 640 149.5 654 c 128,-1,39
 171 668 171 668 211 670 c 1,40,41
 224 602 224 602 223 531.5 c 128,-1,42
 222 461 222 461 229 377 c 1,43,44
 361 384 361 384 448 442 c 128,-1,45
 535 500 535 500 591 601 c 1,46,47
 578 623 578 623 560.5 641 c 128,-1,48
 543 659 543 659 519.5 673 c 128,-1,49
 496 687 496 687 474 697 c 128,-1,50
 452 707 452 707 419.5 715 c 128,-1,51
 387 723 387 723 363 728 c 128,-1,52
 339 733 339 733 300 737.5 c 128,-1,53
 261 742 261 742 238 744.5 c 128,-1,54
 215 747 215 747 172 750.5 c 128,-1,55
 129 754 129 754 108 756 c 0,56,57
 99 757 99 757 95.5 760 c 128,-1,58
 92 763 92 763 93 768.5 c 128,-1,59
 94 774 94 774 96.5 779.5 c 128,-1,60
 99 785 99 785 102.5 793.5 c 128,-1,61
 106 802 106 802 108 808 c 1,62,63
 173 817 173 817 243 819 c 128,-1,64
 313 821 313 821 386.5 813 c 128,-1,65
 460 805 460 805 520 787 c 128,-1,66
 580 769 580 769 623 734.5 c 128,-1,67
 666 700 666 700 677 653 c 0,68,69
 704 533 704 533 560 429 c 0,70,71
 520 401 520 401 392 330 c 0,72,73
 388 328 388 328 384 325 c 1,0,1
EndSplineSet
EndChar

StartChar: S
Encoding: 83 83 47
Width: 1080
Flags: W
LayerCount: 2
Fore
SplineSet
638 501 m 1,0,1
 609 511 609 511 591.5 533 c 128,-1,2
 574 555 574 555 565 580 c 128,-1,3
 556 605 556 605 546.5 630 c 128,-1,4
 537 655 537 655 517 676.5 c 128,-1,5
 497 698 497 698 465 708 c 0,6,7
 366 738 366 738 277 685.5 c 128,-1,8
 188 633 188 633 155 535 c 1,9,10
 182 505 182 505 237.5 484 c 128,-1,11
 293 463 293 463 359.5 453.5 c 128,-1,12
 426 444 426 444 505 434.5 c 128,-1,13
 584 425 584 425 659 418 c 128,-1,14
 734 411 734 411 804 394.5 c 128,-1,15
 874 378 874 378 926 355 c 128,-1,16
 978 332 978 332 1008 290 c 128,-1,17
 1038 248 1038 248 1034 191 c 0,18,19
 1029 96 1029 96 901 34 c 0,20,21
 773 -29 773 -29 605 -25 c 0,22,23
 424 -21 424 -21 332 62 c 1,24,25
 244 143 244 143 276 277 c 1,26,27
 299 265 299 265 310.5 246.5 c 128,-1,28
 322 228 322 228 326 207.5 c 128,-1,29
 330 187 330 187 334.5 166 c 128,-1,30
 339 145 339 145 354 124 c 128,-1,31
 369 103 369 103 396 87 c 1,32,33
 455 56 455 56 541 52 c 128,-1,34
 627 48 627 48 707.5 67 c 128,-1,35
 788 86 788 86 855.5 124 c 128,-1,36
 923 162 923 162 948 208 c 1,37,38
 916 261 916 261 855 293.5 c 128,-1,39
 794 326 794 326 720.5 338 c 128,-1,40
 647 350 647 350 564.5 355 c 128,-1,41
 482 360 482 360 400 364.5 c 128,-1,42
 318 369 318 369 246.5 380 c 128,-1,43
 175 391 175 391 118.5 421 c 128,-1,44
 62 451 62 451 35 501 c 1,45,46
 48 559 48 559 83.5 616 c 128,-1,47
 119 673 119 673 169.5 719 c 128,-1,48
 220 765 220 765 289 791 c 128,-1,49
 358 817 358 817 431 811 c 0,50,51
 483 807 483 807 540 781 c 128,-1,52
 597 755 597 755 638.5 712.5 c 128,-1,53
 680 670 680 670 684.5 615.5 c 128,-1,54
 689 561 689 561 638 501 c 1,0,1
EndSplineSet
EndChar

StartChar: T
Encoding: 84 84 48
Width: 1068
Flags: W
LayerCount: 2
Fore
SplineSet
1028 764 m 1,0,1
 922 746 922 746 721 743.5 c 128,-1,2
 520 741 520 741 445 731 c 1,3,4
 448 704 448 704 458 682.5 c 128,-1,5
 468 661 468 661 486.5 634.5 c 128,-1,6
 505 608 505 608 511 597 c 1,7,8
 493 541 493 541 492.5 466 c 128,-1,9
 492 391 492 391 503.5 325 c 128,-1,10
 515 259 515 259 525 186 c 128,-1,11
 535 113 535 113 539 61.5 c 128,-1,12
 543 10 543 10 528 -36 c 1,13,14
 481 -26 481 -26 452.5 10.5 c 128,-1,15
 424 47 424 47 414.5 95 c 128,-1,16
 405 143 405 143 401 204 c 128,-1,17
 397 265 397 265 397.5 322 c 128,-1,18
 398 379 398 379 389 436.5 c 128,-1,19
 380 494 380 494 361 531 c 1,20,21
 364 542 364 542 373 570 c 128,-1,22
 382 598 382 598 384 609 c 128,-1,23
 386 620 386 620 387.5 640.5 c 128,-1,24
 389 661 389 661 382 678 c 128,-1,25
 375 695 375 695 361 714 c 1,26,27
 333 718 333 718 287.5 712.5 c 128,-1,28
 242 707 242 707 203 701 c 128,-1,29
 164 695 164 695 125.5 694 c 128,-1,30
 87 693 87 693 61 710 c 128,-1,31
 35 727 35 727 28 764 c 1,32,33
 218 824 218 824 525.5 822 c 128,-1,34
 833 820 833 820 1028 764 c 1,0,1
EndSplineSet
EndChar

StartChar: U
Encoding: 85 85 49
Width: 1044
Flags: W
LayerCount: 2
Fore
SplineSet
216 784 m 1,0,1
 232 727 232 727 231.5 668 c 128,-1,2
 231 609 231 609 219 560.5 c 128,-1,3
 207 512 207 512 191.5 456.5 c 128,-1,4
 176 401 176 401 161.5 350 c 128,-1,5
 147 299 147 299 141 235.5 c 128,-1,6
 135 172 135 172 143 107 c 1,7,8
 199 88 199 88 260.5 86 c 128,-1,9
 322 84 322 84 380.5 97 c 128,-1,10
 439 110 439 110 495.5 131.5 c 128,-1,11
 552 153 552 153 604.5 183.5 c 128,-1,12
 657 214 657 214 700.5 244.5 c 128,-1,13
 744 275 744 275 783 308 c 1,14,15
 786 356 786 356 776 420 c 128,-1,16
 766 484 766 484 756.5 535 c 128,-1,17
 747 586 747 586 744 638 c 128,-1,18
 741 690 741 690 759 732.5 c 128,-1,19
 777 775 777 775 820 802 c 1,20,21
 849 778 849 778 864 742 c 128,-1,22
 879 706 879 706 880 668.5 c 128,-1,23
 881 631 881 631 879 587 c 128,-1,24
 877 543 877 543 873 501.5 c 128,-1,25
 869 460 869 460 875 418 c 0,26,27
 882 360 882 360 902.5 289.5 c 128,-1,28
 923 219 923 219 942.5 167.5 c 128,-1,29
 962 116 962 116 975.5 58.5 c 128,-1,30
 989 1 989 1 985 -39 c 1,31,32
 954 -36 954 -36 930.5 -22.5 c 128,-1,33
 907 -9 907 -9 893 9 c 128,-1,34
 879 27 879 27 867.5 55 c 128,-1,35
 856 83 856 83 850 106 c 128,-1,36
 844 129 844 129 835 163 c 128,-1,37
 826 197 826 197 820 217 c 1,38,39
 783 205 783 205 741 184 c 128,-1,40
 699 163 699 163 662 140.5 c 128,-1,41
 625 118 625 118 583.5 92.5 c 128,-1,42
 542 67 542 67 504 45 c 128,-1,43
 466 23 466 23 423 4.5 c 128,-1,44
 380 -14 380 -14 339 -24.5 c 128,-1,45
 298 -35 298 -35 252 -34.5 c 128,-1,46
 206 -34 206 -34 161 -21 c 0,47,48
 106 -5 106 -5 75 36 c 128,-1,49
 44 77 44 77 38.5 135 c 128,-1,50
 33 193 33 193 40 259.5 c 128,-1,51
 47 326 47 326 64 402 c 128,-1,52
 81 478 81 478 98 546.5 c 128,-1,53
 115 615 115 615 128.5 685.5 c 128,-1,54
 142 756 142 756 143 802 c 1,55,56
 159 803 159 803 178.5 792.5 c 128,-1,57
 198 782 198 782 216 784 c 1,0,1
EndSplineSet
EndChar

StartChar: V
Encoding: 86 86 50
Width: 996
Flags: W
LayerCount: 2
Fore
SplineSet
935 793 m 1,0,1
 916 714 916 714 879 625.5 c 128,-1,2
 842 537 842 537 805 463 c 128,-1,3
 768 389 768 389 733 310 c 128,-1,4
 698 231 698 231 677 141.5 c 128,-1,5
 656 52 656 52 658 -38 c 1,6,7
 582 8 582 8 511 71.5 c 128,-1,8
 440 135 440 135 380 207 c 128,-1,9
 320 279 320 279 268 348 c 128,-1,10
 216 417 216 417 152.5 498.5 c 128,-1,11
 89 580 89 580 35 637 c 1,12,13
 41 658 41 658 69.5 681 c 128,-1,14
 98 704 98 704 104 724 c 1,15,16
 155 682 155 682 205 623 c 128,-1,17
 255 564 255 564 295.5 505 c 128,-1,18
 336 446 336 446 377 386.5 c 128,-1,19
 418 327 418 327 468.5 269 c 128,-1,20
 519 211 519 211 571 170 c 1,21,22
 604 235 604 235 642.5 331 c 128,-1,23
 681 427 681 427 709 501.5 c 128,-1,24
 737 576 737 576 779 662 c 128,-1,25
 821 748 821 748 866 811 c 1,26,27
 881 812 881 812 899.5 801.5 c 128,-1,28
 918 791 918 791 935 793 c 1,0,1
EndSplineSet
EndChar

StartChar: W
Encoding: 87 87 51
Width: 1459
Flags: W
LayerCount: 2
Fore
SplineSet
1414 752 m 1,0,1
 1412 718 1412 718 1395.5 694 c 128,-1,2
 1379 670 1379 670 1358.5 658 c 128,-1,3
 1338 646 1338 646 1310.5 627 c 128,-1,4
 1283 608 1283 608 1267 587 c 0,5,6
 1228 534 1228 534 1190.5 457 c 128,-1,7
 1153 380 1153 380 1124.5 309.5 c 128,-1,8
 1096 239 1096 239 1061.5 168 c 128,-1,9
 1027 97 1027 97 977 38 c 128,-1,10
 927 -21 927 -21 864 -56 c 1,11,12
 824 -27 824 -27 792.5 18.5 c 128,-1,13
 761 64 761 64 738.5 114.5 c 128,-1,14
 716 165 716 165 696 215.5 c 128,-1,15
 676 266 676 266 648.5 317.5 c 128,-1,16
 621 369 621 369 588 403 c 1,17,18
 565 380 565 380 555.5 334.5 c 128,-1,19
 546 289 546 289 545.5 239.5 c 128,-1,20
 545 190 545 190 543 141.5 c 128,-1,21
 541 93 541 93 526 54 c 128,-1,22
 511 15 511 15 478 -1 c 1,23,24
 452 -2 452 -2 431.5 6.5 c 128,-1,25
 411 15 411 15 399.5 25.5 c 128,-1,26
 388 36 388 36 377.5 58.5 c 128,-1,27
 367 81 367 81 363 95 c 128,-1,28
 359 109 359 109 352 138 c 0,29,30
 351 143 351 143 350 146 c 0,31,32
 335 178 335 178 309.5 214 c 128,-1,33
 284 250 284 250 256 280 c 128,-1,34
 228 310 228 310 196.5 344.5 c 128,-1,35
 165 379 165 379 137.5 410.5 c 128,-1,36
 110 442 110 442 87.5 479 c 128,-1,37
 65 516 65 516 52 551.5 c 128,-1,38
 39 587 39 587 39.5 629.5 c 128,-1,39
 40 672 40 672 56 715 c 1,40,41
 101 689 101 689 138 644.5 c 128,-1,42
 175 600 175 600 201 550 c 128,-1,43
 227 500 227 500 252 450 c 128,-1,44
 277 400 277 400 311.5 352 c 128,-1,45
 346 304 346 304 386 275 c 1,46,47
 413 299 413 299 430 343.5 c 128,-1,48
 447 388 447 388 455.5 434.5 c 128,-1,49
 464 481 464 481 475 526.5 c 128,-1,50
 486 572 486 572 509.5 608.5 c 128,-1,51
 533 645 533 645 570 660 c 1,52,53
 620 635 620 635 657 587.5 c 128,-1,54
 694 540 694 540 716.5 482 c 128,-1,55
 739 424 739 424 758 365.5 c 128,-1,56
 777 307 777 307 803.5 246 c 128,-1,57
 830 185 830 185 864 146 c 1,58,59
 924 206 924 206 983 293.5 c 128,-1,60
 1042 381 1042 381 1082.5 458 c 128,-1,61
 1123 535 1123 535 1179 629.5 c 128,-1,62
 1235 724 1235 724 1286 788 c 1,63,64
 1338 794 1338 794 1371 786.5 c 128,-1,65
 1404 779 1404 779 1414 752 c 1,0,1
EndSplineSet
EndChar

StartChar: X
Encoding: 88 88 52
Width: 896
Flags: W
LayerCount: 2
Fore
SplineSet
823 842 m 1,0,1
 785 778 785 778 679.5 634 c 128,-1,2
 574 490 574 490 528 400 c 1,3,4
 546 356 546 356 576 316.5 c 128,-1,5
 606 277 606 277 640.5 245.5 c 128,-1,6
 675 214 675 214 709.5 185 c 128,-1,7
 744 156 744 156 780.5 120.5 c 128,-1,8
 817 85 817 85 841 50 c 1,9,10
 838 34 838 34 829 19.5 c 128,-1,11
 820 5 820 5 812.5 -2.5 c 128,-1,12
 805 -10 805 -10 789 -23.5 c 128,-1,13
 773 -37 773 -37 767 -42 c 1,14,15
 727 -12 727 -12 686 33 c 128,-1,16
 645 78 645 78 616 118.5 c 128,-1,17
 587 159 587 159 547.5 208 c 128,-1,18
 508 257 508 257 473 289 c 1,19,20
 435 272 435 272 408 233 c 128,-1,21
 381 194 381 194 369 155 c 128,-1,22
 357 116 357 116 339.5 62 c 128,-1,23
 322 8 322 8 307 -24 c 1,24,25
 287 -27 287 -27 265 -12 c 128,-1,26
 243 3 243 3 215 -5 c 1,27,28
 211 50 211 50 222 96.5 c 128,-1,29
 233 143 233 143 253.5 178.5 c 128,-1,30
 274 214 274 214 296.5 243.5 c 128,-1,31
 319 273 319 273 343 310 c 128,-1,32
 367 347 367 347 381 382 c 1,33,34
 350 425 350 425 304.5 475 c 128,-1,35
 259 525 259 525 220.5 562.5 c 128,-1,36
 182 600 182 600 139 651 c 128,-1,37
 96 702 96 702 67 750 c 1,38,39
 105 772 105 772 138.5 773 c 128,-1,40
 172 774 172 774 199 756 c 128,-1,41
 226 738 226 738 250.5 710.5 c 128,-1,42
 275 683 275 683 298 647.5 c 128,-1,43
 321 612 321 612 341.5 579.5 c 128,-1,44
 362 547 362 547 387 517.5 c 128,-1,45
 412 488 412 488 436 474 c 1,46,47
 463 488 463 488 488 517.5 c 128,-1,48
 513 547 513 547 531 580.5 c 128,-1,49
 549 614 549 614 569 653 c 128,-1,50
 589 692 589 692 606 726 c 128,-1,51
 623 760 623 760 646 790.5 c 128,-1,52
 669 821 669 821 693 837.5 c 128,-1,53
 717 854 717 854 750.5 857.5 c 128,-1,54
 784 861 784 861 823 842 c 1,0,1
EndSplineSet
EndChar

StartChar: Y
Encoding: 89 89 53
Width: 774
Flags: W
LayerCount: 2
Fore
SplineSet
723 831 m 1,0,1
 718 759 718 759 689 676.5 c 128,-1,2
 660 594 660 594 622.5 520 c 128,-1,3
 585 446 585 446 548.5 369 c 128,-1,4
 512 292 512 292 490 204.5 c 128,-1,5
 468 117 468 117 472 34 c 1,6,7
 460 24 460 24 444.5 1.5 c 128,-1,8
 429 -21 429 -21 412 -36.5 c 128,-1,9
 395 -52 395 -52 369 -54 c 1,10,11
 349 -27 349 -27 346.5 9 c 128,-1,12
 344 45 344 45 354.5 80.5 c 128,-1,13
 365 116 365 116 383 159 c 128,-1,14
 401 202 401 202 419.5 240 c 128,-1,15
 438 278 438 278 453.5 322.5 c 128,-1,16
 469 367 469 367 472 403 c 1,17,18
 401 379 401 379 335.5 384.5 c 128,-1,19
 270 390 270 390 214 424 c 128,-1,20
 158 458 158 458 118 506.5 c 128,-1,21
 78 555 78 555 58 617.5 c 128,-1,22
 38 680 38 680 44 743 c 1,23,24
 55 742 55 742 64.5 742 c 128,-1,25
 74 742 74 742 80.5 745.5 c 128,-1,26
 87 749 87 749 89 757 c 1,27,28
 109 731 109 731 132.5 690.5 c 128,-1,29
 156 650 156 650 175 618 c 128,-1,30
 194 586 194 586 219 553 c 128,-1,31
 244 520 244 520 278 496.5 c 128,-1,32
 312 473 312 473 354 462 c 1,33,34
 408 465 408 465 448.5 486.5 c 128,-1,35
 489 508 489 508 512 540 c 128,-1,36
 535 572 535 572 556 614.5 c 128,-1,37
 577 657 577 657 591.5 696.5 c 128,-1,38
 606 736 606 736 629 777.5 c 128,-1,39
 652 819 652 819 679 846 c 1,40,41
 701 830 701 830 723 831 c 1,0,1
EndSplineSet
EndChar

StartChar: Z
Encoding: 90 90 54
Width: 1012
Flags: W
LayerCount: 2
Fore
SplineSet
788 832 m 1,0,1
 798 804 798 804 794 774.5 c 128,-1,2
 790 745 790 745 779.5 722.5 c 128,-1,3
 769 700 769 700 751.5 674.5 c 128,-1,4
 734 649 734 649 718 628.5 c 128,-1,5
 702 608 702 608 686 582 c 128,-1,6
 670 556 670 556 662 533 c 1,7,8
 673 513 673 513 696 509.5 c 128,-1,9
 719 506 719 506 747.5 513 c 128,-1,10
 776 520 776 520 805 527.5 c 128,-1,11
 834 535 834 535 864 534 c 128,-1,12
 894 533 894 533 914 517 c 1,13,14
 898 491 898 491 870 474 c 128,-1,15
 842 457 842 457 803.5 449 c 128,-1,16
 765 441 765 441 730.5 437.5 c 128,-1,17
 696 434 696 434 646.5 430.5 c 128,-1,18
 597 427 597 427 568 423 c 1,19,20
 387 219 387 219 284 92 c 1,21,22
 337 88 337 88 417.5 98 c 128,-1,23
 498 108 498 108 570.5 120 c 128,-1,24
 643 132 643 132 716 138.5 c 128,-1,25
 789 145 789 145 850 130.5 c 128,-1,26
 911 116 911 116 945 76 c 1,27,28
 860 80 860 80 761 66.5 c 128,-1,29
 662 53 662 53 583.5 32.5 c 128,-1,30
 505 12 505 12 415 -8 c 128,-1,31
 325 -28 325 -28 257 -36.5 c 128,-1,32
 189 -45 189 -45 111 -34 c 1,33,34
 127 16 127 16 155 62 c 128,-1,35
 183 108 183 108 216.5 145 c 128,-1,36
 250 182 250 182 283.5 216.5 c 128,-1,37
 317 251 317 251 352 293 c 128,-1,38
 387 335 387 335 410 375 c 1,39,40
 404 388 404 388 384.5 392.5 c 128,-1,41
 365 397 365 397 346 397.5 c 128,-1,42
 327 398 327 398 312.5 407.5 c 128,-1,43
 298 417 298 417 300 438 c 1,44,45
 298 464 298 464 310 478.5 c 128,-1,46
 322 493 322 493 342 496.5 c 128,-1,47
 362 500 362 500 387.5 501 c 128,-1,48
 413 502 413 502 439 500 c 128,-1,49
 465 498 465 498 489 501 c 1,50,51
 543 539 543 539 581 595 c 128,-1,52
 619 651 619 651 662 737 c 1,53,54
 655 737 655 737 608.5 736 c 128,-1,55
 562 735 562 735 544 734.5 c 128,-1,56
 526 734 526 734 478.5 732 c 128,-1,57
 431 730 431 730 405 728 c 128,-1,58
 379 726 379 726 335.5 723 c 128,-1,59
 292 720 292 720 262 715.5 c 128,-1,60
 232 711 232 711 196.5 705 c 128,-1,61
 161 699 161 699 132.5 691.5 c 128,-1,62
 104 684 104 684 79 674 c 1,63,64
 79 695 79 695 68 713.5 c 128,-1,65
 57 732 57 732 49.5 752 c 128,-1,66
 42 772 42 772 48 800 c 1,67,68
 113 801 113 801 386 819.5 c 128,-1,69
 659 838 659 838 788 832 c 1,0,1
EndSplineSet
EndChar

StartChar: backslash
Encoding: 92 92 55
Width: 756
Flags: W
LayerCount: 2
Fore
SplineSet
152 968 m 1,0,1
 215 860 215 860 294 698 c 128,-1,2
 373 536 373 536 449.5 386 c 128,-1,3
 526 236 526 236 600 124 c 1,4,5
 620 113 620 113 630.5 107 c 128,-1,6
 641 101 641 101 660 88 c 128,-1,7
 679 75 679 75 688 63.5 c 128,-1,8
 697 52 697 52 705.5 37 c 128,-1,9
 714 22 714 22 713 5 c 128,-1,10
 712 -12 712 -12 703 -30 c 1,11,12
 629 -9 629 -9 566 39.5 c 128,-1,13
 503 88 503 88 456.5 153.5 c 128,-1,14
 410 219 410 219 369 295.5 c 128,-1,15
 328 372 328 372 290 456 c 128,-1,16
 252 540 252 540 215 617 c 128,-1,17
 178 694 178 694 130.5 770.5 c 128,-1,18
 83 847 83 847 31 899 c 1,19,20
 32 943 32 943 63.5 958 c 128,-1,21
 95 973 95 973 152 968 c 1,0,1
EndSplineSet
EndChar

StartChar: a
Encoding: 97 97 56
Width: 721
Flags: W
LayerCount: 2
Fore
SplineSet
622 275 m 1,0,1
 613 253 613 253 616 216.5 c 128,-1,2
 619 180 619 180 626.5 148 c 128,-1,3
 634 116 634 116 635 80.5 c 128,-1,4
 636 45 636 45 622 26 c 1,5,6
 594 28 594 28 581 51 c 128,-1,7
 568 74 568 74 567 102 c 128,-1,8
 566 130 566 130 561 162 c 128,-1,9
 556 194 556 194 543 210 c 1,10,11
 507 217 507 217 454 209 c 128,-1,12
 401 201 401 201 355 187 c 128,-1,13
 309 173 309 173 258 163 c 128,-1,14
 207 153 207 153 175 157 c 1,15,16
 161 139 161 139 155.5 112.5 c 128,-1,17
 150 86 150 86 149.5 64 c 128,-1,18
 149 42 149 42 144.5 22.5 c 128,-1,19
 140 3 140 3 122 -7 c 128,-1,20
 104 -17 104 -17 70 -14 c 1,21,22
 68 64 68 64 88 151 c 128,-1,23
 108 238 108 238 138 316 c 128,-1,24
 168 394 168 394 197.5 472 c 128,-1,25
 227 550 227 550 247.5 636.5 c 128,-1,26
 268 723 268 723 267 801 c 1,27,28
 275 811 275 811 300 821 c 128,-1,29
 325 831 325 831 333 840 c 1,30,31
 354 823 354 823 373 800.5 c 128,-1,32
 392 778 392 778 407 759 c 128,-1,33
 422 740 422 740 438.5 708.5 c 128,-1,34
 455 677 455 677 465 659 c 128,-1,35
 475 641 475 641 489.5 601.5 c 128,-1,36
 504 562 504 562 510 546.5 c 128,-1,37
 516 531 516 531 530 484.5 c 128,-1,38
 544 438 544 438 547.5 426 c 128,-1,39
 551 414 551 414 565.5 362 c 128,-1,40
 580 310 580 310 582 302 c 0,41,42
 584 292 584 292 603 289.5 c 128,-1,43
 622 287 622 287 622 275 c 1,0,1
201 249 m 1,44,45
 236 251 236 251 342 264.5 c 128,-1,46
 448 278 448 278 517 275 c 1,47,48
 511 296 511 296 497.5 346 c 128,-1,49
 484 396 484 396 476.5 421 c 128,-1,50
 469 446 469 446 454.5 487.5 c 128,-1,51
 440 529 440 529 426 554.5 c 128,-1,52
 412 580 412 580 391 608.5 c 128,-1,53
 370 637 370 637 346 656 c 1,54,55
 331 619 331 619 316 580 c 128,-1,56
 301 541 301 541 284.5 493.5 c 128,-1,57
 268 446 268 446 258 417 c 128,-1,58
 248 388 248 388 228 329 c 128,-1,59
 208 270 208 270 201 249 c 1,44,45
EndSplineSet
EndChar

StartChar: b
Encoding: 98 98 57
Width: 944
Flags: W
LayerCount: 2
Fore
SplineSet
873 503 m 1,0,1
 895 422 895 422 870.5 339.5 c 128,-1,2
 846 257 846 257 789.5 192 c 128,-1,3
 733 127 733 127 653.5 76.5 c 128,-1,4
 574 26 574 26 490.5 1.5 c 128,-1,5
 407 -23 407 -23 324 -18 c 128,-1,6
 241 -13 241 -13 181 28 c 1,7,8
 172 73 172 73 171.5 142.5 c 128,-1,9
 171 212 171 212 170.5 259.5 c 128,-1,10
 170 307 170 307 150 360 c 128,-1,11
 130 413 130 413 86 449 c 1,12,13
 120 477 120 477 130.5 525 c 128,-1,14
 141 573 141 573 131.5 619.5 c 128,-1,15
 122 666 122 666 105.5 704.5 c 128,-1,16
 89 743 89 743 72 761 c 1,17,18
 83 799 83 799 117 827 c 128,-1,19
 151 855 151 855 195.5 866.5 c 128,-1,20
 240 878 240 878 291 880.5 c 128,-1,21
 342 883 342 883 389.5 870.5 c 128,-1,22
 437 858 437 858 475 837.5 c 128,-1,23
 513 817 513 817 533 782.5 c 128,-1,24
 553 748 553 748 547 707 c 0,25,26
 544 681 544 681 528 663 c 128,-1,27
 512 645 512 645 493.5 635 c 128,-1,28
 475 625 475 625 451 608 c 128,-1,29
 427 591 427 591 412 571 c 1,30,31
 460 559 460 559 532 558 c 128,-1,32
 604 557 604 557 659.5 559 c 128,-1,33
 715 561 715 561 775.5 548.5 c 128,-1,34
 836 536 836 536 873 503 c 1,0,1
208 788 m 1,35,-1
 208 557 l 1,36,37
 258 576 258 576 291.5 591 c 128,-1,38
 325 606 325 606 364.5 629 c 128,-1,39
 404 652 404 652 432.5 681.5 c 128,-1,40
 461 711 461 711 480 747 c 1,41,42
 444 772 444 772 400.5 782.5 c 128,-1,43
 357 793 357 793 311 792.5 c 128,-1,44
 265 792 265 792 208 788 c 1,35,-1
276 28 m 1,45,46
 729 79 729 79 819 449 c 1,47,48
 779 474 779 474 727.5 485.5 c 128,-1,49
 676 497 676 497 631 498 c 128,-1,50
 586 499 586 499 522.5 489.5 c 128,-1,51
 459 480 459 480 419.5 470.5 c 128,-1,52
 380 461 380 461 314 444.5 c 128,-1,53
 248 428 248 428 222 421 c 1,54,55
 219 352 219 352 227 287.5 c 128,-1,56
 235 223 235 223 252.5 144 c 128,-1,57
 270 65 270 65 276 28 c 1,45,46
EndSplineSet
EndChar

StartChar: c
Encoding: 99 99 58
Width: 904
Flags: W
LayerCount: 2
Fore
SplineSet
718 549 m 1,0,1
 678 542 678 542 655.5 556.5 c 128,-1,2
 633 571 633 571 625 599 c 128,-1,3
 617 627 617 627 613 657 c 128,-1,4
 609 687 609 687 600 717 c 128,-1,5
 591 747 591 747 572 760 c 1,6,7
 488 774 488 774 412 755.5 c 128,-1,8
 336 737 336 737 282 692.5 c 128,-1,9
 228 648 228 648 190 587 c 128,-1,10
 152 526 152 526 138 452.5 c 128,-1,11
 124 379 124 379 135 306 c 0,12,13
 145 234 145 234 186 182.5 c 128,-1,14
 227 131 227 131 287 105.5 c 128,-1,15
 347 80 347 80 420.5 71.5 c 128,-1,16
 494 63 494 63 570 72.5 c 128,-1,17
 646 82 646 82 718 104.5 c 128,-1,18
 790 127 790 127 848 160 c 1,19,20
 800 95 800 95 725.5 50.5 c 128,-1,21
 651 6 651 6 569.5 -13 c 128,-1,22
 488 -32 488 -32 402 -26 c 128,-1,23
 316 -20 316 -20 245 9.5 c 128,-1,24
 174 39 174 39 122 99 c 128,-1,25
 70 159 70 159 54 241 c 0,26,27
 13 446 13 446 128 627 c 0,28,29
 213 760 213 760 344 826 c 0,30,31
 477 893 477 893 580 850 c 0,32,33
 700 800 700 800 716 617 c 0,34,35
 719 585 719 585 718 549 c 1,0,1
EndSplineSet
EndChar

StartChar: d
Encoding: 100 100 59
Width: 888
Flags: W
LayerCount: 2
Fore
SplineSet
227 -5 m 1,0,1
 222 22 222 22 241 27.5 c 128,-1,2
 260 33 260 33 293.5 28.5 c 128,-1,3
 327 24 327 24 340 28 c 1,4,5
 353 37 353 37 494 123 c 0,6,7
 641 212 641 212 696 285 c 0,8,9
 766 378 766 378 740 492 c 0,10,11
 731 531 731 531 709.5 565.5 c 128,-1,12
 688 600 688 600 660.5 626 c 128,-1,13
 633 652 633 652 593 675.5 c 128,-1,14
 553 699 553 699 514 715.5 c 128,-1,15
 475 732 475 732 423 747.5 c 128,-1,16
 371 763 371 763 327.5 773.5 c 128,-1,17
 284 784 284 784 227 796 c 1,18,19
 243 736 243 736 257.5 601.5 c 128,-1,20
 272 467 272 467 291 335 c 128,-1,21
 310 203 310 203 340 124 c 1,22,23
 289 121 289 121 251.5 175 c 128,-1,24
 214 229 214 229 195.5 311 c 128,-1,25
 177 393 177 393 169 484 c 128,-1,26
 161 575 161 575 164.5 651.5 c 128,-1,27
 168 728 168 728 179 764 c 1,28,29
 175 780 175 780 150 781 c 128,-1,30
 125 782 125 782 99 782 c 128,-1,31
 73 782 73 782 67 796 c 1,32,33
 61 823 61 823 72.5 850.5 c 128,-1,34
 84 878 84 878 83 892 c 1,35,36
 601 887 601 887 820 524 c 1,37,38
 832 442 832 442 809 364.5 c 128,-1,39
 786 287 786 287 738.5 228 c 128,-1,40
 691 169 691 169 626 120 c 128,-1,41
 561 71 561 71 491 42 c 128,-1,42
 421 13 421 13 352 0 c 128,-1,43
 283 -13 283 -13 227 -5 c 1,0,1
EndSplineSet
EndChar

StartChar: e
Encoding: 101 101 60
Width: 824
Flags: W
LayerCount: 2
Fore
SplineSet
731 795 m 1,0,1
 723 768 723 768 696 757.5 c 128,-1,2
 669 747 669 747 633 749.5 c 128,-1,3
 597 752 597 752 553.5 753.5 c 128,-1,4
 510 755 510 755 469 751 c 1,5,6
 420 744 420 744 363 727 c 128,-1,7
 306 710 306 710 280 699.5 c 128,-1,8
 254 689 254 689 193 664 c 1,9,10
 195 625 195 625 192.5 586 c 128,-1,11
 190 547 190 547 186.5 524 c 128,-1,12
 183 501 183 501 184 472.5 c 128,-1,13
 185 444 185 444 193 416 c 1,14,15
 253 414 253 414 392 434.5 c 128,-1,16
 531 455 531 455 600 446 c 1,17,18
 570 412 570 412 516 390 c 128,-1,19
 462 368 462 368 411.5 359.5 c 128,-1,20
 361 351 361 351 290.5 339 c 128,-1,21
 220 327 220 327 178 315 c 1,22,23
 184 304 184 304 187.5 282 c 128,-1,24
 191 260 191 260 192 233.5 c 128,-1,25
 193 207 193 207 193 175 c 128,-1,26
 193 143 193 143 193 111 c 1,27,28
 316 110 316 110 464 128.5 c 128,-1,29
 612 147 612 147 702 184 c 1,30,31
 709 164 709 164 706 148 c 128,-1,32
 703 132 703 132 698 120 c 128,-1,33
 693 108 693 108 680.5 98.5 c 128,-1,34
 668 89 668 89 655 82.5 c 128,-1,35
 642 76 642 76 623.5 71 c 128,-1,36
 605 66 605 66 588 62.5 c 128,-1,37
 571 59 571 59 550 56 c 128,-1,38
 529 53 529 53 511.5 50.5 c 128,-1,39
 494 48 494 48 474 45 c 128,-1,40
 454 42 454 42 440 38 c 1,41,42
 415 33 415 33 378.5 22 c 128,-1,43
 342 11 342 11 312 2 c 128,-1,44
 282 -7 282 -7 246 -16 c 128,-1,45
 210 -25 210 -25 181 -29.5 c 128,-1,46
 152 -34 152 -34 122.5 -33 c 128,-1,47
 93 -32 93 -32 71 -24 c 1,48,49
 71 79 71 79 70.5 181 c 128,-1,50
 70 283 70 283 69.5 368.5 c 128,-1,51
 69 454 69 454 62.5 549 c 128,-1,52
 56 644 56 644 42 732 c 1,53,54
 125 770 125 770 245 795.5 c 128,-1,55
 365 821 365 821 494.5 824 c 128,-1,56
 624 827 624 827 731 795 c 1,0,1
EndSplineSet
EndChar

StartChar: f
Encoding: 102 102 61
Width: 779
Flags: W
LayerCount: 2
Fore
SplineSet
715 746 m 1,0,1
 621 762 621 762 546.5 768 c 128,-1,2
 472 774 472 774 393 769 c 128,-1,3
 314 764 314 764 234 746 c 1,4,5
 249 720 249 720 249 693 c 128,-1,6
 249 666 249 666 242 629.5 c 128,-1,7
 235 593 235 593 234 569 c 1,8,9
 263 545 263 545 318 538.5 c 128,-1,10
 373 532 373 532 426 538 c 128,-1,11
 479 544 479 544 534 545 c 128,-1,12
 589 546 589 546 619 537 c 1,13,14
 599 499 599 499 547.5 480 c 128,-1,15
 496 461 496 461 442.5 458 c 128,-1,16
 389 455 389 455 323 448 c 128,-1,17
 257 441 257 441 218 425 c 1,18,19
 212 367 212 367 216.5 300 c 128,-1,20
 221 233 221 233 228.5 184 c 128,-1,21
 236 135 236 135 239 72 c 128,-1,22
 242 9 242 9 234 -40 c 1,23,24
 196 -36 196 -36 173 -14 c 128,-1,25
 150 8 150 8 143 42 c 128,-1,26
 136 76 136 76 134 118.5 c 128,-1,27
 132 161 132 161 136.5 206 c 128,-1,28
 141 251 141 251 141.5 295.5 c 128,-1,29
 142 340 142 340 138 377 c 0,30,31
 137 385 137 385 131.5 421.5 c 128,-1,32
 126 458 126 458 123 480 c 128,-1,33
 120 502 120 502 117 541.5 c 128,-1,34
 114 581 114 581 115 609 c 128,-1,35
 116 637 116 637 121.5 670.5 c 128,-1,36
 127 704 127 704 138 730 c 1,37,38
 129 737 129 737 113 743 c 128,-1,39
 97 749 97 749 84.5 752.5 c 128,-1,40
 72 756 72 756 58.5 765 c 128,-1,41
 45 774 45 774 42 787.5 c 128,-1,42
 39 801 39 801 42 826 c 1,43,44
 84 828 84 828 259.5 846 c 128,-1,45
 435 864 435 864 507 858 c 0,46,47
 514 857 514 857 534.5 856 c 128,-1,48
 555 855 555 855 568 854 c 128,-1,49
 581 853 581 853 602.5 850 c 128,-1,50
 624 847 624 847 637.5 842.5 c 128,-1,51
 651 838 651 838 667.5 829.5 c 128,-1,52
 684 821 684 821 693.5 810 c 128,-1,53
 703 799 703 799 709.5 782.5 c 128,-1,54
 716 766 716 766 715 746 c 1,0,1
EndSplineSet
EndChar

StartChar: g
Encoding: 103 103 62
Width: 1072
Flags: W
LayerCount: 2
Fore
SplineSet
988 506 m 1,0,1
 998 418 998 418 1001.5 255 c 128,-1,2
 1005 92 1005 92 1021 8 c 1,3,4
 998 13 998 13 979 23.5 c 128,-1,5
 960 34 960 34 947 46.5 c 128,-1,6
 934 59 934 59 924.5 78.5 c 128,-1,7
 915 98 915 98 909 115 c 128,-1,8
 903 132 903 132 900 158 c 128,-1,9
 897 184 897 184 896 204 c 128,-1,10
 895 224 895 224 896 254 c 128,-1,11
 897 284 897 284 898 304 c 128,-1,12
 899 324 899 324 901.5 356.5 c 128,-1,13
 904 389 904 389 905 406 c 1,14,15
 867 406 867 406 821 388.5 c 128,-1,16
 775 371 775 371 736.5 347.5 c 128,-1,17
 698 324 698 324 655.5 303.5 c 128,-1,18
 613 283 613 283 579 274 c 128,-1,19
 545 265 545 265 512 280.5 c 128,-1,20
 479 296 479 296 456 340 c 1,21,22
 509 347 509 347 567 369.5 c 128,-1,23
 625 392 625 392 673.5 417.5 c 128,-1,24
 722 443 722 443 772 466.5 c 128,-1,25
 822 490 822 490 878 502 c 128,-1,26
 934 514 934 514 988 506 c 1,0,1
655 755 m 1,27,28
 654 721 654 721 629 704.5 c 128,-1,29
 604 688 604 688 568.5 688 c 128,-1,30
 533 688 533 688 491 688 c 1,31,32
 479 689 479 689 473 689 c 1,33,34
 432 665 432 665 401 645 c 128,-1,35
 370 625 370 625 328.5 594.5 c 128,-1,36
 287 564 287 564 256.5 537 c 128,-1,37
 226 510 226 510 194.5 473.5 c 128,-1,38
 163 437 163 437 144 402 c 128,-1,39
 125 367 125 367 114.5 325 c 128,-1,40
 104 283 104 283 107 240 c 0,41,42
 112 182 112 182 143 140.5 c 128,-1,43
 174 99 174 99 220.5 77.5 c 128,-1,44
 267 56 267 56 329 46 c 128,-1,45
 391 36 391 36 454 37.5 c 128,-1,46
 517 39 517 39 584.5 47.5 c 128,-1,47
 652 56 652 56 705 67 c 128,-1,48
 758 78 758 78 805 91 c 1,49,50
 774 42 774 42 709.5 9.5 c 128,-1,51
 645 -23 645 -23 567.5 -36 c 128,-1,52
 490 -49 490 -49 403.5 -45 c 128,-1,53
 317 -41 317 -41 241.5 -21 c 128,-1,54
 166 -1 166 -1 106.5 36.5 c 128,-1,55
 47 74 47 74 24 124 c 1,56,57
 18 162 18 162 23.5 208.5 c 128,-1,58
 29 255 29 255 33 278.5 c 128,-1,59
 37 302 37 302 24 340 c 1,60,61
 45 380 45 380 61.5 409.5 c 128,-1,62
 78 439 78 439 108 486.5 c 128,-1,63
 138 534 138 534 164 569 c 128,-1,64
 190 604 190 604 227.5 646.5 c 128,-1,65
 265 689 265 689 299.5 716 c 128,-1,66
 334 743 334 743 378 766 c 128,-1,67
 422 789 422 789 464.5 795.5 c 128,-1,68
 507 802 507 802 556.5 793 c 128,-1,69
 606 784 606 784 655 755 c 1,27,28
EndSplineSet
EndChar

StartChar: h
Encoding: 104 104 63
Width: 872
Flags: W
LayerCount: 2
Fore
SplineSet
140 835 m 1,0,-1
 140 572 l 1,1,2
 171 561 171 561 226.5 561.5 c 128,-1,3
 282 562 282 562 334.5 564 c 128,-1,4
 387 566 387 566 440 562 c 128,-1,5
 493 558 493 558 533.5 532.5 c 128,-1,6
 574 507 574 507 591 459 c 1,7,8
 561 453 561 453 509.5 453 c 128,-1,9
 458 453 458 453 408.5 455 c 128,-1,10
 359 457 359 457 308 455.5 c 128,-1,11
 257 454 257 454 212 441 c 128,-1,12
 167 428 167 428 140 403 c 1,13,14
 143 359 143 359 156 289.5 c 128,-1,15
 169 220 169 220 187.5 130 c 128,-1,16
 206 40 206 40 215 -11 c 1,17,18
 164 7 164 7 127 51 c 128,-1,19
 90 95 90 95 70 151.5 c 128,-1,20
 50 208 50 208 40 284 c 128,-1,21
 30 360 30 360 29 430.5 c 128,-1,22
 28 501 28 501 34 584 c 128,-1,23
 40 667 40 667 47.5 728 c 128,-1,24
 55 789 55 789 65 854 c 1,25,26
 81 855 81 855 101.5 844 c 128,-1,27
 122 833 122 833 140 835 c 1,0,-1
723 854 m 1,28,29
 723 843 723 843 728 764 c 128,-1,30
 733 685 733 685 734.5 660.5 c 128,-1,31
 736 636 736 636 741.5 558 c 128,-1,32
 747 480 747 480 749.5 445 c 128,-1,33
 752 410 752 410 757.5 338.5 c 128,-1,34
 763 267 763 267 767.5 227.5 c 128,-1,35
 772 188 772 188 778 128.5 c 128,-1,36
 784 69 784 69 790 30 c 128,-1,37
 796 -9 796 -9 803 -51 c 128,-1,38
 810 -93 810 -93 817 -124 c 1,39,40
 685 -117 685 -117 648 196 c 0,41,42
 633 319 633 319 624 441.5 c 128,-1,43
 615 564 615 564 615.5 684 c 128,-1,44
 616 804 616 804 629 873 c 1,45,46
 657 881 657 881 679.5 865.5 c 128,-1,47
 702 850 702 850 723 854 c 1,28,29
EndSplineSet
EndChar

StartChar: i
Encoding: 105 105 64
Width: 960
Flags: W
LayerCount: 2
Fore
SplineSet
728 736 m 1,0,1
 710 716 710 716 681.5 714.5 c 128,-1,2
 653 713 653 713 626.5 721.5 c 128,-1,3
 600 730 600 730 566 736 c 128,-1,4
 532 742 532 742 508 736 c 1,5,6
 486 642 486 642 492.5 533.5 c 128,-1,7
 499 425 499 425 521 329.5 c 128,-1,8
 543 234 543 234 576 159 c 1,9,10
 614 144 614 144 667.5 142.5 c 128,-1,11
 721 141 721 141 761 148 c 128,-1,12
 801 155 801 155 842.5 155 c 128,-1,13
 884 155 884 155 898 142 c 1,14,15
 879 110 879 110 846.5 91.5 c 128,-1,16
 814 73 814 73 771 68 c 128,-1,17
 728 63 728 63 686.5 62.5 c 128,-1,18
 645 62 645 62 593.5 62 c 128,-1,19
 542 62 542 62 508 58 c 1,20,21
 468 52 468 52 418.5 36 c 128,-1,22
 369 20 369 20 330 5.5 c 128,-1,23
 291 -9 291 -9 252 -20.5 c 128,-1,24
 213 -32 213 -32 178.5 -30.5 c 128,-1,25
 144 -29 144 -29 118 -10 c 1,26,27
 125 8 125 8 136 23.5 c 128,-1,28
 147 39 147 39 158 51 c 128,-1,29
 169 63 169 63 187 74.5 c 128,-1,30
 205 86 205 86 217.5 93.5 c 128,-1,31
 230 101 230 101 253.5 109 c 128,-1,32
 277 117 277 117 290 121.5 c 128,-1,33
 303 126 303 126 331.5 133 c 128,-1,34
 360 140 360 140 372 142.5 c 128,-1,35
 384 145 384 145 415.5 151 c 128,-1,36
 447 157 447 157 457 159 c 1,37,38
 430 232 430 232 415 342 c 128,-1,39
 400 452 400 452 388 557 c 128,-1,40
 376 662 376 662 355 719 c 1,41,42
 312 702 312 702 258 691 c 128,-1,43
 204 680 204 680 141.5 684 c 128,-1,44
 79 688 79 688 50 719 c 1,45,46
 92 765 92 765 190.5 793 c 128,-1,47
 289 821 289 821 393.5 824.5 c 128,-1,48
 498 828 498 828 594.5 805 c 128,-1,49
 691 782 691 782 728 736 c 1,0,1
EndSplineSet
EndChar

StartChar: j
Encoding: 106 106 65
Width: 1000
Flags: W
LayerCount: 2
Fore
SplineSet
708 936 m 1,0,1
 744 941 744 941 750 915 c 1,2,3
 782 872 782 872 815 800.5 c 128,-1,4
 848 729 848 729 877 642 c 128,-1,5
 906 555 906 555 921 460 c 128,-1,6
 936 365 936 365 935 278.5 c 128,-1,7
 934 192 934 192 903.5 118 c 128,-1,8
 873 44 873 44 814 4 c 0,9,10
 752 -39 752 -39 672.5 -54.5 c 128,-1,11
 593 -70 593 -70 514 -59.5 c 128,-1,12
 435 -49 435 -49 354.5 -18.5 c 128,-1,13
 274 12 274 12 209 56.5 c 128,-1,14
 144 101 144 101 96 159.5 c 128,-1,15
 48 218 48 218 30 279 c 1,16,17
 55 266 55 266 106.5 233.5 c 128,-1,18
 158 201 158 201 202 172.5 c 128,-1,19
 246 144 246 144 309 114.5 c 128,-1,20
 372 85 372 85 429 70 c 128,-1,21
 486 55 486 55 555 58 c 128,-1,22
 624 61 624 61 687 88 c 1,23,24
 740 120 740 120 768 166.5 c 128,-1,25
 796 213 796 213 800 264 c 128,-1,26
 804 315 804 315 795.5 375 c 128,-1,27
 787 435 787 435 768.5 493.5 c 128,-1,28
 750 552 750 552 732.5 615 c 128,-1,29
 715 678 715 678 701.5 733 c 128,-1,30
 688 788 688 788 688.5 842 c 128,-1,31
 689 896 689 896 708 936 c 1,0,1
EndSplineSet
EndChar

StartChar: k
Encoding: 107 107 66
Width: 940
Flags: W
LayerCount: 2
Fore
SplineSet
144 919 m 1,0,1
 164 871 164 871 170 814.5 c 128,-1,2
 176 758 176 758 173.5 712.5 c 128,-1,3
 171 667 171 667 175.5 601 c 128,-1,4
 180 535 180 535 197 474 c 1,5,6
 249 495 249 495 297 532.5 c 128,-1,7
 345 570 345 570 383 610 c 128,-1,8
 421 650 421 650 460 690 c 128,-1,9
 499 730 499 730 550.5 763 c 128,-1,10
 602 796 602 796 660 812 c 1,11,12
 650 756 650 756 622 710.5 c 128,-1,13
 594 665 594 665 558 635.5 c 128,-1,14
 522 606 522 606 477.5 576.5 c 128,-1,15
 433 547 433 547 392.5 522.5 c 128,-1,16
 352 498 352 498 313 462 c 128,-1,17
 274 426 274 426 251 385 c 1,18,19
 291 379 291 379 368 368 c 128,-1,20
 445 357 445 357 490 350 c 128,-1,21
 535 343 535 343 601.5 329 c 128,-1,22
 668 315 668 315 713 300 c 128,-1,23
 758 285 758 285 807 261 c 128,-1,24
 856 237 856 237 891 207 c 1,25,26
 851 191 851 191 786 195.5 c 128,-1,27
 721 200 721 200 655 217 c 128,-1,28
 589 234 589 234 511 249.5 c 128,-1,29
 433 265 433 265 366 271.5 c 128,-1,30
 299 278 299 278 233 261 c 1,31,32
 225 219 225 219 237 161 c 128,-1,33
 249 103 249 103 262 39 c 128,-1,34
 275 -25 275 -25 269 -77 c 1,35,36
 228 -79 228 -79 202 -61 c 128,-1,37
 176 -43 176 -43 165.5 -12.5 c 128,-1,38
 155 18 155 18 150.5 55.5 c 128,-1,39
 146 93 146 93 142.5 132 c 128,-1,40
 139 171 139 171 132 205 c 128,-1,41
 125 239 125 239 106 264 c 128,-1,42
 87 289 87 289 55 296 c 1,43,44
 87 355 87 355 92.5 432 c 128,-1,45
 98 509 98 509 87 571.5 c 128,-1,46
 76 634 76 634 59 728 c 128,-1,47
 42 822 42 822 37 883 c 1,48,49
 53 881 53 881 64 885.5 c 128,-1,50
 75 890 75 890 80 897.5 c 128,-1,51
 85 905 85 905 93.5 912 c 128,-1,52
 102 919 102 919 112.5 921.5 c 128,-1,53
 123 924 123 924 144 919 c 1,0,1
EndSplineSet
EndChar

StartChar: l
Encoding: 108 108 67
Width: 1020
Flags: W
LayerCount: 2
Fore
SplineSet
164 843 m 1,0,1
 189 765 189 765 197 668 c 128,-1,2
 205 571 205 571 200 485.5 c 128,-1,3
 195 400 195 400 192.5 299.5 c 128,-1,4
 190 199 190 199 195 114 c 1,5,6
 367 186 367 186 562.5 235.5 c 128,-1,7
 758 285 758 285 925 284 c 1,8,9
 846 241 846 241 729.5 197.5 c 128,-1,10
 613 154 613 154 517.5 124 c 128,-1,11
 422 94 422 94 314 46 c 128,-1,12
 206 -2 206 -2 133 -57 c 1,13,14
 116 -16 116 -16 112.5 61.5 c 128,-1,15
 109 139 109 139 113.5 231 c 128,-1,16
 118 323 118 323 122 418.5 c 128,-1,17
 126 514 126 514 118 612.5 c 128,-1,18
 110 711 110 711 87 781 c 0,19,20
 83 795 83 795 87 804 c 128,-1,21
 91 813 91 813 98 816 c 128,-1,22
 105 819 105 819 111.5 826 c 128,-1,23
 118 833 118 833 118 843 c 1,24,-1
 164 843 l 1,0,1
EndSplineSet
EndChar

StartChar: m
Encoding: 109 109 68
Width: 1060
Flags: W
LayerCount: 2
Fore
SplineSet
898 725 m 1,0,1
 930 660 930 660 942.5 574 c 128,-1,2
 955 488 955 488 954.5 406 c 128,-1,3
 954 324 954 324 955 243.5 c 128,-1,4
 956 163 956 163 973 86.5 c 128,-1,5
 990 10 990 10 1029 -43 c 1,6,7
 1017 -44 1017 -44 1009 -52 c 128,-1,8
 1001 -60 1001 -60 996.5 -68.5 c 128,-1,9
 992 -77 992 -77 981.5 -82.5 c 128,-1,10
 971 -88 971 -88 956 -86 c 1,11,12
 919 -38 919 -38 900.5 45 c 128,-1,13
 882 128 882 128 879.5 206 c 128,-1,14
 877 284 877 284 872 386 c 128,-1,15
 867 488 867 488 855 552 c 1,16,17
 805 520 805 520 758 473 c 128,-1,18
 711 426 711 426 673 378 c 128,-1,19
 635 330 635 330 595.5 282 c 128,-1,20
 556 234 556 234 507 189.5 c 128,-1,21
 458 145 458 145 405 117 c 1,22,23
 368 138 368 138 336 178 c 128,-1,24
 304 218 304 218 285 257 c 128,-1,25
 266 296 266 296 236 339 c 128,-1,26
 206 382 206 382 174 407 c 1,27,28
 162 352 162 352 167 308.5 c 128,-1,29
 172 265 172 265 182 222 c 128,-1,30
 192 179 192 179 202 144 c 128,-1,31
 212 109 212 109 209.5 71 c 128,-1,32
 207 33 207 33 188 1 c 1,33,34
 147 14 147 14 123.5 46.5 c 128,-1,35
 100 79 100 79 93.5 120 c 128,-1,36
 87 161 87 161 87 214.5 c 128,-1,37
 87 268 87 268 91 316.5 c 128,-1,38
 95 365 95 365 95 418.5 c 128,-1,39
 95 472 95 472 87 508 c 1,40,41
 88 529 88 529 79.5 544.5 c 128,-1,42
 71 560 71 560 60 568.5 c 128,-1,43
 49 577 49 577 39.5 591.5 c 128,-1,44
 30 606 30 606 29 624 c 1,45,46
 44 638 44 638 64.5 642 c 128,-1,47
 85 646 85 646 99 644 c 128,-1,48
 113 642 113 642 144 634.5 c 128,-1,49
 175 627 175 627 188 624 c 1,50,51
 232 400 232 400 420 262 c 1,52,53
 427 267 427 267 442 279 c 0,54,55
 506 329 506 329 539.5 356 c 128,-1,56
 573 383 573 383 619 422.5 c 128,-1,57
 665 462 665 462 695 494 c 0,58,59
 716 515 716 515 739 555 c 128,-1,60
 762 595 762 595 778.5 626.5 c 128,-1,61
 795 658 795 658 826.5 687 c 128,-1,62
 858 716 858 716 898 725 c 1,0,1
EndSplineSet
EndChar

StartChar: n
Encoding: 110 110 69
Width: 1072
Flags: W
LayerCount: 2
Fore
SplineSet
1033 776 m 1,0,1
 1003 732 1003 732 987.5 669.5 c 128,-1,2
 972 607 972 607 969 542.5 c 128,-1,3
 966 478 966 478 967 407 c 128,-1,4
 968 336 968 336 967.5 269 c 128,-1,5
 967 202 967 202 960.5 142 c 128,-1,6
 954 82 954 82 932 31 c 128,-1,7
 910 -20 910 -20 871 -51 c 1,8,9
 781 -2 781 -2 685.5 70.5 c 128,-1,10
 590 143 590 143 520 208 c 128,-1,11
 450 273 450 273 357 353.5 c 128,-1,12
 264 434 264 434 188 488 c 1,13,14
 157 444 157 444 143 381 c 128,-1,15
 129 318 129 318 131.5 248.5 c 128,-1,16
 134 179 134 179 141 120.5 c 128,-1,17
 148 62 148 62 158 -1.5 c 128,-1,18
 168 -65 168 -65 170 -87 c 1,19,20
 157 -84 157 -84 149 -88.5 c 128,-1,21
 141 -93 141 -93 139 -100.5 c 128,-1,22
 137 -108 137 -108 131 -115.5 c 128,-1,23
 125 -123 125 -123 116 -123 c 1,24,25
 73 -76 73 -76 51.5 42.5 c 128,-1,26
 30 161 30 161 32.5 289.5 c 128,-1,27
 35 418 35 418 57.5 536.5 c 128,-1,28
 80 655 80 655 116 704 c 1,29,30
 183 657 183 657 256 591.5 c 128,-1,31
 329 526 329 526 390.5 465 c 128,-1,32
 452 404 452 404 517.5 342.5 c 128,-1,33
 583 281 583 281 660 224.5 c 128,-1,34
 737 168 737 168 817 129 c 1,35,36
 840 168 840 168 850 224.5 c 128,-1,37
 860 281 860 281 860.5 337 c 128,-1,38
 861 393 861 393 860.5 453 c 128,-1,39
 860 513 860 513 865.5 565.5 c 128,-1,40
 871 618 871 618 886 662.5 c 128,-1,41
 901 707 901 707 938 736.5 c 128,-1,42
 975 766 975 766 1033 776 c 1,0,1
EndSplineSet
EndChar

StartChar: o
Encoding: 111 111 70
Width: 1016
Flags: W
LayerCount: 2
Fore
SplineSet
961 494 m 0,0,1
 974 426 974 426 956 347 c 128,-1,2
 938 268 938 268 898.5 199 c 128,-1,3
 859 130 859 130 805 74 c 128,-1,4
 751 18 751 18 694 -8 c 0,5,6
 618 -43 618 -43 507.5 -44 c 128,-1,7
 397 -45 397 -45 291.5 -10.5 c 128,-1,8
 186 24 186 24 130 86 c 0,9,10
 65 158 65 158 40.5 266.5 c 128,-1,11
 16 375 16 375 31.5 484.5 c 128,-1,12
 47 594 47 594 97.5 698.5 c 128,-1,13
 148 803 148 803 224 870 c 1,14,-1
 240 870 l 1,15,16
 275 879 275 879 273 843 c 0,17,18
 272 813 272 813 257 793 c 0,19,20
 256 792 256 792 255 791 c 1,21,22
 302 781 302 781 365 771.5 c 128,-1,23
 428 762 428 762 479.5 755.5 c 128,-1,24
 531 749 531 749 590 739 c 128,-1,25
 649 729 649 729 696 718 c 128,-1,26
 743 707 743 707 789.5 687.5 c 128,-1,27
 836 668 836 668 869 643 c 128,-1,28
 902 618 902 618 926.5 580 c 128,-1,29
 951 542 951 542 961 494 c 0,0,1
475 23 m 0,30,31
 533 22 533 22 596 45 c 128,-1,32
 659 68 659 68 714.5 110.5 c 128,-1,33
 770 153 770 153 812.5 208.5 c 128,-1,34
 855 264 855 264 874.5 335 c 128,-1,35
 894 406 894 406 882 478 c 0,36,37
 876 518 876 518 855 550.5 c 128,-1,38
 834 583 834 583 805.5 604 c 128,-1,39
 777 625 777 625 735 640.5 c 128,-1,40
 693 656 693 656 653.5 664 c 128,-1,41
 614 672 614 672 561 678 c 128,-1,42
 508 684 508 684 467.5 686 c 128,-1,43
 427 688 427 688 373 691 c 128,-1,44
 319 694 319 694 287 697 c 1,45,46
 272 707 272 707 268 720 c 128,-1,47
 264 733 264 733 266 742 c 128,-1,48
 268 751 268 751 259 756.5 c 128,-1,49
 250 762 250 762 224 760 c 1,50,51
 167 689 167 689 137.5 604.5 c 128,-1,52
 108 520 108 520 106.5 440 c 128,-1,53
 105 360 105 360 130 284.5 c 128,-1,54
 155 209 155 209 201 152 c 128,-1,55
 247 95 247 95 318 60 c 128,-1,56
 389 25 389 25 475 23 c 0,30,31
EndSplineSet
EndChar

StartChar: p
Encoding: 112 112 71
Width: 924
Flags: W
LayerCount: 2
Fore
SplineSet
855 779 m 1,0,1
 918 546 918 546 532 412 c 0,2,3
 459 387 459 387 298 346 c 1,4,5
 338 381 338 381 397.5 414 c 128,-1,6
 457 447 457 447 513.5 472.5 c 128,-1,7
 570 498 570 498 626 526.5 c 128,-1,8
 682 555 682 555 731 595.5 c 128,-1,9
 780 636 780 636 809 686 c 1,10,11
 774 734 774 734 702.5 759 c 128,-1,12
 631 784 631 784 548 786 c 128,-1,13
 465 788 465 788 384 778 c 128,-1,14
 303 768 303 768 236 748 c 1,15,16
 240 677 240 677 233 579.5 c 128,-1,17
 226 482 226 482 219 404 c 128,-1,18
 212 326 212 326 211.5 244.5 c 128,-1,19
 211 163 211 163 232 93.5 c 128,-1,20
 253 24 253 24 298 -26 c 1,21,22
 242 -27 242 -27 205.5 3 c 128,-1,23
 169 33 169 33 154 86 c 128,-1,24
 139 139 139 139 134.5 203 c 128,-1,25
 130 267 130 267 135 342.5 c 128,-1,26
 140 418 140 418 146.5 484 c 128,-1,27
 153 550 153 550 157.5 615.5 c 128,-1,28
 162 681 162 681 159 717 c 1,29,30
 147 738 147 738 104.5 757.5 c 128,-1,31
 62 777 62 777 50 794 c 1,32,33
 313 961 313 961 855 779 c 1,0,1
EndSplineSet
EndChar

StartChar: q
Encoding: 113 113 72
Width: 1328
Flags: W
LayerCount: 2
Fore
SplineSet
995 241 m 1,0,1
 1023 222 1023 222 1072 199 c 128,-1,2
 1121 176 1121 176 1156.5 159.5 c 128,-1,3
 1192 143 1192 143 1227 112 c 128,-1,4
 1262 81 1262 81 1278 41 c 1,5,6
 1241 42 1241 42 1189.5 58.5 c 128,-1,7
 1138 75 1138 75 1094.5 94.5 c 128,-1,8
 1051 114 1051 114 995.5 129 c 128,-1,9
 940 144 940 144 895 141 c 0,10,11
 871 139 871 139 818.5 123 c 128,-1,12
 766 107 766 107 706 85 c 128,-1,13
 646 63 646 63 572.5 41 c 128,-1,14
 499 19 499 19 429 3 c 128,-1,15
 359 -13 359 -13 290.5 -13.5 c 128,-1,16
 222 -14 222 -14 169 2.5 c 128,-1,17
 116 19 116 19 78.5 66.5 c 128,-1,18
 41 114 41 114 31 191 c 0,19,20
 23 249 23 249 39 313 c 128,-1,21
 55 377 55 377 88.5 434.5 c 128,-1,22
 122 492 122 492 171 544 c 128,-1,23
 220 596 220 596 275 633.5 c 128,-1,24
 330 671 330 671 392.5 691 c 128,-1,25
 455 711 455 711 513 706 c 1,26,27
 505 641 505 641 496 590 c 1,28,29
 404 582 404 582 318 530.5 c 128,-1,30
 232 479 232 479 181 404.5 c 128,-1,31
 130 330 130 330 130 257 c 1,32,33
 131 195 131 195 165 152.5 c 128,-1,34
 199 110 199 110 254.5 92.5 c 128,-1,35
 310 75 310 75 378.5 71.5 c 128,-1,36
 447 68 447 68 517.5 80 c 128,-1,37
 588 92 588 92 652 112 c 128,-1,38
 716 132 716 132 762 158 c 1,39,40
 767 175 767 175 761 185 c 128,-1,41
 755 195 755 195 746 199 c 128,-1,42
 737 203 737 203 731 213.5 c 128,-1,43
 725 224 725 224 729 241 c 1,44,45
 793 235 793 235 845.5 247.5 c 128,-1,46
 898 260 898 260 935.5 285 c 128,-1,47
 973 310 973 310 1004 351 c 128,-1,48
 1035 392 1035 392 1055.5 437 c 128,-1,49
 1076 482 1076 482 1095 540 c 1,50,51
 1078 601 1078 601 1022.5 637.5 c 128,-1,52
 967 674 967 674 893.5 682.5 c 128,-1,53
 820 691 820 691 742.5 684 c 128,-1,54
 665 677 665 677 596 656 c 1,55,56
 614 713 614 713 668.5 743 c 128,-1,57
 723 773 723 773 792 773.5 c 128,-1,58
 861 774 861 774 932 760 c 128,-1,59
 1003 746 1003 746 1061 717.5 c 128,-1,60
 1119 689 1119 689 1145 656 c 1,61,62
 1175 563 1175 563 1158 480 c 128,-1,63
 1141 397 1141 397 1098 336.5 c 128,-1,64
 1055 276 1055 276 995 241 c 1,0,1
EndSplineSet
EndChar

StartChar: r
Encoding: 114 114 73
Width: 1072
Flags: W
LayerCount: 2
Fore
SplineSet
384 325 m 1,0,1
 426 286 426 286 500 257.5 c 128,-1,2
 574 229 574 229 652 211.5 c 128,-1,3
 730 194 730 194 806.5 176.5 c 128,-1,4
 883 159 883 159 946.5 131.5 c 128,-1,5
 1010 104 1010 104 1039 67 c 1,6,7
 990 44 990 44 928 43.5 c 128,-1,8
 866 43 866 43 806.5 58.5 c 128,-1,9
 747 74 747 74 675.5 97.5 c 128,-1,10
 604 121 604 121 540 144.5 c 128,-1,11
 476 168 476 168 401 185.5 c 128,-1,12
 326 203 326 203 263 205 c 1,13,14
 265 189 265 189 269.5 166 c 128,-1,15
 274 143 274 143 277.5 124.5 c 128,-1,16
 281 106 281 106 284.5 83.5 c 128,-1,17
 288 61 288 61 288 44.5 c 128,-1,18
 288 28 288 28 286 11.5 c 128,-1,19
 284 -5 284 -5 276.5 -14.5 c 128,-1,20
 269 -24 269 -24 256.5 -29.5 c 128,-1,21
 244 -35 244 -35 224 -32.5 c 128,-1,22
 204 -30 204 -30 177 -19 c 1,23,24
 183 18 183 18 184 57.5 c 128,-1,25
 185 97 185 97 175.5 136 c 128,-1,26
 166 175 166 175 149.5 207 c 128,-1,27
 133 239 133 239 104.5 261.5 c 128,-1,28
 76 284 76 284 39 291 c 1,29,30
 37 316 37 316 48 333.5 c 128,-1,31
 59 351 59 351 74 359 c 128,-1,32
 89 367 89 367 104.5 380.5 c 128,-1,33
 120 394 120 394 125 412 c 1,34,35
 130 454 130 454 125.5 491.5 c 128,-1,36
 121 529 121 529 120 561 c 128,-1,37
 119 593 119 593 123.5 616.5 c 128,-1,38
 128 640 128 640 149.5 654 c 128,-1,39
 171 668 171 668 211 670 c 1,40,41
 224 602 224 602 223 531.5 c 128,-1,42
 222 461 222 461 229 377 c 1,43,44
 361 384 361 384 448 442 c 128,-1,45
 535 500 535 500 591 601 c 1,46,47
 578 623 578 623 560.5 641 c 128,-1,48
 543 659 543 659 519.5 673 c 128,-1,49
 496 687 496 687 474 697 c 128,-1,50
 452 707 452 707 419.5 715 c 128,-1,51
 387 723 387 723 363 728 c 128,-1,52
 339 733 339 733 300 737.5 c 128,-1,53
 261 742 261 742 238 744.5 c 128,-1,54
 215 747 215 747 172 750.5 c 128,-1,55
 129 754 129 754 108 756 c 0,56,57
 99 757 99 757 95.5 760 c 128,-1,58
 92 763 92 763 93 768.5 c 128,-1,59
 94 774 94 774 96.5 779.5 c 128,-1,60
 99 785 99 785 102.5 793.5 c 128,-1,61
 106 802 106 802 108 808 c 1,62,63
 173 817 173 817 243 819 c 128,-1,64
 313 821 313 821 386.5 813 c 128,-1,65
 460 805 460 805 520 787 c 128,-1,66
 580 769 580 769 623 734.5 c 128,-1,67
 666 700 666 700 677 653 c 0,68,69
 704 533 704 533 560 429 c 0,70,71
 520 401 520 401 392 330 c 0,72,73
 388 328 388 328 384 325 c 1,0,1
EndSplineSet
EndChar

StartChar: s
Encoding: 115 115 74
Width: 1080
Flags: W
LayerCount: 2
Fore
SplineSet
638 501 m 1,0,1
 609 511 609 511 591.5 533 c 128,-1,2
 574 555 574 555 565 580 c 128,-1,3
 556 605 556 605 546.5 630 c 128,-1,4
 537 655 537 655 517 676.5 c 128,-1,5
 497 698 497 698 465 708 c 0,6,7
 366 738 366 738 277 685.5 c 128,-1,8
 188 633 188 633 155 535 c 1,9,10
 182 505 182 505 237.5 484 c 128,-1,11
 293 463 293 463 359.5 453.5 c 128,-1,12
 426 444 426 444 505 434.5 c 128,-1,13
 584 425 584 425 659 418 c 128,-1,14
 734 411 734 411 804 394.5 c 128,-1,15
 874 378 874 378 926 355 c 128,-1,16
 978 332 978 332 1008 290 c 128,-1,17
 1038 248 1038 248 1034 191 c 0,18,19
 1029 96 1029 96 901 34 c 0,20,21
 773 -29 773 -29 605 -25 c 0,22,23
 424 -21 424 -21 332 62 c 1,24,25
 244 143 244 143 276 277 c 1,26,27
 299 265 299 265 310.5 246.5 c 128,-1,28
 322 228 322 228 326 207.5 c 128,-1,29
 330 187 330 187 334.5 166 c 128,-1,30
 339 145 339 145 354 124 c 128,-1,31
 369 103 369 103 396 87 c 1,32,33
 455 56 455 56 541 52 c 128,-1,34
 627 48 627 48 707.5 67 c 128,-1,35
 788 86 788 86 855.5 124 c 128,-1,36
 923 162 923 162 948 208 c 1,37,38
 916 261 916 261 855 293.5 c 128,-1,39
 794 326 794 326 720.5 338 c 128,-1,40
 647 350 647 350 564.5 355 c 128,-1,41
 482 360 482 360 400 364.5 c 128,-1,42
 318 369 318 369 246.5 380 c 128,-1,43
 175 391 175 391 118.5 421 c 128,-1,44
 62 451 62 451 35 501 c 1,45,46
 48 559 48 559 83.5 616 c 128,-1,47
 119 673 119 673 169.5 719 c 128,-1,48
 220 765 220 765 289 791 c 128,-1,49
 358 817 358 817 431 811 c 0,50,51
 483 807 483 807 540 781 c 128,-1,52
 597 755 597 755 638.5 712.5 c 128,-1,53
 680 670 680 670 684.5 615.5 c 128,-1,54
 689 561 689 561 638 501 c 1,0,1
EndSplineSet
EndChar

StartChar: t
Encoding: 116 116 75
Width: 1068
Flags: W
LayerCount: 2
Fore
SplineSet
1028 764 m 1,0,1
 922 746 922 746 721 743.5 c 128,-1,2
 520 741 520 741 445 731 c 1,3,4
 448 704 448 704 458 682.5 c 128,-1,5
 468 661 468 661 486.5 634.5 c 128,-1,6
 505 608 505 608 511 597 c 1,7,8
 493 541 493 541 492.5 466 c 128,-1,9
 492 391 492 391 503.5 325 c 128,-1,10
 515 259 515 259 525 186 c 128,-1,11
 535 113 535 113 539 61.5 c 128,-1,12
 543 10 543 10 528 -36 c 1,13,14
 481 -26 481 -26 452.5 10.5 c 128,-1,15
 424 47 424 47 414.5 95 c 128,-1,16
 405 143 405 143 401 204 c 128,-1,17
 397 265 397 265 397.5 322 c 128,-1,18
 398 379 398 379 389 436.5 c 128,-1,19
 380 494 380 494 361 531 c 1,20,21
 364 542 364 542 373 570 c 128,-1,22
 382 598 382 598 384 609 c 128,-1,23
 386 620 386 620 387.5 640.5 c 128,-1,24
 389 661 389 661 382 678 c 128,-1,25
 375 695 375 695 361 714 c 1,26,27
 333 718 333 718 287.5 712.5 c 128,-1,28
 242 707 242 707 203 701 c 128,-1,29
 164 695 164 695 125.5 694 c 128,-1,30
 87 693 87 693 61 710 c 128,-1,31
 35 727 35 727 28 764 c 1,32,33
 218 824 218 824 525.5 822 c 128,-1,34
 833 820 833 820 1028 764 c 1,0,1
EndSplineSet
EndChar

StartChar: u
Encoding: 117 117 76
Width: 1044
Flags: W
LayerCount: 2
Fore
SplineSet
216 784 m 1,0,1
 232 727 232 727 231.5 668 c 128,-1,2
 231 609 231 609 219 560.5 c 128,-1,3
 207 512 207 512 191.5 456.5 c 128,-1,4
 176 401 176 401 161.5 350 c 128,-1,5
 147 299 147 299 141 235.5 c 128,-1,6
 135 172 135 172 143 107 c 1,7,8
 199 88 199 88 260.5 86 c 128,-1,9
 322 84 322 84 380.5 97 c 128,-1,10
 439 110 439 110 495.5 131.5 c 128,-1,11
 552 153 552 153 604.5 183.5 c 128,-1,12
 657 214 657 214 700.5 244.5 c 128,-1,13
 744 275 744 275 783 308 c 1,14,15
 786 356 786 356 776 420 c 128,-1,16
 766 484 766 484 756.5 535 c 128,-1,17
 747 586 747 586 744 638 c 128,-1,18
 741 690 741 690 759 732.5 c 128,-1,19
 777 775 777 775 820 802 c 1,20,21
 849 778 849 778 864 742 c 128,-1,22
 879 706 879 706 880 668.5 c 128,-1,23
 881 631 881 631 879 587 c 128,-1,24
 877 543 877 543 873 501.5 c 128,-1,25
 869 460 869 460 875 418 c 0,26,27
 882 360 882 360 902.5 289.5 c 128,-1,28
 923 219 923 219 942.5 167.5 c 128,-1,29
 962 116 962 116 975.5 58.5 c 128,-1,30
 989 1 989 1 985 -39 c 1,31,32
 954 -36 954 -36 930.5 -22.5 c 128,-1,33
 907 -9 907 -9 893 9 c 128,-1,34
 879 27 879 27 867.5 55 c 128,-1,35
 856 83 856 83 850 106 c 128,-1,36
 844 129 844 129 835 163 c 128,-1,37
 826 197 826 197 820 217 c 1,38,39
 783 205 783 205 741 184 c 128,-1,40
 699 163 699 163 662 140.5 c 128,-1,41
 625 118 625 118 583.5 92.5 c 128,-1,42
 542 67 542 67 504 45 c 128,-1,43
 466 23 466 23 423 4.5 c 128,-1,44
 380 -14 380 -14 339 -24.5 c 128,-1,45
 298 -35 298 -35 252 -34.5 c 128,-1,46
 206 -34 206 -34 161 -21 c 0,47,48
 106 -5 106 -5 75 36 c 128,-1,49
 44 77 44 77 38.5 135 c 128,-1,50
 33 193 33 193 40 259.5 c 128,-1,51
 47 326 47 326 64 402 c 128,-1,52
 81 478 81 478 98 546.5 c 128,-1,53
 115 615 115 615 128.5 685.5 c 128,-1,54
 142 756 142 756 143 802 c 1,55,56
 159 803 159 803 178.5 792.5 c 128,-1,57
 198 782 198 782 216 784 c 1,0,1
EndSplineSet
EndChar

StartChar: v
Encoding: 118 118 77
Width: 996
Flags: W
LayerCount: 2
Fore
SplineSet
935 793 m 1,0,1
 916 714 916 714 879 625.5 c 128,-1,2
 842 537 842 537 805 463 c 128,-1,3
 768 389 768 389 733 310 c 128,-1,4
 698 231 698 231 677 141.5 c 128,-1,5
 656 52 656 52 658 -38 c 1,6,7
 582 8 582 8 511 71.5 c 128,-1,8
 440 135 440 135 380 207 c 128,-1,9
 320 279 320 279 268 348 c 128,-1,10
 216 417 216 417 152.5 498.5 c 128,-1,11
 89 580 89 580 35 637 c 1,12,13
 41 658 41 658 69.5 681 c 128,-1,14
 98 704 98 704 104 724 c 1,15,16
 155 682 155 682 205 623 c 128,-1,17
 255 564 255 564 295.5 505 c 128,-1,18
 336 446 336 446 377 386.5 c 128,-1,19
 418 327 418 327 468.5 269 c 128,-1,20
 519 211 519 211 571 170 c 1,21,22
 604 235 604 235 642.5 331 c 128,-1,23
 681 427 681 427 709 501.5 c 128,-1,24
 737 576 737 576 779 662 c 128,-1,25
 821 748 821 748 866 811 c 1,26,27
 881 812 881 812 899.5 801.5 c 128,-1,28
 918 791 918 791 935 793 c 1,0,1
EndSplineSet
EndChar

StartChar: w
Encoding: 119 119 78
Width: 1459
Flags: W
LayerCount: 2
Fore
SplineSet
1414 752 m 1,0,1
 1412 718 1412 718 1395.5 694 c 128,-1,2
 1379 670 1379 670 1358.5 658 c 128,-1,3
 1338 646 1338 646 1310.5 627 c 128,-1,4
 1283 608 1283 608 1267 587 c 0,5,6
 1228 534 1228 534 1190.5 457 c 128,-1,7
 1153 380 1153 380 1124.5 309.5 c 128,-1,8
 1096 239 1096 239 1061.5 168 c 128,-1,9
 1027 97 1027 97 977 38 c 128,-1,10
 927 -21 927 -21 864 -56 c 1,11,12
 824 -27 824 -27 792.5 18.5 c 128,-1,13
 761 64 761 64 738.5 114.5 c 128,-1,14
 716 165 716 165 696 215.5 c 128,-1,15
 676 266 676 266 648.5 317.5 c 128,-1,16
 621 369 621 369 588 403 c 1,17,18
 565 380 565 380 555.5 334.5 c 128,-1,19
 546 289 546 289 545.5 239.5 c 128,-1,20
 545 190 545 190 543 141.5 c 128,-1,21
 541 93 541 93 526 54 c 128,-1,22
 511 15 511 15 478 -1 c 1,23,24
 452 -2 452 -2 431.5 6.5 c 128,-1,25
 411 15 411 15 399.5 25.5 c 128,-1,26
 388 36 388 36 377.5 58.5 c 128,-1,27
 367 81 367 81 363 95 c 128,-1,28
 359 109 359 109 352 138 c 0,29,30
 351 143 351 143 350 146 c 0,31,32
 335 178 335 178 309.5 214 c 128,-1,33
 284 250 284 250 256 280 c 128,-1,34
 228 310 228 310 196.5 344.5 c 128,-1,35
 165 379 165 379 137.5 410.5 c 128,-1,36
 110 442 110 442 87.5 479 c 128,-1,37
 65 516 65 516 52 551.5 c 128,-1,38
 39 587 39 587 39.5 629.5 c 128,-1,39
 40 672 40 672 56 715 c 1,40,41
 101 689 101 689 138 644.5 c 128,-1,42
 175 600 175 600 201 550 c 128,-1,43
 227 500 227 500 252 450 c 128,-1,44
 277 400 277 400 311.5 352 c 128,-1,45
 346 304 346 304 386 275 c 1,46,47
 413 299 413 299 430 343.5 c 128,-1,48
 447 388 447 388 455.5 434.5 c 128,-1,49
 464 481 464 481 475 526.5 c 128,-1,50
 486 572 486 572 509.5 608.5 c 128,-1,51
 533 645 533 645 570 660 c 1,52,53
 620 635 620 635 657 587.5 c 128,-1,54
 694 540 694 540 716.5 482 c 128,-1,55
 739 424 739 424 758 365.5 c 128,-1,56
 777 307 777 307 803.5 246 c 128,-1,57
 830 185 830 185 864 146 c 1,58,59
 924 206 924 206 983 293.5 c 128,-1,60
 1042 381 1042 381 1082.5 458 c 128,-1,61
 1123 535 1123 535 1179 629.5 c 128,-1,62
 1235 724 1235 724 1286 788 c 1,63,64
 1338 794 1338 794 1371 786.5 c 128,-1,65
 1404 779 1404 779 1414 752 c 1,0,1
EndSplineSet
EndChar

StartChar: x
Encoding: 120 120 79
Width: 896
Flags: W
LayerCount: 2
Fore
SplineSet
823 842 m 1,0,1
 785 778 785 778 679.5 634 c 128,-1,2
 574 490 574 490 528 400 c 1,3,4
 546 356 546 356 576 316.5 c 128,-1,5
 606 277 606 277 640.5 245.5 c 128,-1,6
 675 214 675 214 709.5 185 c 128,-1,7
 744 156 744 156 780.5 120.5 c 128,-1,8
 817 85 817 85 841 50 c 1,9,10
 838 34 838 34 829 19.5 c 128,-1,11
 820 5 820 5 812.5 -2.5 c 128,-1,12
 805 -10 805 -10 789 -23.5 c 128,-1,13
 773 -37 773 -37 767 -42 c 1,14,15
 727 -12 727 -12 686 33 c 128,-1,16
 645 78 645 78 616 118.5 c 128,-1,17
 587 159 587 159 547.5 208 c 128,-1,18
 508 257 508 257 473 289 c 1,19,20
 435 272 435 272 408 233 c 128,-1,21
 381 194 381 194 369 155 c 128,-1,22
 357 116 357 116 339.5 62 c 128,-1,23
 322 8 322 8 307 -24 c 1,24,25
 287 -27 287 -27 265 -12 c 128,-1,26
 243 3 243 3 215 -5 c 1,27,28
 211 50 211 50 222 96.5 c 128,-1,29
 233 143 233 143 253.5 178.5 c 128,-1,30
 274 214 274 214 296.5 243.5 c 128,-1,31
 319 273 319 273 343 310 c 128,-1,32
 367 347 367 347 381 382 c 1,33,34
 350 425 350 425 304.5 475 c 128,-1,35
 259 525 259 525 220.5 562.5 c 128,-1,36
 182 600 182 600 139 651 c 128,-1,37
 96 702 96 702 67 750 c 1,38,39
 105 772 105 772 138.5 773 c 128,-1,40
 172 774 172 774 199 756 c 128,-1,41
 226 738 226 738 250.5 710.5 c 128,-1,42
 275 683 275 683 298 647.5 c 128,-1,43
 321 612 321 612 341.5 579.5 c 128,-1,44
 362 547 362 547 387 517.5 c 128,-1,45
 412 488 412 488 436 474 c 1,46,47
 463 488 463 488 488 517.5 c 128,-1,48
 513 547 513 547 531 580.5 c 128,-1,49
 549 614 549 614 569 653 c 128,-1,50
 589 692 589 692 606 726 c 128,-1,51
 623 760 623 760 646 790.5 c 128,-1,52
 669 821 669 821 693 837.5 c 128,-1,53
 717 854 717 854 750.5 857.5 c 128,-1,54
 784 861 784 861 823 842 c 1,0,1
EndSplineSet
EndChar

StartChar: y
Encoding: 121 121 80
Width: 774
Flags: W
LayerCount: 2
Fore
SplineSet
723 831 m 1,0,1
 718 759 718 759 689 676.5 c 128,-1,2
 660 594 660 594 622.5 520 c 128,-1,3
 585 446 585 446 548.5 369 c 128,-1,4
 512 292 512 292 490 204.5 c 128,-1,5
 468 117 468 117 472 34 c 1,6,7
 460 24 460 24 444.5 1.5 c 128,-1,8
 429 -21 429 -21 412 -36.5 c 128,-1,9
 395 -52 395 -52 369 -54 c 1,10,11
 349 -27 349 -27 346.5 9 c 128,-1,12
 344 45 344 45 354.5 80.5 c 128,-1,13
 365 116 365 116 383 159 c 128,-1,14
 401 202 401 202 419.5 240 c 128,-1,15
 438 278 438 278 453.5 322.5 c 128,-1,16
 469 367 469 367 472 403 c 1,17,18
 401 379 401 379 335.5 384.5 c 128,-1,19
 270 390 270 390 214 424 c 128,-1,20
 158 458 158 458 118 506.5 c 128,-1,21
 78 555 78 555 58 617.5 c 128,-1,22
 38 680 38 680 44 743 c 1,23,24
 55 742 55 742 64.5 742 c 128,-1,25
 74 742 74 742 80.5 745.5 c 128,-1,26
 87 749 87 749 89 757 c 1,27,28
 109 731 109 731 132.5 690.5 c 128,-1,29
 156 650 156 650 175 618 c 128,-1,30
 194 586 194 586 219 553 c 128,-1,31
 244 520 244 520 278 496.5 c 128,-1,32
 312 473 312 473 354 462 c 1,33,34
 408 465 408 465 448.5 486.5 c 128,-1,35
 489 508 489 508 512 540 c 128,-1,36
 535 572 535 572 556 614.5 c 128,-1,37
 577 657 577 657 591.5 696.5 c 128,-1,38
 606 736 606 736 629 777.5 c 128,-1,39
 652 819 652 819 679 846 c 1,40,41
 701 830 701 830 723 831 c 1,0,1
EndSplineSet
EndChar

StartChar: z
Encoding: 122 122 81
Width: 1012
Flags: W
LayerCount: 2
Fore
SplineSet
788 832 m 1,0,1
 798 804 798 804 794 774.5 c 128,-1,2
 790 745 790 745 779.5 722.5 c 128,-1,3
 769 700 769 700 751.5 674.5 c 128,-1,4
 734 649 734 649 718 628.5 c 128,-1,5
 702 608 702 608 686 582 c 128,-1,6
 670 556 670 556 662 533 c 1,7,8
 673 513 673 513 696 509.5 c 128,-1,9
 719 506 719 506 747.5 513 c 128,-1,10
 776 520 776 520 805 527.5 c 128,-1,11
 834 535 834 535 864 534 c 128,-1,12
 894 533 894 533 914 517 c 1,13,14
 898 491 898 491 870 474 c 128,-1,15
 842 457 842 457 803.5 449 c 128,-1,16
 765 441 765 441 730.5 437.5 c 128,-1,17
 696 434 696 434 646.5 430.5 c 128,-1,18
 597 427 597 427 568 423 c 1,19,20
 387 219 387 219 284 92 c 1,21,22
 337 88 337 88 417.5 98 c 128,-1,23
 498 108 498 108 570.5 120 c 128,-1,24
 643 132 643 132 716 138.5 c 128,-1,25
 789 145 789 145 850 130.5 c 128,-1,26
 911 116 911 116 945 76 c 1,27,28
 860 80 860 80 761 66.5 c 128,-1,29
 662 53 662 53 583.5 32.5 c 128,-1,30
 505 12 505 12 415 -8 c 128,-1,31
 325 -28 325 -28 257 -36.5 c 128,-1,32
 189 -45 189 -45 111 -34 c 1,33,34
 127 16 127 16 155 62 c 128,-1,35
 183 108 183 108 216.5 145 c 128,-1,36
 250 182 250 182 283.5 216.5 c 128,-1,37
 317 251 317 251 352 293 c 128,-1,38
 387 335 387 335 410 375 c 1,39,40
 404 388 404 388 384.5 392.5 c 128,-1,41
 365 397 365 397 346 397.5 c 128,-1,42
 327 398 327 398 312.5 407.5 c 128,-1,43
 298 417 298 417 300 438 c 1,44,45
 298 464 298 464 310 478.5 c 128,-1,46
 322 493 322 493 342 496.5 c 128,-1,47
 362 500 362 500 387.5 501 c 128,-1,48
 413 502 413 502 439 500 c 128,-1,49
 465 498 465 498 489 501 c 1,50,51
 543 539 543 539 581 595 c 128,-1,52
 619 651 619 651 662 737 c 1,53,54
 655 737 655 737 608.5 736 c 128,-1,55
 562 735 562 735 544 734.5 c 128,-1,56
 526 734 526 734 478.5 732 c 128,-1,57
 431 730 431 730 405 728 c 128,-1,58
 379 726 379 726 335.5 723 c 128,-1,59
 292 720 292 720 262 715.5 c 128,-1,60
 232 711 232 711 196.5 705 c 128,-1,61
 161 699 161 699 132.5 691.5 c 128,-1,62
 104 684 104 684 79 674 c 1,63,64
 79 695 79 695 68 713.5 c 128,-1,65
 57 732 57 732 49.5 752 c 128,-1,66
 42 772 42 772 48 800 c 1,67,68
 113 801 113 801 386 819.5 c 128,-1,69
 659 838 659 838 788 832 c 1,0,1
EndSplineSet
EndChar

StartChar: dieresis
Encoding: 168 168 83
Width: 432
Flags: W
LayerCount: 2
Fore
SplineSet
33.5996 662 m 4,0,1
 33.5996 684 33.5996 684 51 698.5 c 132,-1,2
 68.4004 713 68.4004 713 96 713 c 4,3,4
 122.4 713 122.4 713 139.8 698.5 c 132,-1,5
 157.2 684 157.2 684 157.2 662 c 4,6,7
 157.2 639 157.2 639 139.8 624.5 c 132,-1,8
 122.4 610 122.4 610 96 610 c 4,9,10
 68.4004 610 68.4004 610 51 624.5 c 132,-1,11
 33.5996 639 33.5996 639 33.5996 662 c 4,0,1
274.8 662 m 4,12,13
 274.8 684 274.8 684 292.8 698.5 c 132,-1,14
 310.8 713 310.8 713 337.2 713 c 4,15,16
 364.8 713 364.8 713 381.6 698.5 c 132,-1,17
 398.4 684 398.4 684 398.4 662 c 4,18,19
 398.4 639 398.4 639 381.6 624.5 c 132,-1,20
 364.8 610 364.8 610 337.2 610 c 4,21,22
 310.8 610 310.8 610 292.8 624.5 c 132,-1,23
 274.8 639 274.8 639 274.8 662 c 4,12,13
EndSplineSet
EndChar

StartChar: asciicircum
Encoding: 94 94 89
Width: 393
VWidth: 1024
Flags: W
LayerCount: 2
Fore
SplineSet
22 682 m 0,0,1
 22 697 22 697 35 720 c 128,-1,2
 48 743 48 743 72 767.5 c 128,-1,3
 96 792 96 792 129.5 816.5 c 128,-1,4
 163 841 163 841 203 859 c 1,5,6
 230 842 230 842 250.5 828.5 c 128,-1,7
 271 815 271 815 289 798.5 c 128,-1,8
 307 782 307 782 325.5 759 c 128,-1,9
 344 736 344 736 367 699 c 1,10,11
 375 684 375 684 375.5 671 c 128,-1,12
 376 658 376 658 370 650 c 128,-1,13
 364 642 364 642 352.5 641 c 128,-1,14
 341 640 341 640 325 649 c 1,15,16
 307 662 307 662 297 669 c 128,-1,17
 287 676 287 676 281 680.5 c 128,-1,18
 275 685 275 685 270.5 690 c 128,-1,19
 266 695 266 695 257.5 703.5 c 128,-1,20
 249 712 249 712 234.5 727 c 128,-1,21
 220 742 220 742 194 768 c 1,22,23
 167 749 167 749 147.5 733 c 128,-1,24
 128 717 128 717 114 701.5 c 128,-1,25
 100 686 100 686 90.5 670.5 c 128,-1,26
 81 655 81 655 74 637 c 1,27,28
 51 637 51 637 36.5 643.5 c 128,-1,29
 22 650 22 650 22 682 c 0,0,1
EndSplineSet
EndChar

StartChar: cedilla
Encoding: 184 184 90
Width: 325
Flags: W
LayerCount: 2
Fore
SplineSet
207.35 -125.1 m 4,0,1
 207.35 -102 207.35 -102 185.9 -91 c 132,-1,2
 164.45 -80 164.45 -80 126.75 -78.9004 c 5,3,-1
 102.05 -78.9004 l 5,4,-1
 163.15 10.2002 l 5,5,-1
 232.05 10.2002 l 5,6,-1
 199.55 -47 l 5,7,8
 239.85 -52.5 239.85 -52.5 265.2 -69.5498 c 132,-1,9
 290.55 -86.5996 290.55 -86.5996 290.55 -125.1 c 4,10,11
 290.55 -159.2 290.55 -159.2 258.7 -186.7 c 132,-1,12
 226.85 -214.2 226.85 -214.2 152.75 -214.2 c 4,13,14
 129.35 -214.2 129.35 -214.2 110.5 -209.25 c 132,-1,15
 91.6504 -204.3 91.6504 -204.3 76.7002 -197.15 c 132,-1,16
 61.75 -190 61.75 -190 51.3496 -182.85 c 132,-1,17
 40.9502 -175.7 40.9502 -175.7 34.4502 -170.2 c 5,18,-1
 70.8496 -130.6 l 5,19,20
 81.25 -139.4 81.25 -139.4 102.05 -151.5 c 132,-1,21
 122.85 -163.6 122.85 -163.6 152.75 -163.6 c 260,22,23
 182.65 -163.6 182.65 -163.6 195 -151.5 c 132,-1,24
 207.35 -139.4 207.35 -139.4 207.35 -125.1 c 4,0,1
EndSplineSet
EndChar

StartChar: grave
Encoding: 96 96 91
Width: 343
Flags: W
LayerCount: 2
Fore
SplineSet
160.7 741.4 m 5,0,-1
 265.5 624.6 l 5,1,-1
 210.3 624.6 l 5,2,-1
 77.5 741.4 l 5,3,-1
 160.7 741.4 l 5,0,-1
EndSplineSet
EndChar

StartChar: asciitilde
Encoding: 126 126 98
Width: 569
VWidth: 1024
Flags: W
LayerCount: 2
Fore
SplineSet
263 657 m 1,0,1
 238 679 238 679 219 694 c 128,-1,2
 200 709 200 709 180.5 707.5 c 128,-1,3
 161 706 161 706 137.5 683.5 c 128,-1,4
 114 661 114 661 78 608 c 1,5,6
 74 608 74 608 67 609 c 128,-1,7
 60 610 60 610 53 613 c 128,-1,8
 46 616 46 616 40 621 c 128,-1,9
 34 626 34 626 32 634 c 1,10,11
 51 694 51 694 88.5 740 c 128,-1,12
 126 786 126 786 168 803 c 0,13,14
 185 810 185 810 200.5 804 c 128,-1,15
 216 798 216 798 231.5 785.5 c 128,-1,16
 247 773 247 773 261.5 756.5 c 128,-1,17
 276 740 276 740 291.5 725 c 128,-1,18
 307 710 307 710 323.5 700 c 128,-1,19
 340 690 340 690 358 690 c 0,20,21
 386 690 386 690 401.5 698.5 c 128,-1,22
 417 707 417 707 430 723.5 c 128,-1,23
 443 740 443 740 458.5 764 c 128,-1,24
 474 788 474 788 502 818 c 1,25,26
 506 818 506 818 512.5 815.5 c 128,-1,27
 519 813 519 813 525 808.5 c 128,-1,28
 531 804 531 804 535 799 c 128,-1,29
 539 794 539 794 539 789 c 0,30,31
 544 761 544 761 532 733.5 c 128,-1,32
 520 706 520 706 497 683 c 128,-1,33
 474 660 474 660 443 644 c 128,-1,34
 412 628 412 628 379.5 622.5 c 128,-1,35
 347 617 347 617 316.5 624.5 c 128,-1,36
 286 632 286 632 263 657 c 1,0,1
EndSplineSet
EndChar

StartChar: degree
Encoding: 176 176 99
Width: 281
VWidth: 1024
Flags: W
LayerCount: 2
Fore
SplineSet
31 438 m 4,0,1
 31 480 31 480 46 504.5 c 132,-1,2
 61 529 61 529 84 539 c 132,-1,3
 107 549 107 549 134 546 c 132,-1,4
 161 543 161 543 185 529 c 132,-1,5
 209 515 209 515 226 492.5 c 132,-1,6
 243 470 243 470 246 442 c 5,7,8
 246 379 246 379 220 358.5 c 132,-1,9
 194 338 194 338 143 338 c 4,10,11
 127 338 127 338 107.5 344 c 132,-1,12
 88 350 88 350 71 362.5 c 132,-1,13
 54 375 54 375 42.5 394 c 132,-1,14
 31 413 31 413 31 438 c 4,0,1
187 463 m 5,15,16
 166 486 166 486 142 491 c 132,-1,17
 118 496 118 496 101 486.5 c 132,-1,18
 84 477 84 477 80 455.5 c 132,-1,19
 76 434 76 434 95 403 c 5,20,21
 118 384 118 384 139.5 382 c 132,-1,22
 161 380 161 380 175 390 c 132,-1,23
 189 400 189 400 193.5 419.5 c 132,-1,24
 198 439 198 439 187 463 c 5,15,16
EndSplineSet
EndChar

StartChar: ring
Encoding: 730 730 100
Width: 316
Flags: W
LayerCount: 2
Fore
SplineSet
54.251 693 m 5,0,1
 62.0098 653 62.0098 653 98.2402 625 c 132,-1,2
 134.471 597 134.471 597 178.471 597 c 4,3,4
 199.371 597 199.371 597 216.616 604.5 c 132,-1,5
 233.861 612 233.861 612 245.09 625 c 132,-1,6
 256.318 638 256.318 638 260.624 655.5 c 132,-1,7
 264.93 673 264.93 673 261.051 693 c 4,8,9
 257.365 712 257.365 712 246.368 729 c 132,-1,10
 235.371 746 235.371 746 219.196 758.5 c 132,-1,11
 203.022 771 203.022 771 182.964 778 c 132,-1,12
 162.906 785 162.906 785 142.007 785 c 4,13,14
 120.007 785 120.007 785 102.114 778 c 132,-1,15
 84.2217 771 84.2217 771 72.3467 758.5 c 132,-1,16
 60.4707 746 60.4707 746 55.5186 729 c 132,-1,17
 50.5654 712 50.5654 712 54.251 693 c 5,18,19
 50.5654 712 50.5654 712 55.5186 729 c 132,-1,20
 60.4707 746 60.4707 746 72.3467 758.5 c 132,-1,21
 84.2217 771 84.2217 771 102.114 778 c 132,-1,22
 120.007 785 120.007 785 142.007 785 c 4,23,24
 162.906 785 162.906 785 182.964 778 c 132,-1,25
 203.022 771 203.022 771 219.196 758.5 c 132,-1,26
 235.371 746 235.371 746 246.368 729 c 132,-1,27
 257.365 712 257.365 712 261.051 693 c 4,28,29
 264.93 673 264.93 673 260.624 655.5 c 132,-1,30
 256.318 638 256.318 638 245.09 625 c 132,-1,31
 233.861 612 233.861 612 216.616 604.5 c 132,-1,32
 199.371 597 199.371 597 178.471 597 c 4,33,34
 134.471 597 134.471 597 98.2402 625 c 132,-1,35
 62.0098 653 62.0098 653 54.251 693 c 4,36,37
 50.5654 712 50.5654 712 55.5186 729 c 132,-1,38
 60.4707 746 60.4707 746 72.3467 758.5 c 132,-1,39
 84.2217 771 84.2217 771 102.114 778 c 132,-1,40
 120.007 785 120.007 785 142.007 785 c 4,41,42
 162.906 785 162.906 785 182.964 778 c 132,-1,43
 203.022 771 203.022 771 219.196 758.5 c 132,-1,44
 235.371 746 235.371 746 246.368 729 c 132,-1,45
 257.365 712 257.365 712 261.051 693 c 4,46,47
 264.93 673 264.93 673 260.624 655.5 c 132,-1,48
 256.318 638 256.318 638 245.09 625 c 132,-1,49
 233.861 612 233.861 612 216.616 604.5 c 132,-1,50
 199.371 597 199.371 597 178.471 597 c 4,51,52
 134.471 597 134.471 597 98.2402 625 c 132,-1,53
 62.0098 653 62.0098 653 54.251 693 c 5,0,1
107.051 693 m 4,54,55
 110.93 673 110.93 673 129.046 659 c 132,-1,56
 147.161 645 147.161 645 169.161 645 c 4,57,58
 187.861 645 187.861 645 200.546 659 c 132,-1,59
 213.23 673 213.23 673 209.351 693 c 4,60,61
 206.054 710 206.054 710 187.938 724 c 132,-1,62
 169.822 738 169.822 738 151.123 738 c 4,63,64
 129.123 738 129.123 738 116.438 724 c 132,-1,65
 103.754 710 103.754 710 107.051 693 c 4,54,55
EndSplineSet
EndChar

StartChar: tilde
Encoding: 732 732 101
Width: 537
Flags: W
LayerCount: 2
Fore
SplineSet
473 668 m 5,0,1
 461 654 461 654 445 643 c 4,2,3
 431 633 431 633 411 625 c 132,-1,4
 391 617 391 617 365 615 c 4,5,6
 343 613 343 613 316.5 621 c 132,-1,7
 290 629 290 629 263 639 c 4,8,9
 240 647 240 647 216.5 655 c 132,-1,10
 193 663 193 663 174 662 c 4,11,12
 152 660 152 660 136.5 654.5 c 132,-1,13
 121 649 121 649 110 642 c 4,14,15
 98 634 98 634 89 624 c 5,16,-1
 64 674 l 5,17,18
 76 688 76 688 92 699 c 4,19,20
 106 709 106 709 126 717 c 132,-1,21
 146 725 146 725 172 727 c 4,22,23
 194 729 194 729 220.5 721 c 132,-1,24
 247 713 247 713 274 703 c 4,25,26
 297 695 297 695 320.5 687 c 132,-1,27
 344 679 344 679 363 680 c 4,28,29
 385 681 385 681 400.5 687 c 132,-1,30
 416 693 416 693 427 700 c 4,31,32
 439 708 439 708 448 718 c 5,33,-1
 473 668 l 5,0,1
EndSplineSet
EndChar

StartChar: circumflex
Encoding: 710 710 102
Width: 496
Flags: W
LayerCount: 2
Fore
SplineSet
281 756 m 5,0,-1
 437 610 l 5,1,-1
 346 610 l 5,2,-1
 248 705 l 5,3,-1
 150 610 l 5,4,-1
 59 610 l 5,5,-1
 215 756 l 5,6,-1
 281 756 l 5,0,-1
EndSplineSet
EndChar

StartChar: acute
Encoding: 180 180 117
Width: 343
Flags: W
LayerCount: 2
Fore
SplineSet
289 756 m 5,0,-1
 123 610 l 5,1,-1
 54 610 l 5,2,-1
 185 756 l 5,3,-1
 289 756 l 5,0,-1
EndSplineSet
EndChar

StartChar: guillemotleft
Encoding: 171 171 142
Width: 897
VWidth: 1024
Flags: W
LayerCount: 2
Fore
SplineSet
105 286 m 1,0,1
 145 317 145 317 198.5 360 c 128,-1,2
 252 403 252 403 307.5 446 c 128,-1,3
 363 489 363 489 414 526.5 c 128,-1,4
 465 564 465 564 501 584 c 1,5,6
 510 583 510 583 516 575 c 128,-1,7
 522 567 522 567 525.5 556 c 128,-1,8
 529 545 529 545 528.5 533.5 c 128,-1,9
 528 522 528 522 524 515 c 1,10,-1
 230 291 l 1,11,12
 249 282 249 282 283.5 265.5 c 128,-1,13
 318 249 318 249 361 228 c 128,-1,14
 404 207 404 207 450.5 182 c 128,-1,15
 497 157 497 157 539 129 c 1,16,17
 537 127 537 127 533.5 118.5 c 128,-1,18
 530 110 530 110 525.5 100.5 c 128,-1,19
 521 91 521 91 517 82.5 c 128,-1,20
 513 74 513 74 511 74 c 1,21,22
 487 89 487 89 451.5 103 c 128,-1,23
 416 117 416 117 375 132 c 128,-1,24
 334 147 334 147 291.5 163.5 c 128,-1,25
 249 180 249 180 212 198.5 c 128,-1,26
 175 217 175 217 146.5 238.5 c 128,-1,27
 118 260 118 260 105 286 c 1,0,1
397 314 m 1,28,29
 437 345 437 345 490.5 388 c 128,-1,30
 544 431 544 431 599.5 474 c 128,-1,31
 655 517 655 517 706 554.5 c 128,-1,32
 757 592 757 592 793 612 c 1,33,34
 802 611 802 611 808 603 c 128,-1,35
 814 595 814 595 817.5 584 c 128,-1,36
 821 573 821 573 820.5 561.5 c 128,-1,37
 820 550 820 550 816 543 c 1,38,-1
 522 319 l 1,39,40
 541 310 541 310 575.5 293.5 c 128,-1,41
 610 277 610 277 653 256 c 128,-1,42
 696 235 696 235 742.5 210 c 128,-1,43
 789 185 789 185 831 157 c 1,44,45
 829 155 829 155 825.5 146.5 c 128,-1,46
 822 138 822 138 817.5 128.5 c 128,-1,47
 813 119 813 119 809 110.5 c 128,-1,48
 805 102 805 102 803 102 c 1,49,50
 779 117 779 117 743.5 131 c 128,-1,51
 708 145 708 145 667 160 c 128,-1,52
 626 175 626 175 583.5 191.5 c 128,-1,53
 541 208 541 208 504 226.5 c 128,-1,54
 467 245 467 245 438.5 266.5 c 128,-1,55
 410 288 410 288 397 314 c 1,28,29
EndSplineSet
EndChar

StartChar: guillemotright
Encoding: 187 187 143
Width: 837
VWidth: 1024
Flags: W
LayerCount: 2
Fore
SplineSet
147 60 m 1,0,1
 105 76 105 76 92 93.5 c 128,-1,2
 79 111 79 111 86.5 129 c 128,-1,3
 94 147 94 147 118 166 c 128,-1,4
 142 185 142 185 174 205 c 128,-1,5
 206 225 206 225 242 245.5 c 128,-1,6
 278 266 278 266 309.5 286.5 c 128,-1,7
 341 307 341 307 364 328.5 c 128,-1,8
 387 350 387 350 393 371 c 1,9,-1
 62 495 l 1,10,-1
 125 556 l 1,11,12
 166 527 166 527 202.5 510 c 128,-1,13
 239 493 239 493 272.5 483 c 128,-1,14
 306 473 306 473 338 466.5 c 128,-1,15
 370 460 370 460 402 451.5 c 128,-1,16
 434 443 434 443 466 428.5 c 128,-1,17
 498 414 498 414 533 389 c 1,18,19
 501 350 501 350 451.5 310.5 c 128,-1,20
 402 271 402 271 347.5 230 c 128,-1,21
 293 189 293 189 240 146.5 c 128,-1,22
 187 104 187 104 147 60 c 1,0,1
431 95 m 1,23,24
 389 111 389 111 376 128.5 c 128,-1,25
 363 146 363 146 370.5 164 c 128,-1,26
 378 182 378 182 402 201 c 128,-1,27
 426 220 426 220 458 240 c 128,-1,28
 490 260 490 260 526 280.5 c 128,-1,29
 562 301 562 301 593.5 321.5 c 128,-1,30
 625 342 625 342 648 363.5 c 128,-1,31
 671 385 671 385 677 406 c 1,32,-1
 346 530 l 1,33,-1
 409 591 l 1,34,35
 450 562 450 562 486.5 545 c 128,-1,36
 523 528 523 528 556.5 518 c 128,-1,37
 590 508 590 508 622 501.5 c 128,-1,38
 654 495 654 495 686 486.5 c 128,-1,39
 718 478 718 478 750 463.5 c 128,-1,40
 782 449 782 449 817 424 c 1,41,42
 785 385 785 385 735.5 345.5 c 128,-1,43
 686 306 686 306 631.5 265 c 128,-1,44
 577 224 577 224 524 181.5 c 128,-1,45
 471 139 471 139 431 95 c 1,23,24
EndSplineSet
EndChar

StartChar: dotlessi
Encoding: 305 305 144
Width: 960
Flags: W
HStem: 62 80.5<577.191 830.689> 91.5 63.5<782.886 875.364> 684 109<129.458 290.5>
LayerCount: 2
Fore
SplineSet
728 736 m 1,0,1
 710 716 710 716 681.5 714.5 c 128,-1,2
 653 713 653 713 626.5 721.5 c 128,-1,3
 600 730 600 730 566 736 c 128,-1,4
 532 742 532 742 508 736 c 1,5,6
 486 642 486 642 492.5 533.5 c 128,-1,7
 499 425 499 425 521 329.5 c 128,-1,8
 543 234 543 234 576 159 c 1,9,10
 614 144 614 144 667.5 142.5 c 128,-1,11
 721 141 721 141 761 148 c 128,-1,12
 801 155 801 155 842.5 155 c 128,-1,13
 884 155 884 155 898 142 c 1,14,15
 879 110 879 110 846.5 91.5 c 128,-1,16
 814 73 814 73 771 68 c 128,-1,17
 728 63 728 63 686.5 62.5 c 128,-1,18
 645 62 645 62 593.5 62 c 128,-1,19
 542 62 542 62 508 58 c 1,20,21
 468 52 468 52 418.5 36 c 128,-1,22
 369 20 369 20 330 5.5 c 128,-1,23
 291 -9 291 -9 252 -20.5 c 128,-1,24
 213 -32 213 -32 178.5 -30.5 c 128,-1,25
 144 -29 144 -29 118 -10 c 1,26,27
 125 8 125 8 136 23.5 c 128,-1,28
 147 39 147 39 158 51 c 128,-1,29
 169 63 169 63 187 74.5 c 128,-1,30
 205 86 205 86 217.5 93.5 c 128,-1,31
 230 101 230 101 253.5 109 c 128,-1,32
 277 117 277 117 290 121.5 c 128,-1,33
 303 126 303 126 331.5 133 c 128,-1,34
 360 140 360 140 372 142.5 c 128,-1,35
 384 145 384 145 415.5 151 c 128,-1,36
 447 157 447 157 457 159 c 1,37,38
 430 232 430 232 415 342 c 128,-1,39
 400 452 400 452 388 557 c 128,-1,40
 376 662 376 662 355 719 c 1,41,42
 312 702 312 702 258 691 c 128,-1,43
 204 680 204 680 141.5 684 c 128,-1,44
 79 688 79 688 50 719 c 1,45,46
 92 765 92 765 190.5 793 c 128,-1,47
 289 821 289 821 393.5 824.5 c 128,-1,48
 498 828 498 828 594.5 805 c 128,-1,49
 691 782 691 782 728 736 c 1,0,1
EndSplineSet
EndChar

